<svg width="40" height="40" viewBox="0 0 40 40" fill="none" xmlns="http://www.w3.org/2000/svg">
<path d="M36.6654 37.917H3.33203C2.6487 37.917 2.08203 37.3503 2.08203 36.667C2.08203 35.9837 2.6487 35.417 3.33203 35.417H36.6654C37.3487 35.417 37.9154 35.9837 37.9154 36.667C37.9154 37.3503 37.3487 37.917 36.6654 37.917Z" fill="#14BDDC"/>
<path d="M34.8169 37.917C34.1336 37.917 33.5669 37.3503 33.5669 36.667V21.667C33.5669 19.6003 31.6336 17.917 29.2669 17.917H10.7336C8.36693 17.917 6.43359 19.6003 6.43359 21.667V36.667C6.43359 37.3503 5.86693 37.917 5.18359 37.917C4.50026 37.917 3.93359 37.3503 3.93359 36.667V21.667C3.93359 18.217 6.98359 15.417 10.7336 15.417H29.2503C33.0003 15.417 36.0503 18.217 36.0503 21.667V36.667C36.0669 37.3503 35.5003 37.917 34.8169 37.917Z" fill="#14BDDC"/>
<path d="M30.7323 17.9173C30.049 17.9173 29.4823 17.3506 29.4823 16.6673V11.9507C29.4823 10.6507 28.2323 9.58398 26.7156 9.58398H13.299C11.7656 9.58398 10.5323 10.6507 10.5323 11.9507V16.6673C10.5323 17.3506 9.96563 17.9173 9.28229 17.9173C8.59896 17.9173 8.01562 17.3506 8.01562 16.6673V11.9507C8.01562 9.26732 10.3823 7.08398 13.2823 7.08398H26.699C29.599 7.08398 31.9656 9.26732 31.9656 11.9507V16.6673C31.9823 17.3506 31.4156 17.9173 30.7323 17.9173Z" fill="#14BDDC"/>
<path d="M28.8845 29.5837C26.9511 29.5837 25.3845 28.017 25.3845 26.0837V25.567C25.3845 25.017 24.9345 24.567 24.3845 24.567C23.8345 24.567 23.3845 25.017 23.3845 25.567V26.0837C23.3845 28.017 21.8178 29.5837 19.8845 29.5837C17.9511 29.5837 16.3845 28.017 16.3845 26.0837V25.567C16.3845 25.017 15.9345 24.567 15.3845 24.567C14.8345 24.567 14.3845 25.017 14.3845 25.567V26.0837C14.3845 28.017 12.8178 29.5837 10.8845 29.5837C8.95114 29.5837 7.38447 28.017 7.38447 26.0837V25.5337C7.38447 25.0004 6.95114 24.5504 6.40114 24.5337H5.78447C5.10114 24.517 4.53447 23.9504 4.55114 23.267C4.56781 22.5837 5.11781 22.0337 5.80114 22.0337H5.81781H6.43447C8.33447 22.067 9.88447 23.6337 9.88447 25.5337V26.0837C9.88447 26.6337 10.3345 27.0837 10.8845 27.0837C11.4345 27.0837 11.8845 26.6337 11.8845 26.0837V25.567C11.8845 23.6337 13.4511 22.067 15.3845 22.067C17.3178 22.067 18.8845 23.6337 18.8845 25.567V26.0837C18.8845 26.6337 19.3345 27.0837 19.8845 27.0837C20.4345 27.0837 20.8845 26.6337 20.8845 26.0837V25.567C20.8845 23.6337 22.4511 22.067 24.3845 22.067C26.3178 22.067 27.8845 23.6337 27.8845 25.567V26.0837C27.8845 26.6337 28.3345 27.0837 28.8845 27.0837C29.4345 27.0837 29.8845 26.6337 29.8845 26.0837V25.567C29.8845 23.6337 31.4511 22.067 33.3845 22.067H34.1345C34.8178 22.067 35.3845 22.6337 35.3845 23.317C35.3845 24.0004 34.8178 24.567 34.1345 24.567H33.3845C32.8345 24.567 32.3845 25.017 32.3845 25.567V26.0837C32.3845 28.017 30.8178 29.5837 28.8845 29.5837Z" fill="#14BDDC"/>
<path d="M13.332 9.58382C12.6487 9.58382 12.082 9.01715 12.082 8.33382V5.00049C12.082 4.31715 12.6487 3.75049 13.332 3.75049C14.0154 3.75049 14.582 4.31715 14.582 5.00049V8.33382C14.582 9.01715 14.0154 9.58382 13.332 9.58382Z" fill="#14BDDC"/>
<path d="M26.668 9.58382C25.9846 9.58382 25.418 9.01715 25.418 8.33382V5.00049C25.418 4.31715 25.9846 3.75049 26.668 3.75049C27.3513 3.75049 27.918 4.31715 27.918 5.00049V8.33382C27.918 9.01715 27.3513 9.58382 26.668 9.58382Z" fill="#14BDDC"/>
<path d="M20 9.58398C19.3167 9.58398 18.75 9.01732 18.75 8.33398V3.33398C18.75 2.65065 19.3167 2.08398 20 2.08398C20.6833 2.08398 21.25 2.65065 21.25 3.33398V8.33398C21.25 9.01732 20.6833 9.58398 20 9.58398Z" fill="#14BDDC"/>
</svg>
