<svg width="40" height="40" viewBox="0 0 40 40" fill="none" xmlns="http://www.w3.org/2000/svg">
<path d="M28.1484 26.6007C27.8318 26.6007 27.4984 26.4673 27.2651 26.234L21.9484 20.9173C21.4651 20.434 21.4651 19.634 21.9484 19.1507L27.3151 13.784C27.6984 13.4007 28.2818 13.3174 28.7651 13.5507L36.2484 17.3007C37.2818 17.8007 37.9318 18.834 37.9318 20.0007C37.9318 21.1674 37.2818 22.2007 36.2484 22.7007L28.7318 26.4674C28.5318 26.5507 28.3318 26.6007 28.1484 26.6007ZM24.5984 20.034L28.3818 23.8174L35.0984 20.4507C35.0984 20.4507 35.0984 20.4507 35.1151 20.4507C35.3651 20.334 35.3984 20.1174 35.3984 20.0007C35.3984 19.884 35.3651 19.6674 35.1151 19.5507L28.4318 16.2007L24.5984 20.034Z" fill="#14BDDC"/>
<path d="M5.11536 37.9174C4.56536 37.9174 3.9987 37.7674 3.51536 37.4507C2.61536 36.9007 2.08203 35.934 2.08203 34.8674V5.10069C2.08203 4.05069 2.61536 3.08404 3.51536 2.51737C4.41536 1.96737 5.51536 1.90068 6.46536 2.38401L28.7487 13.534C29.1154 13.7174 29.3654 14.0507 29.4154 14.4507C29.4654 14.8507 29.3487 15.2507 29.0654 15.534L7.73203 36.8674C7.63203 36.9674 7.53203 37.034 7.3987 37.1007L6.43203 37.584C6.03203 37.8173 5.56536 37.9174 5.11536 37.9174ZM5.11536 4.58403C4.9987 4.58403 4.8987 4.634 4.83203 4.66734C4.73203 4.71734 4.58203 4.86737 4.58203 5.11737V34.884C4.58203 35.1507 4.73203 35.284 4.83203 35.334C4.93203 35.4007 5.11536 35.4673 5.36536 35.3507L6.13203 34.9674L26.082 15.0174L5.3487 4.65071C5.26536 4.60071 5.18203 4.58403 5.11536 4.58403Z" fill="#14BDDC"/>
<path d="M6.86795 37.2504C6.48462 37.2504 6.10129 37.0671 5.85129 36.7337C5.48462 36.2337 5.55129 35.5504 5.98462 35.1171L21.9513 19.1504C22.1846 18.917 22.5013 18.7837 22.8346 18.7837C23.168 18.7837 23.4846 18.917 23.718 19.1504L29.0346 24.467C29.318 24.7504 29.4513 25.1504 29.3846 25.5504C29.318 25.9504 29.068 26.2837 28.718 26.4671L7.45129 37.117C7.25129 37.2004 7.06795 37.2504 6.86795 37.2504ZM22.8346 21.8004L13.218 31.4171L26.0346 25.0004L22.8346 21.8004Z" fill="#14BDDC"/>
<path d="M22.8328 21.284C22.5161 21.284 22.1995 21.1673 21.9495 20.9173L5.93281 4.90065C5.44948 4.41731 5.44948 3.61732 5.93281 3.13398C6.41615 2.65065 7.21615 2.65065 7.69948 3.13398L23.7161 19.1506C24.1995 19.634 24.1995 20.434 23.7161 20.9173C23.4828 21.1673 23.1495 21.284 22.8328 21.284Z" fill="#14BDDC"/>
<path d="M27.9284 25.8778C27.6284 25.8778 27.3117 25.7611 27.0784 25.5111L27.0284 25.4611C26.5451 24.9778 26.5451 24.1778 27.0451 23.6944C27.5451 23.2111 28.3284 23.2111 28.8117 23.7111C29.2951 24.1944 29.3117 25.0278 28.8284 25.5111C28.5617 25.7611 28.2451 25.8778 27.9284 25.8778Z" fill="#14BDDC"/>
</svg>
