<svg width="61" height="60" viewBox="0 0 61 60" fill="none" xmlns="http://www.w3.org/2000/svg">
<path d="M38 56.875H23C9.425 56.875 3.625 51.075 3.625 37.5V22.5C3.625 8.925 9.425 3.125 23 3.125H35.5C36.525 3.125 37.375 3.975 37.375 5C37.375 6.025 36.525 6.875 35.5 6.875H23C11.475 6.875 7.375 10.975 7.375 22.5V37.5C7.375 49.025 11.475 53.125 23 53.125H38C49.525 53.125 53.625 49.025 53.625 37.5V25C53.625 23.975 54.475 23.125 55.5 23.125C56.525 23.125 57.375 23.975 57.375 25V37.5C57.375 51.075 51.575 56.875 38 56.875Z" fill="#14BDDC"/>
<path d="M55.5 26.8752H45.5C36.95 26.8752 33.625 23.5502 33.625 15.0002V5.00022C33.625 4.25022 34.075 3.55022 34.775 3.27522C35.475 2.97522 36.275 3.15022 36.825 3.67522L56.825 23.6752C57.35 24.2002 57.525 25.0252 57.225 25.7252C56.95 26.4252 56.25 26.8752 55.5 26.8752ZM37.375 9.52522V15.0002C37.375 21.4502 39.05 23.1252 45.5 23.1252H50.975L37.375 9.52522Z" fill="#14BDDC"/>
<path d="M24.6266 46.7746C23.5266 46.7746 22.4766 46.3496 21.7016 45.5746L15.5516 39.4246C14.2016 38.0746 13.9766 35.7996 15.0266 34.1996L17.8516 29.9496C18.5516 28.8746 20.0016 28.0996 21.3016 28.0996H27.9266C29.2016 28.0996 30.6516 28.8746 31.3766 29.9496L34.2016 34.1746C35.2516 35.7496 35.0266 38.0496 33.6766 39.3996L27.5266 45.5496C26.7766 46.3496 25.7266 46.7746 24.6266 46.7746ZM21.3266 31.8746C21.2266 31.8996 21.0266 31.9996 20.9766 32.0746L18.1766 36.2996C18.1016 36.3996 18.1266 36.6996 18.2266 36.7996L24.3766 42.9496C24.5016 43.0746 24.8016 43.0746 24.9266 42.9496L31.0766 36.7996C31.1766 36.6996 31.2016 36.4246 31.1266 36.2996L28.3016 32.0746C28.2516 32.0246 28.0516 31.9246 27.9516 31.8996L21.3266 31.8746Z" fill="#14BDDC"/>
</svg>
