<svg width="110" height="110" viewBox="0 0 110 110" fill="none" xmlns="http://www.w3.org/2000/svg">
<path d="M61.4164 79.8415H49.9122C42.3956 79.8415 36.2997 73.5165 36.2997 65.7249C36.2997 63.8457 37.8581 62.2874 39.7372 62.2874C41.6164 62.2874 43.1747 63.8457 43.1747 65.7249C43.1747 69.7124 46.1997 72.9665 49.9122 72.9665H61.4164C64.3956 72.9665 66.8706 70.3082 66.8706 67.0999C66.8706 63.1124 65.4497 62.3332 63.1122 61.5082L44.6414 54.9999C41.0664 53.7624 36.2539 51.104 36.2539 42.8999C36.2539 35.8415 41.7997 30.1582 48.5831 30.1582H60.0872C67.6039 30.1582 73.6997 36.4832 73.6997 44.2749C73.6997 46.154 72.1414 47.7124 70.2622 47.7124C68.3831 47.7124 66.8247 46.154 66.8247 44.2749C66.8247 40.2874 63.7997 37.0332 60.0872 37.0332H48.5831C45.6039 37.0332 43.1289 39.6915 43.1289 42.8999C43.1289 46.8874 44.5497 47.6665 46.8872 48.4915L65.3581 54.9999C68.9331 56.2374 73.7456 58.8957 73.7456 67.0999C73.6997 74.1124 68.1997 79.8415 61.4164 79.8415Z" fill="#1FBAD6"/>
<path d="M55 85.9375C53.1208 85.9375 51.5625 84.3792 51.5625 82.5V27.5C51.5625 25.6208 53.1208 24.0625 55 24.0625C56.8792 24.0625 58.4375 25.6208 58.4375 27.5V82.5C58.4375 84.3792 56.8792 85.9375 55 85.9375Z" fill="#1FBAD6"/>
<path d="M55.0003 104.271C27.8212 104.271 5.72949 82.1795 5.72949 55.0003C5.72949 27.8212 27.8212 5.72949 55.0003 5.72949C82.1795 5.72949 104.271 27.8212 104.271 55.0003C104.271 82.1795 82.1795 104.271 55.0003 104.271ZM55.0003 12.6045C31.6253 12.6045 12.6045 31.6253 12.6045 55.0003C12.6045 78.3753 31.6253 97.3962 55.0003 97.3962C78.3753 97.3962 97.3962 78.3753 97.3962 55.0003C97.3962 31.6253 78.3753 12.6045 55.0003 12.6045Z" fill="#1FBAD6"/>
</svg>
