<svg width="59" height="55" viewBox="0 0 59 55" fill="none" xmlns="http://www.w3.org/2000/svg">
<path d="M36.0846 37.0833C28.268 37.0833 21.918 30.7333 21.918 22.9167C21.918 15.1 28.268 8.75 36.0846 8.75C43.9013 8.75 50.2513 15.1 50.2513 22.9167C50.2513 30.7333 43.9013 37.0833 36.0846 37.0833ZM36.0846 11.25C29.6513 11.25 24.418 16.4833 24.418 22.9167C24.418 29.35 29.6513 34.5833 36.0846 34.5833C42.518 34.5833 47.7513 29.35 47.7513 22.9167C47.7513 16.4833 42.518 11.25 36.0846 11.25Z" fill="#14BDDC"/>
<path d="M45.6677 14.5834C45.351 14.5834 45.0344 14.4667 44.7844 14.2167C44.301 13.7334 44.301 12.9334 44.7844 12.4501L53.951 3.2834C54.4344 2.80007 55.2344 2.80007 55.7177 3.2834C56.201 3.76673 56.201 4.56673 55.7177 5.05006L46.551 14.2167C46.301 14.4667 45.9844 14.5834 45.6677 14.5834Z" fill="#14BDDC"/>
<path d="M54.8333 16.2498C54.15 16.2498 53.5833 15.6832 53.5833 14.9998V5.4165H44C43.3167 5.4165 42.75 4.84984 42.75 4.1665C42.75 3.48317 43.3167 2.9165 44 2.9165H54.8333C55.5167 2.9165 56.0833 3.48317 56.0833 4.1665V14.9998C56.0833 15.6832 55.5167 16.2498 54.8333 16.2498Z" fill="#14BDDC"/>
<path d="M19.9987 42.9168C12.882 42.9168 7.08203 37.1168 7.08203 30.0002C7.08203 22.8835 12.882 17.0835 19.9987 17.0835C27.1154 17.0835 32.9154 22.8835 32.9154 30.0002C32.9154 37.1168 27.1154 42.9168 19.9987 42.9168ZM19.9987 19.5835C14.2487 19.5835 9.58203 24.2502 9.58203 30.0002C9.58203 35.7502 14.2487 40.4168 19.9987 40.4168C25.7487 40.4168 30.4154 35.7502 30.4154 30.0002C30.4154 24.2502 25.7487 19.5835 19.9987 19.5835Z" fill="#14BDDC"/>
<path d="M20 52.9165C19.3167 52.9165 18.75 52.3498 18.75 51.6665V41.6665C18.75 40.9832 19.3167 40.4165 20 40.4165C20.6833 40.4165 21.25 40.9832 21.25 41.6665V51.6665C21.25 52.3498 20.6833 52.9165 20 52.9165Z" fill="#14BDDC"/>
<path d="M25 47.9165H15C14.3167 47.9165 13.75 47.3498 13.75 46.6665C13.75 45.9832 14.3167 45.4165 15 45.4165H25C25.6833 45.4165 26.25 45.9832 26.25 46.6665C26.25 47.3498 25.6833 47.9165 25 47.9165Z" fill="#14BDDC"/>
</svg>
