<svg width="111" height="110" viewBox="0 0 111 110" fill="none" xmlns="http://www.w3.org/2000/svg">
<path d="M55.3626 104.271C28.2293 104.271 6.0918 82.1795 6.0918 55.0003C6.0918 27.8212 28.2293 5.72949 55.3626 5.72949C82.496 5.72949 104.633 27.8212 104.633 55.0003C104.633 82.1795 82.5418 104.271 55.3626 104.271ZM55.3626 12.6045C31.9876 12.6045 12.9668 31.6253 12.9668 55.0003C12.9668 78.3753 31.9876 97.3962 55.3626 97.3962C78.7376 97.3962 97.7585 78.3753 97.7585 55.0003C97.7585 31.6253 78.7376 12.6045 55.3626 12.6045Z" fill="#1FBAD6"/>
<path d="M55.4998 88.2295C45.6456 88.2295 36.3873 83.417 30.7498 75.3045C29.6498 73.7462 30.0623 71.592 31.6206 70.5379C33.1789 69.4379 35.3331 69.8504 36.3873 71.4087C40.7414 77.642 47.8914 81.4004 55.4998 81.4004C63.1081 81.4004 70.2581 77.6879 74.6123 71.4087C75.7123 69.8504 77.8206 69.4837 79.3789 70.5379C80.9373 71.6379 81.3039 73.7462 80.2498 75.3045C74.6123 83.417 65.3539 88.2295 55.4998 88.2295Z" fill="#1FBAD6"/>
</svg>
