<svg width="40" height="40" viewBox="0 0 40 40" fill="none" xmlns="http://www.w3.org/2000/svg">
<path d="M20.0013 37.9173C13.3346 37.9173 7.91797 33.134 7.91797 27.2506V21.084C7.91797 20.4007 8.48464 19.834 9.16797 19.834C9.8513 19.834 10.418 20.4007 10.418 21.084C10.418 25.4507 14.5346 28.7506 20.0013 28.7506C25.468 28.7506 29.5846 25.4507 29.5846 21.084C29.5846 20.4007 30.1513 19.834 30.8346 19.834C31.518 19.834 32.0846 20.4007 32.0846 21.084V27.2506C32.0846 33.134 26.668 37.9173 20.0013 37.9173ZM10.418 27.434C10.5346 31.8506 14.7846 35.4173 20.0013 35.4173C25.218 35.4173 29.468 31.8506 29.5846 27.434C27.418 29.784 23.9846 31.2506 20.0013 31.2506C16.018 31.2506 12.6013 29.784 10.418 27.434Z" fill="#14BDDC"/>
<path d="M20.0013 22.9173C15.4013 22.9173 11.2679 20.8506 9.25128 17.5173C8.38462 16.1006 7.91797 14.4507 7.91797 12.7507C7.91797 9.88399 9.20131 7.18398 11.518 5.15065C13.7846 3.16732 16.8013 2.08398 20.0013 2.08398C23.2013 2.08398 26.2013 3.16732 28.4846 5.13399C30.8013 7.18399 32.0846 9.88399 32.0846 12.7507C32.0846 14.4507 31.618 16.084 30.7513 17.5173C28.7347 20.8506 24.6013 22.9173 20.0013 22.9173ZM20.0013 4.58398C17.4013 4.58398 14.968 5.45065 13.1513 7.05065C11.3847 8.58398 10.418 10.6173 10.418 12.7507C10.418 14.0007 10.7513 15.1673 11.3846 16.2173C12.9679 18.8173 16.268 20.4173 20.0013 20.4173C23.7346 20.4173 27.0347 18.8006 28.618 16.2173C29.268 15.1673 29.5846 14.0007 29.5846 12.7507C29.5846 10.6173 28.618 8.58398 26.8346 7.01732C25.018 5.45065 22.6013 4.58398 20.0013 4.58398Z" fill="#14BDDC"/>
<path d="M20.0013 31.2507C13.118 31.2507 7.91797 26.884 7.91797 21.084V12.7507C7.91797 6.86732 13.3346 2.08398 20.0013 2.08398C23.2013 2.08398 26.2013 3.16732 28.4846 5.13399C30.8013 7.18399 32.0846 9.88399 32.0846 12.7507V21.084C32.0846 26.884 26.8846 31.2507 20.0013 31.2507ZM20.0013 4.58398C14.718 4.58398 10.418 8.25065 10.418 12.7507V21.084C10.418 25.4507 14.5346 28.7507 20.0013 28.7507C25.468 28.7507 29.5846 25.4507 29.5846 21.084V12.7507C29.5846 10.6173 28.618 8.58398 26.8346 7.01732C25.018 5.45065 22.6013 4.58398 20.0013 4.58398Z" fill="#14BDDC"/>
</svg>
