<svg width="40" height="40" viewBox="0 0 40 40" fill="none" xmlns="http://www.w3.org/2000/svg">
<path d="M15.3833 37.9171C15.3666 37.9171 15.3499 37.9171 15.3166 37.9171C12.5166 37.9004 10.5166 35.3838 9.09992 33.2005C5.48325 27.6505 4.74992 20.6671 7.36658 16.6171C9.11658 13.9004 11.9499 12.2171 14.7499 12.2171C16.1999 12.2171 17.3333 12.6171 18.3333 12.9838C19.1333 13.2671 19.8166 13.5171 20.5333 13.5171C21.1666 13.5171 21.7166 13.3004 22.4166 13.0338C23.3832 12.6671 24.5666 12.2171 26.2832 12.2171C28.7499 12.2171 31.2833 13.5338 33.0499 15.7671C33.2833 16.0504 33.3666 16.4338 33.2999 16.7838C33.2333 17.1504 32.9999 17.4504 32.6833 17.6337C30.7999 18.6671 29.7666 20.5504 29.9166 22.6837C30.0666 24.8504 31.3999 26.6838 33.3999 27.4338C33.7166 27.5504 33.9833 27.8004 34.1166 28.1171C34.2499 28.4338 34.2499 28.8004 34.0999 29.1004C33.3666 30.7338 32.9999 31.4837 32.0499 32.9504C30.4666 35.3837 28.4666 37.8838 25.7333 37.9171C24.5499 37.9171 23.7499 37.5671 23.0499 37.2338C22.3499 36.9171 21.6666 36.6671 20.5833 36.6338C19.4166 36.6338 18.7999 36.9171 18.0833 37.2338C17.3499 37.5671 16.5499 37.9171 15.3833 37.9171ZM14.7499 14.7171C12.7833 14.7171 10.7666 15.9671 9.46659 17.9671C7.69992 20.7004 7.71659 26.4838 11.1999 31.8338C12.2833 33.5004 13.7333 35.4004 15.3499 35.4171C15.9499 35.4004 16.3999 35.2338 17.0166 34.9671C17.8333 34.6005 18.8499 34.1505 20.5333 34.1338C22.1833 34.1005 23.2499 34.5838 24.0666 34.9671C24.6666 35.2505 25.0666 35.4338 25.6833 35.4171C27.2499 35.4004 28.7666 33.3671 29.9333 31.6004C30.5499 30.6504 30.8999 30.0504 31.2832 29.2004C29.0499 27.8837 27.5833 25.5671 27.3999 22.8671C27.2166 20.3171 28.2499 17.9338 30.1499 16.3504C28.9832 15.3171 27.5999 14.7338 26.2666 14.7338C25.0166 14.7338 24.1833 15.0505 23.2999 15.3838C22.4666 15.7005 21.5999 16.0338 20.5166 16.0338C19.3666 16.0338 18.4166 15.6838 17.4833 15.3671C16.5999 15.0171 15.7499 14.7171 14.7499 14.7171ZM19.6999 11.8838C19.6499 11.8838 19.5833 11.8838 19.5333 11.8838C18.9499 11.8671 18.4499 11.4338 18.3499 10.8504C17.9999 8.96712 18.6666 6.80042 20.1166 5.03375C21.4499 3.41708 23.6499 2.2171 25.5999 2.08377C26.2833 2.05043 26.8333 2.50046 26.9166 3.15046C27.1999 5.10046 26.5833 7.23377 25.1999 9.01711C23.8499 10.7671 21.6999 11.8838 19.6999 11.8838ZM24.4166 4.91712C23.5166 5.28379 22.6333 5.90044 22.0499 6.6171C21.4999 7.28377 20.9832 8.21712 20.8166 9.18378C21.7166 8.88378 22.6166 8.28375 23.2333 7.48375C23.5666 7.06708 24.1999 6.10045 24.4166 4.91712Z" fill="#14BDDC"/>
</svg>
