<svg width="40" height="40" viewBox="0 0 40 40" fill="none" xmlns="http://www.w3.org/2000/svg">
<path d="M28.3169 16.1836H11.6836C11.0003 16.1836 10.4336 15.6169 10.4336 14.9336C10.4336 14.2503 11.0003 13.6836 11.6836 13.6836H28.3169C29.0002 13.6836 29.5669 14.2503 29.5669 14.9336C29.5669 15.6169 29.0002 16.1836 28.3169 16.1836Z" fill="#14BDDC"/>
<path d="M20 16.1838C19.3167 16.1838 18.75 15.6171 18.75 14.9338V12.1338C18.75 11.4505 19.3167 10.8838 20 10.8838C20.6833 10.8838 21.25 11.4505 21.25 12.1338V14.9338C21.25 15.6171 20.6833 16.1838 20 16.1838Z" fill="#14BDDC"/>
<path d="M11.668 29.117C10.9846 29.117 10.418 28.5503 10.418 27.867C10.418 27.1837 10.9846 26.617 11.668 26.617C17.868 26.617 22.918 21.3671 22.918 14.9004C22.918 14.2171 23.4846 13.6504 24.168 13.6504C24.8513 13.6504 25.418 14.2171 25.418 14.9004C25.418 22.7504 19.2513 29.117 11.668 29.117Z" fill="#14BDDC"/>
<path d="M28.3328 29.1171C25.0494 29.1171 21.9994 27.4838 19.7661 24.5005C19.3494 23.9505 19.4661 23.1671 20.0161 22.7505C20.5661 22.3338 21.3494 22.4504 21.7661 23.0004C23.5328 25.3337 25.8661 26.6171 28.3494 26.6171C29.0328 26.6171 29.5994 27.1837 29.5994 27.8671C29.5994 28.5504 29.0161 29.1171 28.3328 29.1171Z" fill="#14BDDC"/>
<path d="M19.9987 37.9173C10.1154 37.9173 2.08203 29.884 2.08203 20.0007C2.08203 10.1173 10.1154 2.08398 19.9987 2.08398C29.882 2.08398 37.9154 10.1173 37.9154 20.0007C37.9154 29.884 29.882 37.9173 19.9987 37.9173ZM19.9987 4.58398C11.4987 4.58398 4.58203 11.5007 4.58203 20.0007C4.58203 28.5007 11.4987 35.4173 19.9987 35.4173C28.4987 35.4173 35.4154 28.5007 35.4154 20.0007C35.4154 11.5007 28.4987 4.58398 19.9987 4.58398Z" fill="#14BDDC"/>
</svg>
