<svg width="225" height="84" viewBox="0 0 225 84" fill="none" xmlns="http://www.w3.org/2000/svg">
<path d="M87.3402 44.5285C91.7912 44.5285 95.0348 41.7821 95.745 38.136H91.6491C91.0336 39.7223 89.471 40.9298 87.3402 40.9298C84.4754 40.9298 82.5103 38.8226 82.5103 35.9342C82.5103 33.0931 84.4754 30.9386 87.3402 30.9386C89.471 30.9386 91.0572 32.1698 91.5071 33.8034H95.5793C94.869 30.1573 91.8385 27.3399 87.3402 27.3399C82.1788 27.3399 78.6275 31.057 78.6275 35.9342C78.6275 40.8351 82.1552 44.5285 87.3402 44.5285ZM104.239 44.5285C108.264 44.5285 110.986 41.6637 110.986 37.9703C110.986 34.2769 108.264 31.4122 104.263 31.4122C100.214 31.4122 97.515 34.2769 97.515 37.9703C97.515 41.6637 100.238 44.5285 104.239 44.5285ZM104.239 41.2139C102.511 41.2139 101.232 39.8881 101.232 37.9703C101.232 36.0763 102.511 34.7267 104.239 34.7267C105.991 34.7267 107.269 36.0763 107.269 37.9703C107.269 39.8644 105.991 41.2139 104.239 41.2139ZM113.392 44.2207H117.062V37.189C117.062 35.8395 117.867 34.8215 119.075 34.8215C120.329 34.8215 121.016 35.7211 121.016 36.9996V44.2207H124.686V37.2127C124.686 35.8158 125.491 34.8215 126.698 34.8215C127.977 34.8215 128.592 35.7211 128.592 37.0943V44.2207H132.262V35.8158C132.262 33.2115 130.439 31.4122 127.716 31.4122C126.154 31.4122 124.97 31.9567 124.094 33.1168H123.928C123.171 32.0514 121.939 31.4122 120.306 31.4122C118.648 31.4122 117.559 32.2408 117.039 33.0694H116.849V31.7199H113.392V44.2207ZM134.987 49.6661H138.657V42.8002H138.846C139.249 43.4868 140.338 44.5285 142.374 44.5285C145.736 44.5285 148.033 41.8295 148.033 37.8993C148.033 33.9691 145.689 31.4122 142.279 31.4122C140.196 31.4122 139.154 32.5486 138.799 33.1168H138.61V31.7199H134.987V49.6661ZM141.451 41.2139C139.77 41.2139 138.586 39.9591 138.586 37.9703C138.586 36.0999 139.699 34.7267 141.451 34.7267C143.155 34.7267 144.316 36.0052 144.316 37.9703C144.316 39.8881 143.155 41.2139 141.451 41.2139ZM154.154 44.2207H155.408V41.0008H154.959C154.296 41.0008 153.917 40.622 153.917 39.8644V26.4639H150.247V40.2905C150.247 42.7291 151.644 44.2207 154.154 44.2207ZM163.234 44.5285C166.62 44.5285 168.893 42.8475 169.461 40.2195H166.146C165.791 41.0008 164.821 41.7111 163.376 41.7111C161.648 41.7111 160.488 40.5746 160.37 38.9884H169.579V37.923C169.579 34.4426 167.425 31.4122 163.305 31.4122C159.494 31.4122 156.889 34.1349 156.889 38.0413C156.889 41.8058 159.612 44.5285 163.234 44.5285ZM160.441 36.5498C160.606 35.3186 161.743 34.2059 163.305 34.2059C164.939 34.2059 166.028 35.2239 166.17 36.5498H160.441ZM177.686 44.2207H180.219V41.1902H178.609C177.52 41.1902 176.999 40.622 176.999 39.6986V34.5847H180.267V31.7199H176.999V28.3343H173.519V30.6309C173.519 31.2938 173.164 31.7436 172.501 31.7436H171.317V34.5847H173.33V39.8881C173.33 42.6344 174.963 44.2207 177.686 44.2207ZM188.158 44.5285C191.544 44.5285 193.817 42.8475 194.385 40.2195H191.071C190.715 41.0008 189.745 41.7111 188.301 41.7111C186.572 41.7111 185.412 40.5746 185.294 38.9884H194.504V37.923C194.504 34.4426 192.349 31.4122 188.23 31.4122C184.418 31.4122 181.813 34.1349 181.813 38.0413C181.813 41.8058 184.536 44.5285 188.158 44.5285ZM185.365 36.5498C185.53 35.3186 186.667 34.2059 188.23 34.2059C189.863 34.2059 190.952 35.2239 191.094 36.5498H185.365ZM200.626 44.2207H201.881V41.0008H201.431C200.768 41.0008 200.39 40.622 200.39 39.8644V26.4639H196.72V40.2905C196.72 42.7291 198.117 44.2207 200.626 44.2207ZM203.869 49.6661H205.526C208.154 49.6661 209.575 48.3166 210.427 46.0201L215.731 31.7199H211.848L209.244 39.6513H209.054L206.308 31.7199H202.472L207.421 44.4575L207.207 45.0494C206.876 45.878 206.308 46.4225 205.313 46.4225H203.869V49.6661Z" fill="white"/>
<g filter="url(#filter0_d_4527_28682)">
<path d="M59.853 43.2879C59.2447 42.6432 58.6161 42.0091 57.9864 41.3824L57.6662 41.0723L56.8999 40.3207C56.2371 39.6676 55.6629 39.6728 54.9788 40.3355C54.2947 40.9982 53.6469 41.6376 53.0215 42.2685C52.2242 43.0709 52.2285 43.5388 53.0375 44.3528L53.791 45.1097L53.9361 45.2462L53.9308 45.2536C54.5711 45.8951 55.2115 46.5451 55.839 47.194C57.1817 48.5786 57.076 51.0271 55.6138 52.4329C55.0631 52.9684 54.4827 53.4731 53.8753 53.9445C48.6457 57.9501 42.7459 59.3189 36.3444 58.0147C32.1085 57.1509 28.4179 55.0782 25.3741 51.8549C22.2064 48.5003 20.3515 44.4957 19.8584 39.9544C19.3536 35.2967 20.3056 30.9333 22.6878 26.9763C24.3627 24.1647 26.6839 21.7856 29.4621 20.033C32.2403 18.2803 35.3968 17.2039 38.6743 16.8913C41.2773 16.6163 43.9095 16.845 46.4247 17.5646C47.8495 17.9862 49.2349 18.5287 50.5657 19.1863C52.5301 20.1577 54.3017 21.4727 55.7953 23.0681C57.0877 24.4305 56.9917 26.6217 56.0973 27.7364C55.7706 28.1474 55.4214 28.5404 55.0514 28.9135C51.8923 32.0691 49.0972 34.85 46.5069 37.4139C46.2636 37.6552 46.0202 37.8997 45.778 38.1432C44.9455 38.9784 44.0853 39.8369 43.1813 40.6033C41.6669 41.881 40.0863 41.5476 39.019 41.0448C37.6049 40.3736 36.8695 39.1669 36.893 37.5515C36.9165 35.9361 37.6988 34.7823 39.1588 34.1704C39.9415 33.8422 40.6885 33.7364 41.4001 33.8528C41.4001 33.8528 42.8825 33.9322 43.5346 35.1231C43.8195 35.4269 44.128 35.5847 44.4514 35.5889C44.7747 35.5931 45.065 35.4566 45.3383 35.1813C45.9455 34.5684 46.556 33.9576 47.1996 33.3161L48 32.5159C48.0563 32.4604 48.1009 32.3944 48.1314 32.3217C48.1619 32.2491 48.1776 32.1711 48.1776 32.0924C48.1776 32.0137 48.1619 31.9358 48.1314 31.8631C48.1009 31.7905 48.0563 31.7245 48 31.669L47.92 31.5875C47.8655 31.5388 47.8079 31.4816 47.746 31.4128C47.6777 31.343 47.6094 31.2752 47.5443 31.2075L47.2807 30.9418C45.5453 29.3274 43.1055 28.4965 42.9284 28.4372C41.2208 28.0349 39.4182 28.1418 37.5558 28.7717C35.2735 29.5575 33.3904 31.1955 32.307 33.3373C31.2397 35.3962 30.9612 37.7727 31.5364 39.8581C32.4863 43.3027 34.6016 45.5649 37.8237 46.5811C41.4609 47.7275 44.8473 46.8987 47.6158 44.1792C49.6041 42.2272 51.6116 40.2297 53.553 38.2988C55.4025 36.458 57.3161 34.5557 59.2095 32.6958C61.44 30.5035 62.4817 28.0815 62.3952 25.2932C62.3216 22.9061 61.4785 20.8642 59.8893 19.2213C56.4581 15.6729 52.1954 13.2488 47.2198 12.0156C43.7873 11.1591 40.2169 10.991 36.718 11.5212C33.1226 12.0557 29.6766 13.3187 26.5946 15.2315C23.5127 17.1443 20.8608 19.6659 18.804 22.6394C16.1188 26.5011 14.5552 30.9312 14.1593 35.808C13.9149 38.8133 14.251 41.9086 15.1604 45.0091C16.311 48.991 18.4027 52.6433 21.2619 55.6626C23.726 58.2883 26.703 60.3895 30.0116 61.8383C33.3202 63.287 36.8913 64.0531 40.5078 64.0899C40.6498 64.0899 40.7928 64.0899 40.9347 64.0899C43.6136 64.0899 46.3393 63.6251 49.253 62.6745C53.2774 61.3602 56.9195 59.0955 59.8658 56.0754C61.2661 54.6538 62.0996 52.8711 62.3429 50.7826C62.6738 47.9541 61.8125 45.3606 59.853 43.2879Z" fill="white"/>
</g>
<defs>
<filter id="filter0_d_4527_28682" x="0.134439" y="2.78532" width="76.2253" height="80.7663" filterUnits="userSpaceOnUse" color-interpolation-filters="sRGB">
<feFlood flood-opacity="0" result="BackgroundImageFix"/>
<feColorMatrix in="SourceAlpha" type="matrix" values="0 0 0 0 0 0 0 0 0 0 0 0 0 0 0 0 0 0 127 0" result="hardAlpha"/>
<feOffset dy="5.51416"/>
<feGaussianBlur stdDeviation="6.9738"/>
<feComposite in2="hardAlpha" operator="out"/>
<feColorMatrix type="matrix" values="0 0 0 0 0 0 0 0 0 0 0 0 0 0 0 0 0 0 0.1 0"/>
<feBlend mode="normal" in2="BackgroundImageFix" result="effect1_dropShadow_4527_28682"/>
<feBlend mode="normal" in="SourceGraphic" in2="effect1_dropShadow_4527_28682" result="shape"/>
</filter>
</defs>
</svg>
