<svg width="32" height="32" viewBox="0 0 32 32" fill="none" xmlns="http://www.w3.org/2000/svg">
<path d="M16.0003 28.3327H9.33366C4.46699 28.3327 1.66699 25.5327 1.66699 20.666V11.3327C1.66699 6.46602 4.46699 3.66602 9.33366 3.66602H22.667C27.5337 3.66602 30.3337 6.46602 30.3337 11.3327V15.3327C30.3337 15.8793 29.8803 16.3327 29.3337 16.3327C28.787 16.3327 28.3337 15.8793 28.3337 15.3327V11.3327C28.3337 7.51935 26.4803 5.66602 22.667 5.66602H9.33366C5.52033 5.66602 3.66699 7.51935 3.66699 11.3327V20.666C3.66699 24.4793 5.52033 26.3327 9.33366 26.3327H16.0003C16.547 26.3327 17.0003 26.786 17.0003 27.3327C17.0003 27.8793 16.547 28.3327 16.0003 28.3327Z" fill="#1FBAD6"/>
<path d="M15.9994 17.16C14.8794 17.16 13.746 16.8133 12.8794 16.1066L8.70604 12.7733C8.27938 12.4266 8.19938 11.8 8.54605 11.3733C8.89272 10.9466 9.51937 10.88 9.94603 11.2133L14.1194 14.5466C15.1327 15.36 16.8527 15.36 17.866 14.5466L22.0394 11.2133C22.466 10.8666 23.0927 10.9333 23.4394 11.3733C23.786 11.8 23.7194 12.4399 23.2794 12.7733L19.106 16.1066C18.2527 16.8133 17.1194 17.16 15.9994 17.16Z" fill="#1FBAD6"/>
<path d="M21.0931 29.0401C20.5864 29.0401 20.1064 28.8535 19.7598 28.5068C19.3464 28.0935 19.1597 27.4935 19.2531 26.8668L19.5064 25.0668C19.5731 24.6001 19.8531 24.0401 20.1864 23.7068L24.9064 18.9868C25.5464 18.3468 26.1731 18.0135 26.8531 17.9468C27.6798 17.8668 28.5064 18.2135 29.2797 18.9868C30.0531 19.7601 30.3997 20.5735 30.3197 21.4135C30.2531 22.0801 29.9064 22.7201 29.2797 23.3601L24.5598 28.0801C24.2264 28.4135 23.6664 28.6935 23.1997 28.7601L21.3997 29.0135C21.2931 29.0268 21.1998 29.0401 21.0931 29.0401ZM27.0797 19.9335C27.0664 19.9335 27.0531 19.9335 27.0397 19.9335C26.8531 19.9468 26.5997 20.1201 26.3197 20.4001L21.5998 25.1201C21.5598 25.1601 21.4931 25.2935 21.4931 25.3468L21.2531 27.0135L22.9197 26.7735C22.9731 26.7601 23.1064 26.6935 23.1464 26.6535L27.8664 21.9335C28.1464 21.6402 28.3197 21.4001 28.3331 21.2135C28.3597 20.9468 28.0931 20.6268 27.8664 20.4001C27.6531 20.1868 27.3464 19.9335 27.0797 19.9335Z" fill="#1FBAD6"/>
<path d="M27.8931 24.3332C27.7998 24.3332 27.7065 24.3199 27.6265 24.2932C25.8665 23.7999 24.4665 22.3999 23.9731 20.6399C23.8265 20.1066 24.1331 19.5599 24.6665 19.3999C25.1998 19.2532 25.7465 19.5599 25.8931 20.0932C26.1998 21.1866 27.0664 22.0532 28.1598 22.3599C28.6931 22.5066 28.9998 23.0666 28.8531 23.5999C28.7331 24.0399 28.3331 24.3332 27.8931 24.3332Z" fill="#1FBAD6"/>
</svg>
