<svg width="318" height="429" viewBox="0 0 318 429" fill="none" xmlns="http://www.w3.org/2000/svg">
<path fill-rule="evenodd" clip-rule="evenodd" d="M249.339 261.354C248.459 258.94 249.743 256.533 250.456 254.197C252.987 246.098 246.064 225.671 241.223 225.372C239.452 220.793 234.727 218.893 231.008 216.256C226.787 213.623 222.682 210.598 218.292 208.289C218.048 206.108 215.402 205.567 213.784 207.128C209.341 204.364 204.012 204.878 199.248 203.067C195.628 197.218 195.357 191.068 194.398 185.425C193.981 182.966 194.424 180.593 192.743 178.4C187.096 170.459 164.781 167.016 156.553 171.722C152.125 168.96 152.018 173.961 151.315 177.048C150.533 178.592 150.11 180.341 150.24 182.183C148.144 186.561 146.366 192.037 141.96 195.307C136.369 199.455 127.767 201.033 122.316 203.067C121.093 201.891 120.719 200.19 120.719 200.19C112.271 202.026 104.072 205.254 96.9933 210.293C88.9515 212.644 83.288 219.183 79.1926 226.194C78.7414 226.933 78.635 227.686 78.7668 228.378C66.1731 246.833 60.1624 268.927 59.3182 291.241C51.2195 296.1 63.1675 339.749 65.9489 348.811C65.9517 348.81 65.9545 348.809 65.9573 348.807C67.7617 352.001 69.8105 361.114 74.3263 360.409C77.424 363.91 82.3606 363.222 86.5643 363.491C85.8796 366.116 86.216 369.12 87.0309 371.715C87.9947 374.803 92.7244 374.908 93.3951 371.541C135.257 379.671 178.209 373.184 220.541 374.404C232.781 374.491 245.02 374.87 257.23 375.742C258.949 375.864 260.692 374.108 260.575 372.397C257.95 344.476 255.485 307.746 252.549 280.099C251.853 273.794 251.302 267.42 249.339 261.354Z" fill="#EDB68F"/>
<path fill-rule="evenodd" clip-rule="evenodd" d="M120.763 200.375C120.748 200.314 120.733 200.252 120.719 200.189C112.271 202.026 104.072 205.253 96.9933 210.292C88.9515 212.644 83.288 219.182 79.1926 226.193L79.138 226.286C78.7329 226.995 78.6405 227.715 78.7668 228.378C66.1731 246.833 60.1624 268.926 59.3182 291.24C51.2195 296.099 63.1675 339.748 65.9489 348.81L65.9573 348.807C66.4069 349.603 66.8717 350.766 67.3861 352.053C68.9359 355.932 70.9358 360.937 74.3263 360.408C76.8447 363.255 80.5785 363.332 84.1458 363.406C84.9664 363.423 85.7782 363.44 86.5643 363.49C85.8796 366.116 86.216 370.799 87.0309 373.393C87.9947 376.482 221.706 378.997 257.23 375.741C258.945 375.584 260.692 374.107 260.575 372.396C259.473 360.67 258.398 347.391 257.306 333.883C255.796 315.227 254.252 296.135 252.549 280.098C252.483 279.495 252.417 278.891 252.352 278.287C251.735 272.576 251.114 266.839 249.339 261.354C248.636 259.426 249.314 257.502 249.978 255.616C250.146 255.14 250.312 254.667 250.456 254.197C252.987 246.098 246.539 225.719 241.915 225.416L241.223 225.371C239.863 221.854 236.759 219.918 233.708 218.013C232.878 217.496 232.052 216.98 231.266 216.436L231.008 216.255C229.569 215.358 228.144 214.415 226.716 213.47C223.955 211.643 221.186 209.81 218.292 208.289C218.048 206.107 215.402 205.567 213.784 207.127C213.077 206.687 212.348 206.331 211.602 206.034L211.307 210.096C206.262 228.893 192.225 239.352 169.196 241.472C134.652 244.653 119.082 210.044 119.082 206.547C119.082 205.013 119.589 203.076 120.603 200.738L120.763 200.375ZM196.867 263.263C202.017 262.006 208.129 260.68 213.172 259.844C215.696 259.425 217.934 259.132 219.642 259.03C220.499 258.978 221.2 258.976 221.729 259.024C221.992 259.047 222.197 259.082 222.347 259.123C222.421 259.143 222.475 259.163 222.513 259.18C222.551 259.197 222.565 259.208 222.564 259.207C223.365 259.828 224.033 260.722 224.51 261.494C224.746 261.875 224.927 262.214 225.05 262.457C225.063 262.483 225.075 262.508 225.087 262.532C225.096 262.55 225.105 262.568 225.113 262.585C225.087 262.661 225.054 262.752 225.015 262.853C224.887 263.18 224.695 263.61 224.435 264.033C223.889 264.924 223.189 265.566 222.337 265.566C221.63 265.566 219.899 265.809 217.795 266.149C215.655 266.494 213.043 266.953 210.515 267.412C207.985 267.871 205.535 268.33 203.717 268.675C202.808 268.847 202.058 268.99 201.534 269.09C201.272 269.141 201.067 269.18 200.927 269.207L200.768 269.238L200.727 269.246L200.717 269.248L200.714 269.248L200.713 269.248C200.713 269.248 200.713 269.248 200.856 269.985L200.713 269.248L200.619 269.267L200.532 269.308L194.931 271.99L195.318 273.413L195.255 272.666C195.318 273.413 195.318 273.413 195.319 273.413L195.319 273.413L195.321 273.413L195.329 273.412L195.36 273.41L195.483 273.4C195.591 273.391 195.751 273.377 195.956 273.36C196.368 273.327 196.963 273.278 197.697 273.22C199.167 273.105 201.194 272.95 203.428 272.796C207.902 272.487 213.173 272.179 216.437 272.179L217.149 272.179H217.149C220.416 272.178 224.917 272.176 228.704 272.388C230.745 272.502 232.542 272.676 233.817 272.937C234.461 273.069 234.92 273.213 235.201 273.355C235.256 273.383 235.297 273.407 235.328 273.427C235.303 273.47 235.262 273.53 235.194 273.607C235.026 273.796 234.755 274.018 234.373 274.262C233.612 274.749 232.537 275.247 231.332 275.711C228.921 276.638 226.145 277.366 224.679 277.567C223.11 277.783 218.721 278.662 214.762 279.479C212.774 279.889 210.882 280.286 209.488 280.58C208.79 280.727 208.217 280.849 207.818 280.933L207.357 281.032L207.236 281.057L207.205 281.064L207.197 281.066L207.195 281.066L207.195 281.066C207.195 281.066 207.195 281.066 207.23 281.233L207.195 281.066L207.325 282.549L231.01 283.378C231.066 283.436 231.131 283.506 231.2 283.585C231.423 283.838 231.664 284.155 231.815 284.464C231.977 284.796 231.963 284.967 231.938 285.031C231.926 285.06 231.83 285.27 231.165 285.418C229.621 285.764 226.449 286.454 223.661 287.059C222.268 287.361 220.971 287.641 220.022 287.846L218.892 288.091L218.582 288.157L218.501 288.175L218.48 288.179L218.475 288.181L218.474 288.181L218.474 288.181C218.473 288.181 218.473 288.181 218.632 288.914L218.473 288.181L218.041 288.274L217.914 288.697L217.914 288.697L217.913 288.698L217.913 288.698L217.913 288.699L217.911 288.707L217.898 288.748C217.886 288.785 217.867 288.841 217.841 288.915C217.79 289.062 217.71 289.278 217.601 289.543C217.382 290.073 217.047 290.794 216.583 291.553C215.643 293.092 214.238 294.687 212.294 295.302C210.692 295.809 208.916 296.151 207.191 296.483L207.191 296.483L207.19 296.483C206.602 296.596 206.02 296.708 205.452 296.826C204.357 297.052 203.315 297.298 202.441 297.611C201.587 297.918 200.787 298.324 200.28 298.934C199.877 299.417 199.418 300.112 198.936 300.841L198.915 300.873C198.414 301.632 197.869 302.456 197.275 303.241C196.68 304.027 196.054 304.749 195.402 305.305C194.747 305.863 194.105 306.219 193.48 306.337C191.845 306.646 186.928 307.929 182.461 309.122C180.218 309.721 178.076 310.301 176.494 310.731C175.704 310.946 175.053 311.124 174.6 311.247L174.402 311.302C174.258 311.091 174.068 310.806 173.843 310.457C173.321 309.647 172.617 308.495 171.892 307.134C170.432 304.394 168.924 300.874 168.584 297.596C168.232 294.194 168.056 290.948 167.967 288.551C167.923 287.353 167.901 286.368 167.89 285.684C167.886 285.417 167.883 285.196 167.882 285.026L170.601 283.268L170.683 283.215L170.749 283.143L182.855 269.86L182.857 269.858L182.86 269.855L182.885 269.83C182.911 269.804 182.954 269.762 183.014 269.706C183.133 269.595 183.319 269.428 183.577 269.218C184.092 268.798 184.893 268.203 186.014 267.528C188.255 266.179 191.78 264.505 196.867 263.263ZM226.64 262.737C226.64 262.736 226.64 262.736 225.917 262.535L226.64 262.736L226.711 262.481L226.606 262.238L225.917 262.535C226.606 262.238 226.606 262.238 226.606 262.237L226.606 262.237L226.605 262.236L226.604 262.234L226.601 262.226L226.59 262.2C226.58 262.178 226.566 262.147 226.548 262.108C226.511 262.03 226.458 261.919 226.389 261.782C226.251 261.508 226.049 261.13 225.786 260.706C225.268 259.868 224.489 258.801 223.483 258.021C223.07 257.701 222.453 257.583 221.864 257.53C221.229 257.472 220.443 257.479 219.552 257.532C217.767 257.64 215.47 257.942 212.926 258.364C207.834 259.209 201.683 260.544 196.511 261.806C191.275 263.084 187.609 264.816 185.24 266.243C184.056 266.956 183.197 267.592 182.629 268.056C182.345 268.288 182.134 268.476 181.991 268.609C181.919 268.676 181.865 268.729 181.827 268.767C181.819 268.775 181.812 268.782 181.805 268.788C181.796 268.797 181.789 268.805 181.783 268.811L181.77 268.825L181.765 268.829L181.764 268.831L181.763 268.831C181.763 268.832 181.763 268.832 181.823 268.889C181.888 268.95 182.021 269.076 182.297 269.337L181.763 268.832L181.753 268.842L169.706 282.061L166.722 283.989L166.379 284.211V284.619H167.129C166.379 284.619 166.379 284.619 166.379 284.619V284.62V284.621V284.624L166.379 284.639L166.379 284.693C166.379 284.741 166.38 284.812 166.381 284.905C166.382 285.09 166.385 285.361 166.39 285.708C166.401 286.401 166.424 287.396 166.468 288.606C166.557 291.024 166.736 294.305 167.092 297.75C167.462 301.32 169.08 305.045 170.568 307.839C171.317 309.245 172.043 310.433 172.582 311.27C172.852 311.688 173.075 312.02 173.232 312.248C173.311 312.362 173.372 312.45 173.415 312.51C173.436 312.54 173.453 312.563 173.464 312.579L173.477 312.598L173.481 312.603L173.482 312.604L173.482 312.605C173.482 312.605 173.482 312.605 174.09 312.165L173.482 312.605L173.787 313.026L174.288 312.888L174.09 312.165C174.288 312.888 174.288 312.888 174.288 312.888L174.289 312.888L174.291 312.887L174.3 312.885L174.335 312.875L174.472 312.838L174.995 312.694C175.448 312.571 176.098 312.393 176.888 312.178C178.468 311.748 180.608 311.169 182.848 310.571C187.347 309.37 192.194 308.107 193.758 307.811C194.733 307.627 195.607 307.1 196.374 306.447C197.144 305.791 197.845 304.974 198.471 304.146C199.096 303.321 199.664 302.46 200.16 301.71L200.166 301.7C200.675 300.93 201.089 300.305 201.432 299.894C201.676 299.601 202.161 299.305 202.948 299.023C203.716 298.747 204.672 298.518 205.756 298.295C206.279 298.187 206.831 298.08 207.401 297.971L207.403 297.97L207.404 297.97C209.149 297.634 211.053 297.268 212.746 296.732C215.195 295.957 216.846 294.001 217.863 292.335C218.378 291.493 218.747 290.698 218.988 290.114C219.077 289.898 219.149 289.71 219.204 289.558L219.209 289.557L220.339 289.313C221.288 289.107 222.585 288.827 223.979 288.524C226.766 287.92 229.943 287.229 231.492 286.882C232.374 286.685 233.052 286.282 233.33 285.589C233.594 284.93 233.387 284.266 233.163 283.806C232.927 283.324 232.588 282.892 232.327 282.595C232.194 282.443 232.073 282.318 231.986 282.23C231.942 282.186 231.905 282.151 231.88 282.127L231.848 282.097L231.839 282.089L231.836 282.086L231.835 282.085L231.834 282.084C231.834 282.084 231.834 282.084 231.765 282.16L231.834 282.084L231.63 281.898L231.355 281.889L213.532 281.265C214.032 281.161 214.545 281.055 215.065 280.948C219.051 280.126 223.377 279.26 224.883 279.053C226.492 278.832 229.383 278.067 231.871 277.111C233.115 276.632 234.297 276.091 235.181 275.525C235.622 275.244 236.02 274.936 236.315 274.603C236.604 274.278 236.866 273.849 236.866 273.338C236.866 272.627 236.286 272.223 235.879 272.017C235.418 271.783 234.803 271.608 234.117 271.467C232.731 271.184 230.844 271.005 228.788 270.89C224.956 270.676 220.414 270.678 217.154 270.679L216.437 270.679C213.114 270.679 207.794 270.99 203.324 271.299C201.83 271.403 200.428 271.506 199.223 271.598L201.093 270.703L201.211 270.68C201.35 270.653 201.555 270.614 201.816 270.564C202.339 270.463 203.089 270.32 203.996 270.148C205.812 269.805 208.258 269.346 210.782 268.888C213.308 268.43 215.908 267.972 218.034 267.629C220.193 267.281 221.78 267.066 222.337 267.066C224.011 267.066 225.102 265.816 225.714 264.817C226.034 264.296 226.263 263.78 226.412 263.398C226.487 263.206 226.543 263.045 226.58 262.93C226.599 262.872 226.613 262.826 226.623 262.793L226.635 262.754L226.638 262.742L226.639 262.739L226.64 262.737L226.64 262.737ZM235.406 273.488C235.408 273.49 235.409 273.491 235.409 273.491C235.409 273.491 235.407 273.488 235.401 273.482C235.403 273.485 235.405 273.487 235.406 273.488Z" fill="black"/>
<path fill-rule="evenodd" clip-rule="evenodd" d="M207.511 259.08L219.815 231.218C219.815 231.218 221.674 226.484 224.831 226.484C227.988 226.484 256.614 227.381 256.614 227.381C256.614 227.381 262.472 228.128 260.58 231.218C258.689 234.309 230.561 291.821 230.561 291.821H218.631V288.915L231.912 285.203C231.912 285.203 234.33 282.639 230.561 282.639C226.792 282.639 204.865 281.8 204.865 281.8L225.773 278.733L236.115 274.757L234.594 272.667L225.773 271.407L197.046 272.667L204.865 270.024L222.336 266.316C222.336 266.316 225.773 263.897 225.773 261.525C225.773 259.152 216.567 258.24 216.567 258.24L207.511 259.08Z" fill="white"/>
<path fill-rule="evenodd" clip-rule="evenodd" d="M152.004 173.445C152.125 173.117 152.614 173.161 152.623 173.528C152.816 181.379 150.861 190.972 144.577 196.275C141.351 198.997 137.087 200.243 133.17 201.674L132.729 201.837L125.809 204.414C123.974 205.097 121.994 206.149 120.373 205.183C121.685 208.435 122.786 211.776 124.384 214.91C126.372 218.811 128.777 222.381 131.719 225.627C143.377 238.489 161.827 242.412 178.384 238.643C186.91 236.703 195.207 233.025 201.023 226.317C205.444 221.218 207.984 214.375 208.582 207.625C208.407 207.653 208.224 207.652 208.035 207.61C205.941 207.154 203.826 206.031 201.982 204.93L201.805 204.824C200.031 203.756 198.182 202.533 196.91 200.875C195.646 199.228 194.319 193.856 194.319 193.856C193.957 191.837 193.618 187.815 193.676 185.774C193.682 185.581 194.536 185.468 194.628 185.668C195.417 187.4 195.673 191.207 196.282 193.01L196.405 193.37C197.056 195.253 197.614 197.546 198.964 199.069C201.497 201.927 205.32 203.137 208.732 204.571C208.977 201.34 214.139 201.415 214.074 204.785C214.07 204.968 214.062 205.15 214.055 205.332C214.462 205.555 214.854 205.811 215.22 206.058L215.577 206.3C216.929 207.22 218.29 208.093 219.73 208.873C222.516 210.382 225.465 211.579 228.32 212.95C231.208 214.336 233.909 215.988 236.431 217.965C237.615 218.894 238.751 219.882 239.828 220.933L240.121 221.221C241.146 222.242 242.48 223.384 243.064 224.725C243.193 225.021 243.838 225.709 244.188 225.732C249.612 226.087 255.025 226.589 260.414 227.342C261.81 227.537 262.362 228.256 261.846 229.418C260.073 233.414 253.134 249.371 251.289 253.653C251.504 256.799 251.213 260.503 251.407 263.65C251.692 268.242 252.064 272.833 252.51 277.412C254.105 293.793 256.524 310.095 258.71 326.404C259.804 334.567 260.801 342.741 261.786 350.917C262.283 355.049 262.705 359.185 263.029 363.335C263.165 365.064 263.287 366.794 263.395 368.525L263.489 370.06C263.618 371.993 263.913 373.838 262.717 375.496C262.175 376.248 260.937 376.672 260.224 375.817C259.327 374.743 258.994 373.94 258.908 372.529C258.843 371.449 258.827 370.364 258.778 369.282C258.672 366.938 258.538 364.596 258.381 362.254C258.068 357.574 257.711 352.894 257.298 348.221C255.849 331.835 253.095 315.573 251.262 299.228C250.338 290.987 249.682 282.732 249.335 274.446C249.161 270.308 249.098 266.17 249.139 262.029C249.154 260.482 249.227 258.942 249.333 257.406C246.588 263.641 243.702 269.816 240.684 275.909L239.969 277.352C238.056 281.203 236.093 285.069 233.794 288.7L233.399 289.319C232.468 290.793 231.196 293.119 229.498 293.584C228.315 293.908 226.87 293.68 225.657 293.657C224.454 293.634 223.249 293.629 222.046 293.58C220.698 293.526 219.41 293.349 218.107 292.997C217.89 292.939 217.685 292.876 217.498 292.795C216.185 294.944 213.953 296.58 211.672 297.534C209.844 298.297 207.929 298.821 206.01 299.305L205.333 299.475C203.276 299.988 200.923 300.231 199.763 302.217L199.493 302.677C198.631 304.142 197.803 305.428 196.376 306.479C194.839 307.609 193.019 308.32 191.206 308.874C189.349 309.44 187.449 309.874 185.563 310.339L185.05 310.466C183.805 310.778 182.549 311.064 181.312 311.402C180.784 311.547 180.247 311.696 179.729 311.874C179.123 312.082 178.682 312.407 178.204 312.761C177.774 314.262 175.936 315.078 174.425 314.973C173.632 314.918 172.92 314.649 172.272 314.255C171.141 315.217 169.896 316.079 168.744 316.97C167.13 318.218 165.51 319.457 163.881 320.685C160.522 323.217 157.137 325.714 153.717 328.163C147.647 332.508 141.445 336.655 135.138 340.649C132.508 342.314 129.86 343.976 127.186 345.599L127.472 345.704L128.038 345.918C129.376 346.418 130.866 347.224 131.125 348.784C131.331 350.022 130.639 350.875 129.417 351.026C127.965 351.205 126.834 350.179 125.93 349.2C125.531 348.768 125.084 348.367 124.702 347.922C124.546 347.741 124.426 347.531 124.32 347.312C121.682 348.866 119.015 350.368 116.306 351.773L115.628 352.122C108.911 355.556 102.372 359.318 95.5978 362.654C93.8306 363.525 91.676 364.466 89.4301 365.109C90.0261 367.418 90.0169 369.953 90.032 372.297C90.0462 374.581 86.4153 374.57 86.492 372.297L86.5289 371.199C86.595 369.353 86.703 367.437 87.1411 365.641C80.524 366.738 73.9136 364.354 72.6828 363.638C71.3243 362.848 70.0912 361.584 69.065 360.412C66.8689 357.903 65.345 354.895 63.9929 351.869C61.0968 345.389 59.0449 338.462 57.5447 331.535C52.0142 305.995 54.393 278.659 63.3746 254.177C65.6185 248.06 68.2677 242.077 71.3036 236.312L71.6805 235.599C74.7099 229.897 78.0769 224.217 82.3538 219.365C86.8086 214.312 92.3039 210.381 98.2871 207.33C101.207 205.842 104.212 204.551 107.282 203.408C107.776 203.224 108.272 203.059 108.77 202.902C111.97 200.863 115.854 198.912 119.739 198.988C120.003 198.993 120.217 199.093 120.376 199.244C120.564 199.277 120.751 199.316 120.938 199.371C121.352 199.491 121.79 199.945 121.73 200.411L121.71 200.566C121.699 200.641 121.685 200.715 121.662 200.786C121.801 200.807 121.937 200.84 122.07 200.885C125.788 199.836 129.445 198.231 133.072 196.936L133.898 196.645C136.936 195.58 140.053 194.537 142.545 192.431C145.025 190.335 146.889 187.621 148.237 184.687C149.897 181.072 150.641 177.156 152.004 173.445ZM226.426 364.108C227.162 363.56 228.033 364.196 228.308 364.873C229.212 367.096 228.765 370.551 227.491 372.517C226.17 374.554 223.009 373.75 222.933 371.283C222.853 368.71 224.349 365.654 226.426 364.108ZM234.029 302.714C234.095 302.425 234.544 302.427 234.611 302.714C235.224 305.323 235.209 308.132 235.389 310.807L235.41 311.104C235.626 314.053 235.807 317.011 235.937 319.966C236.191 325.78 236.494 331.594 236.834 337.403C237.003 340.284 237.184 343.164 237.377 346.044C237.981 345.707 238.603 345.412 239.248 345.151C240.214 344.761 241.155 344.716 242.193 344.727C243.458 344.739 244.41 345.851 244.243 347.09C244.06 348.438 242.872 349.016 241.639 348.823C240.273 348.61 238.901 348.279 237.522 348.141C237.675 350.368 237.834 352.594 238.002 354.818C238.225 357.764 238.516 360.705 238.721 363.652C238.74 363.933 238.761 364.214 238.783 364.497C239.605 364.069 240.479 363.85 241.468 363.581L241.726 363.509C243.163 363.096 244.701 362.525 246.031 363.491C246.925 364.141 247.103 365.21 246.363 366.067C245.24 367.366 243.578 367.114 242.027 367.048L241.192 367.018C240.406 366.987 239.68 366.936 238.953 366.738C239.086 368.657 239.157 370.584 238.921 372.476C238.794 373.498 237.448 373.766 237.091 372.723C236.161 369.998 235.968 367.058 235.628 364.204C235.31 361.538 235.116 358.852 234.908 356.174L234.845 355.371C234.376 349.479 234.001 343.584 233.728 337.68C233.453 331.777 233.289 325.875 233.223 319.966C233.194 317.283 233.238 314.591 233.343 311.908L233.376 311.104C233.497 308.345 233.413 305.417 234.029 302.714ZM111.021 364.543C111.057 364.166 111.359 363.697 111.808 363.756C112.222 363.809 112.649 363.784 113.058 363.852C113.599 363.942 114.034 364.261 114.537 364.462C115.354 364.788 116.245 364.957 117.083 365.224C118.656 365.726 119.513 367.381 118.862 368.927C118.177 370.552 116.455 370.921 114.968 370.239C113.796 369.702 112.922 368.843 112.134 367.848L111.91 367.565C111.571 367.138 111.185 366.661 111.043 366.144C110.904 365.639 110.972 365.056 111.021 364.543ZM187.441 356.903C189.4 356.627 191.074 357.297 192.886 357.928L193.034 357.979C194.879 358.616 197.571 359.056 198.516 360.944C199.087 362.083 198.644 363.594 197.301 363.931C195.175 364.464 193.269 362.911 191.51 361.865L191.418 361.81C189.721 360.817 187.97 359.981 186.886 358.267C186.597 357.81 186.848 356.987 187.441 356.903ZM119.049 201.144C118.264 201.32 117.479 201.475 116.695 201.625C113.712 203.223 110.817 204.881 107.738 206.305C104.47 207.816 101.215 209.376 98.1116 211.204C91.8414 214.896 86.6725 219.697 82.4014 225.582C75.0235 235.748 69.5355 247.471 65.6078 259.365C64.5987 262.421 63.6956 265.511 62.8967 268.628C64.3092 267.322 65.9815 266.519 67.8568 265.831C68.6515 265.54 69.6408 266.033 70.0436 266.721C70.2247 267.03 70.3269 267.335 70.3081 267.698C70.2664 268.498 69.7458 269.406 68.8864 269.565C66.8829 269.934 64.9349 270.652 63.0031 271.285C62.7103 271.381 62.4586 271.345 62.2576 271.231C60.3398 279.352 59.1401 287.64 58.7151 295.978C58.3557 303.037 58.5774 310.151 59.3595 317.2C59.9605 316.93 60.5484 316.677 61.2073 316.523C62.062 316.325 62.9026 316.083 63.7362 315.81C66.1419 315.021 67.2393 318.991 64.7804 319.596C63.8653 319.822 62.9446 320.008 62.0121 320.145C61.1995 320.264 60.4806 320.212 59.7145 320.087C60.2998 324.485 61.0993 328.851 62.1177 333.154L62.3424 334.096C63.6652 339.593 65.207 345.141 67.4366 350.336C68.5303 352.884 69.9784 355.304 71.7663 357.429C72.6447 358.473 73.6197 359.369 74.6829 360.217C75.568 360.924 78.5768 362.456 82.1402 362.456C85.7036 362.456 86.6682 362.119 88.466 361.5C92.0214 360.277 95.3971 358.324 98.7314 356.584L99.0762 356.405C100.551 355.643 102.019 354.869 103.484 354.088C103.299 352.595 103.623 351.341 104.401 349.962C105.242 348.471 107.327 349.214 107.482 350.739L107.487 350.798C107.51 351.142 107.568 351.492 107.64 351.842C117.435 346.478 127.022 340.738 136.457 334.758C142.535 330.905 148.548 326.937 154.473 322.853C157.435 320.812 160.371 318.734 163.278 316.615C164.801 315.505 166.316 314.386 167.825 313.257C168.454 312.787 169.07 312.293 169.7 311.821C169.547 311.629 169.398 311.438 169.253 311.249C166.901 308.171 165.375 304.501 164.615 300.716C164.156 298.432 163.934 296.061 163.867 293.732L163.837 292.719C163.791 291.013 163.778 289.228 164.093 287.575C163.665 287.81 163.228 288.041 162.792 288.287C161.228 289.173 159.663 290.057 158.095 290.936C154.955 292.697 151.806 294.437 148.617 296.107C142.921 299.091 137.169 301.928 131.262 304.472L128.387 305.71C123.399 307.855 118.369 309.962 113.182 311.556C110.257 312.455 105.87 313.568 102.903 314.255C102.903 314.255 106.479 317.623 103.891 318.782C101.303 319.941 99.1584 315.496 99.073 315.093C97.7061 315.379 93.8023 316.07 93.8023 316.07C90.0926 316.786 86.4958 318.203 83.1799 320.017C82.0272 320.648 81.706 319.423 82.9274 318.569C86.4986 316.073 90.6642 314.661 94.9623 313.476L95.1734 313.418C96.7503 312.986 98.3243 312.536 99.895 312.07C99.7223 311.445 99.6226 310.797 99.6425 310.082C99.6867 308.49 99.8275 306.893 99.9121 305.302C100.09 301.963 100.316 298.634 100.581 295.301C100.683 294.017 100.798 292.73 100.928 291.443C100.086 290.992 99.3595 290.393 98.4204 290.098L98.2619 290.052C97.2575 289.781 97.5965 288.487 98.4886 288.377C99.2968 288.277 100.101 288.323 100.898 288.494C101.021 288.52 101.138 288.55 101.249 288.584C101.396 287.393 101.558 286.204 101.743 285.022C102.23 281.9 102.576 278.61 103.591 275.61C103.667 275.388 103.997 275.308 104.119 275.541C105.596 278.351 105.648 281.798 105.814 284.926L105.835 285.3C106.031 288.714 106.042 292.161 105.979 295.579C105.914 299.102 105.793 302.615 105.635 306.135C105.572 307.552 105.574 309.022 105.333 310.378C114.125 307.52 122.761 304.1 131.04 300.051C136.879 297.194 142.669 294.224 148.392 291.141C151.259 289.597 154.14 288.078 157.005 286.528C158.008 285.984 159.011 285.439 160.014 284.893L161.517 284.074C162.924 283.306 164.099 282.543 165.737 282.489C166.226 282.473 166.664 282.702 166.975 283.048C167.855 282.424 168.873 282.04 169.942 282.049C171.549 279.829 173.182 277.627 174.879 275.472L176.134 273.878C178.304 271.126 180.603 268.332 183.371 266.238C184.606 265.304 185.965 264.603 187.382 264.023C187.049 263.942 186.722 263.778 186.432 263.508C185.078 262.254 184.892 259.924 184.617 258.173C184.332 256.357 184.442 254.733 184.723 252.923C184.833 252.22 185.998 252.074 186.282 252.72C186.882 254.081 187.516 255.387 188.062 256.764L188.223 257.179C188.808 258.729 190.055 260.36 189.972 262.042C189.95 262.503 189.796 262.905 189.557 263.228C190.746 262.833 191.953 262.481 193.141 262.114C196.88 260.959 200.633 259.836 204.444 258.94C205.459 258.702 206.478 258.48 207.502 258.277C208.038 255.732 208.82 253.233 209.741 250.78C208.869 250.333 208.304 249.584 207.553 248.918C206.849 248.294 206.366 247.534 205.766 246.817C205.22 246.166 205.527 244.988 206.508 245.026L206.786 245.038C207.803 245.085 208.788 245.19 209.71 245.664L210.038 245.834C210.489 246.068 210.982 246.335 211.421 246.652C211.995 245.331 212.592 244.023 213.196 242.729L213.979 241.054C216.009 236.697 218.033 232.173 220.582 228.115C221.715 226.312 223.223 225.185 225.388 225.011C227.617 224.831 229.934 225.063 232.166 225.143C234.753 225.236 237.34 225.345 239.924 225.481C239.262 224.787 238.657 224.015 237.992 223.349C236.887 222.245 235.72 221.199 234.494 220.231C232.066 218.317 229.396 216.739 226.624 215.381C223.85 214.022 220.996 212.838 218.392 211.159C216.745 210.097 215.272 208.761 213.929 207.314C213.083 216.434 208.678 224.908 202.06 231.273C195.186 237.885 185.687 241.517 176.394 243.062C166.916 244.638 157.024 244.06 147.956 240.766C143.281 239.068 138.797 236.642 134.799 233.598C134.755 233.863 134.702 234.125 134.598 234.371C134.459 234.701 134.288 234.983 134.093 235.273L133.744 235.783C133.524 236.103 133.3 236.421 133.05 236.718C132.446 237.437 131.59 237.752 130.667 237.749C128.901 237.743 127.564 236.012 128.039 234.3C128.338 233.224 128.977 232.576 129.975 232.155C130.29 232.022 130.611 231.91 130.934 231.801L131.177 231.718C131.504 231.607 131.828 231.5 132.164 231.438C130.271 229.768 128.514 227.951 126.941 225.99C122.006 219.842 117.14 211.231 118.789 203.065C118.818 202.925 118.944 202.837 119.08 202.814C119.176 202.241 119.481 201.687 119.899 201.314C119.617 201.24 119.334 201.183 119.049 201.144ZM170.287 342.324C171.264 341.78 172.274 343.071 171.479 343.869L170.294 345.055C169.193 346.16 168.122 347.277 167.18 348.537L166.952 348.845C165.681 350.574 164.325 352.578 162.241 353.224C159.722 354.006 157.3 350.938 158.759 348.696C160.034 346.737 162.489 345.998 164.605 345.188C166.607 344.422 168.415 343.364 170.287 342.324ZM88.9951 333.284C89.5692 332.533 91.0663 332.928 90.6741 333.992C89.4001 337.444 88.8809 342.152 85.6634 344.446C84.6254 345.186 82.9948 344.846 82.1402 343.992C81.1691 343.021 81.1302 341.654 81.6856 340.47C82.3629 339.025 84.0289 337.978 85.1967 336.877L85.3014 336.777C86.5577 335.557 87.9165 334.695 88.9951 333.284ZM223.47 337.258C224.494 336.816 227.165 335.958 227.957 336.974C227.994 337.011 228.025 337.052 228.051 337.096C228.245 337.434 228.274 337.909 228.051 338.244C227.129 339.63 226.168 340.664 224.857 341.65L224.709 341.76C223.282 342.809 221.941 344.041 220.201 344.515C217.79 345.17 216.106 342.153 217.799 340.39C219.164 338.971 221.246 338.234 223.054 337.442L223.47 337.258ZM126.647 317.529C126.243 316.801 127.067 315.906 127.814 316.362C129.942 317.663 132.422 318.639 134.813 319.34C135.781 319.624 136.654 320.604 136.582 321.662L136.571 321.822C136.543 322.196 136.491 322.567 136.253 322.878C135.421 323.967 134.229 324.387 132.957 323.742C130.122 322.306 128.181 320.301 126.647 317.529ZM188.869 315.322C188.817 315.016 189.041 314.779 189.353 314.838C191.152 315.179 192.813 316.048 194.358 317.046C195.187 317.582 195.986 318.17 196.813 318.711C197.834 319.379 198.216 319.93 198.367 321.156C198.467 321.965 197.711 322.704 197.018 322.927C195.13 323.536 192.967 321.538 191.687 320.241L191.63 320.182C190.291 318.818 189.186 317.204 188.869 315.322ZM242.904 313.202C242.494 312.095 243.907 311.177 244.831 311.721C245.702 312.233 246.646 312.658 247.467 313.244C248.221 313.783 248.909 314.422 249.633 315.007L249.99 315.29C251.317 316.356 253.507 318.993 251.61 320.523C249.804 321.979 247.41 320.12 246.198 318.76L246.114 318.664C245.417 317.859 244.557 316.984 244.051 316.043C243.575 315.158 243.252 314.142 242.904 313.202ZM225.097 227.501C222.836 227.94 221.914 230.731 220.961 232.55C218.714 236.842 216.647 241.214 214.571 245.591C213.932 246.937 213.31 248.294 212.682 249.648C212.643 249.754 212.594 249.858 212.536 249.962C211.25 252.73 209.925 255.48 208.377 258.108C209.794 257.843 211.218 257.617 212.648 257.439C212.576 256.093 213.497 254.293 213.953 253.16L213.991 253.064C214.56 251.612 215.156 249.326 216.619 248.572C217.107 248.322 217.628 248.636 217.666 249.173C217.777 250.77 216.213 252.599 215.449 253.955C214.987 254.776 214.537 255.6 214.098 256.433C213.933 256.745 213.796 257.051 213.627 257.326C214.364 257.246 215.102 257.175 215.842 257.123L216.325 257.09C219.069 256.91 221.983 256.858 224.462 258.211C226.762 259.465 227.938 262.144 226.674 264.582C225.1 267.621 221.633 268.023 218.585 268.27C214.777 268.577 210.961 269.131 207.18 269.672C203.27 270.231 199.587 271.672 195.735 272.413C195.376 272.482 195.153 272.013 195.482 271.813C198.521 269.964 202.215 268.946 205.612 267.91L205.887 267.826C207.73 267.26 209.531 266.613 211.437 266.292C213.288 265.981 215.15 265.729 217.017 265.537L217.198 265.52C219.253 265.348 224.496 265.406 224.274 262.365C224.128 260.351 220.854 260.004 219.36 259.98C212.509 259.87 205.609 261.688 199.098 263.636L197.644 264.071C194.978 264.873 192.308 265.698 189.693 266.638C186.728 267.703 184.393 269.364 182.233 271.638C179.84 274.158 177.521 276.735 175.037 279.171C173.472 280.706 171.886 282.214 170.287 283.71C169.926 284.178 169.637 284.686 169.437 285.346C169.099 286.46 169.177 287.496 169.304 288.64C169.626 291.531 169.697 294.451 170.101 297.333C170.475 300.002 170.998 302.77 172.106 305.246C172.546 306.227 173.117 307.19 173.768 308.051L174.293 308.734C174.522 309.03 174.778 309.355 175.047 309.66C175.442 309.179 176.013 308.865 176.676 308.944C178.087 309.11 179.196 309.07 180.579 308.746C181.65 308.495 182.713 308.202 183.779 307.93C185.873 307.396 187.986 306.91 190.058 306.297L190.415 306.19C191.959 305.716 193.504 305.123 194.789 304.126C196.283 302.968 196.742 301.297 197.848 299.852C200.21 296.767 205.315 296.832 208.771 295.987C211.708 295.269 214.534 294.136 216.567 292.005L216.685 291.878C216.595 291.498 216.741 291.069 217.095 290.872L217.172 290.829C217.309 290.752 217.458 290.721 217.603 290.724C217.792 290.447 217.974 290.161 218.139 289.856C218.275 289.605 218.615 289.79 218.571 290.038C218.544 290.186 218.507 290.33 218.472 290.475C220.441 289.969 222.604 290.065 224.603 290.067L227.197 290.058C227.646 290.052 228.315 290.029 228.374 290.003L228.435 289.975C228.597 289.905 228.367 290.021 228.48 289.871C228.605 289.706 228.727 289.539 228.847 289.37C229.277 288.768 229.684 288.149 230.083 287.524C225.738 288.63 221.238 289.318 216.803 289.892C212.044 290.509 207.222 290.936 202.421 290.941C201.097 290.942 201.109 288.945 202.421 288.895C207.505 288.701 212.562 288.431 217.612 287.78C220.224 287.443 222.824 287.02 225.41 286.525C226.409 286.335 227.405 286.132 228.398 285.918L229.143 285.756C229.61 285.653 230.93 285.504 231.574 285.072C231.701 284.855 231.827 284.638 231.953 284.421C231.891 283.658 229.952 283.76 229.497 283.759C228.208 283.757 226.919 283.767 225.629 283.77C223.051 283.778 220.473 283.756 217.894 283.735C212.742 283.693 207.571 283.513 202.423 283.733C201.174 283.786 200.517 281.783 201.752 281.256C207.205 278.929 213.257 278.423 219.079 277.708C222.141 277.332 225.204 276.897 228.197 276.136L228.937 275.948C230.817 275.466 232.894 274.879 234.477 273.73C232.097 272.768 229.139 272.878 226.672 272.742L226.484 272.731C223.03 272.519 219.569 272.41 216.109 272.405C209.028 272.396 201.946 272.646 194.873 272.982C194.695 272.99 194.659 272.71 194.831 272.673C202.101 271.087 209.489 270.323 216.928 270.206C220.393 270.151 223.859 270.2 227.321 270.353L228.591 270.411C231.543 270.539 234.818 270.573 237.287 272.355C237.664 272.626 237.862 272.973 237.893 273.34C241.205 266.74 244.264 260.003 247.335 253.31C249.723 248.106 252.021 242.858 254.496 237.695L255.297 236.025C256.369 233.796 257.468 231.566 258.689 229.418C254.126 228.809 249.537 228.385 244.946 228.061C240.762 227.765 227.111 227.111 225.097 227.501ZM223.077 299.028C223.597 298.739 224.394 298.974 224.522 299.616C224.618 300.093 224.781 300.624 224.781 301.112C224.781 301.698 224.571 302.334 224.46 302.906C224.203 304.223 223.887 305.293 223.217 306.467C222.798 307.201 221.952 307.699 221.101 307.679C220.428 307.664 219.831 307.483 219.369 306.962C218.815 306.338 218.435 305.42 218.739 304.579C219.534 302.377 220.997 300.182 223.077 299.028ZM112.701 296.831C113.919 294.698 116.805 292.793 119.324 292.982C123.106 293.265 123.878 298.356 120.216 299.57C118.027 300.296 115.016 299.551 113.101 298.356C112.585 298.034 112.396 297.365 112.701 296.831ZM73.8304 289.546C73.5538 289.145 74.0109 288.685 74.423 288.776C75.337 288.976 76.3223 289.064 77.2175 289.337C78.1343 289.615 79.0217 290.078 79.9298 290.396C81.8322 291.062 83.8642 291.396 85.7053 292.2C86.4412 292.522 87.0201 293.587 86.9521 294.373L86.9347 294.557C86.894 294.946 86.8264 295.287 86.6083 295.643C86.0224 296.599 84.8616 297.094 83.7659 296.799C81.7333 296.253 79.7472 294.851 78.0142 293.686L77.694 293.473C76.9368 292.975 76.1226 292.453 75.5125 291.811C74.8756 291.141 74.3522 290.305 73.8304 289.546ZM143.7 281.792C143.466 280.95 144.514 280.393 145.126 280.962C146.347 282.1 147.623 283.154 148.819 284.32L148.899 284.4C149.756 285.26 151.002 286.918 149.888 288.031C148.461 289.458 146.474 287.341 145.708 286.238C144.737 284.839 144.154 283.428 143.7 281.792ZM237.142 274.828C235.331 276.746 232.54 277.628 230.082 278.358C227.169 279.224 224.167 279.741 221.162 280.166C218.258 280.577 215.377 280.945 212.519 281.416C214.681 281.443 216.842 281.459 218.999 281.498C221.486 281.543 223.972 281.596 226.458 281.668C228.269 281.721 230.394 281.473 232.114 282.146C232.425 282.267 232.714 282.434 232.967 282.639C234.414 280.067 235.801 277.46 237.142 274.828ZM125.411 256.891C127.301 256.291 129.079 255.494 131.083 255.701C131.616 255.756 131.998 256.274 131.707 256.787C130.757 258.458 129.212 259.401 127.692 260.518L127.558 260.618C125.894 261.855 124.107 262.983 122.297 263.998C119.181 265.746 116.389 260.743 119.536 259.275C121.429 258.392 123.418 257.524 125.411 256.891ZM159.45 252.548C162.343 252.738 165.233 252.868 168.129 252.985C171.484 253.12 170.356 258.281 167.554 257.237C164.785 256.205 162.017 255.186 159.223 254.223C158.373 253.93 158.441 252.534 159.396 252.546L159.45 252.548ZM85.2612 243.367C86.0109 243.315 86.767 243.478 87.5178 243.551L88.3166 243.629C89.9634 243.792 91.5075 243.994 93.078 244.664C95.9758 245.901 94.4194 250.557 91.5104 250.451C89.3602 250.372 87.5217 249.448 85.706 248.374C84.1188 247.434 83.1458 246.259 82.074 244.784C81.719 244.295 82.2136 243.748 82.6971 243.699C83.5486 243.612 84.4094 243.427 85.2612 243.367ZM230.522 233.857C230.042 236.848 228.852 239.652 227.058 242.093C226.157 243.319 224.575 243.366 223.681 242.093C222.418 240.292 223.197 238.229 224.149 236.499L224.43 235.992C224.857 235.233 225.511 234.125 226.259 233.36L226.272 233.282C226.673 230.15 231.016 230.775 230.522 233.857ZM113.529 214.66C114.25 214.011 115.578 214.206 115.812 215.263C116.14 216.743 116.339 218.41 116.125 219.912C116.009 220.726 115.965 221.641 115.645 222.399C115.3 223.215 114.638 223.842 114.014 224.456C112.769 225.68 110.143 225.275 109.809 223.346L109.766 223.109C109.599 222.196 109.384 221.22 109.632 220.315C109.82 219.633 110.239 218.936 110.586 218.303L110.659 218.168C111.354 216.875 112.437 215.643 113.529 214.66ZM214.889 217.809L215.15 217.811C217.163 217.851 220.843 218.341 220.862 220.827C220.867 221.413 220.433 222.021 219.851 222.156C218.648 222.434 217.87 221.724 217.013 221.006C216.311 220.419 215.494 219.95 214.645 219.612C213.728 219.248 213.788 217.807 214.889 217.809Z" fill="white"/>
<path fill-rule="evenodd" clip-rule="evenodd" d="M217.414 135.445C216.813 130.152 217.591 119.088 217.643 118.416C217.973 114.166 215.985 97.3859 212.228 98.932C205.925 93.9337 197.531 92.83 189.682 92.3028C173.377 91.2075 156.033 93.7219 143.443 104.714C137.217 110.423 131.155 118.725 131.642 127.37C125.985 135.565 118.011 146.805 125.059 156.385C127.455 159.446 131.262 160.585 134.272 162.903C140.326 167.795 144.124 174.815 150.235 179.678C166.426 194.253 193.917 197.298 209.824 180.72C222.125 168.713 220.136 150.751 217.973 135.445C216.518 125.154 218.587 145.771 217.414 135.445Z" fill="#EDB68F"/>
<path fill-rule="evenodd" clip-rule="evenodd" d="M167.901 69.8567C172.262 68.9752 176.739 68.4267 181.192 68.5918L181.535 68.6051C184.886 68.7393 189.129 69.036 192.052 70.9878C192.22 70.8188 192.49 70.732 192.736 70.8493C196.209 72.5101 200.029 73.7109 203.686 74.9042C207.327 76.0916 211.103 76.8754 214.919 77.1914C216.354 77.3103 217.583 78.8631 216.674 80.2559C216.458 80.5878 216.247 80.9231 216.037 81.2592C216.388 81.2225 216.739 81.1847 217.09 81.1492C218.244 81.0328 219.398 82.2672 219.329 83.3932C219.286 84.1015 219.21 84.8014 219.097 85.4929C219.537 85.4837 219.974 85.5497 220.397 85.7285C222.535 86.6333 222.386 89.1852 222.226 91.1267C222.004 93.8211 220.999 96.6749 219.131 98.6915C220.525 100.142 221.513 101.875 222.101 103.933C222.528 105.436 222.766 107.037 222.649 108.601L222.611 109.069C222.466 110.767 222.178 112.646 220.959 113.868C220.333 114.497 219.562 114.727 218.827 114.654C219.272 118.566 219.557 122.501 219.825 126.421L219.951 128.295C220.549 137.357 220.998 146.477 220.881 155.553C220.771 164.035 219.098 172.268 213.906 179.155C209.176 185.426 202.386 190.049 194.704 191.807C190.564 192.756 186.338 192.823 182.148 192.218C180.116 191.924 178.072 191.474 176.144 190.763C174.01 189.974 172.477 188.813 171.041 187.072C170.362 186.246 170.689 184.489 172.041 184.654C174.086 184.902 175.953 185.202 177.914 185.808L178.195 185.897C180.147 186.523 182.17 186.991 184.212 187.189C188.394 187.595 192.639 187.187 196.645 185.916C203.168 183.845 208.785 179.231 212.386 173.432C216.66 166.559 217.143 158.757 217.081 150.855C217.015 142.183 216.734 133.506 216.274 124.843L216.196 123.399C215.953 118.941 215.718 114.48 215.512 110.02C215.448 108.621 215.35 107.21 215.173 105.814C213.562 104.868 212.118 103.564 211.176 101.955C209.285 102.738 207.296 103.304 205.466 103.754C201.228 104.798 196.827 105.052 192.513 104.398C191.349 104.88 190.162 105.303 188.957 105.667C188.631 105.812 188.306 105.954 187.98 106.094C185.075 107.339 182.128 108.394 179.061 109.166L178.307 109.354C176.693 109.753 174.94 110.146 173.223 110.269C172.94 110.378 172.636 110.47 172.303 110.551C170.739 110.932 169.116 111.052 167.513 110.918C165.951 110.787 164.823 109.205 165.683 107.725C166.311 106.645 166.946 105.567 167.586 104.493C165.359 105.422 163.06 106.194 160.742 106.849C158.401 107.51 156.027 108.066 153.649 108.579C152.378 108.85 151.102 109.091 149.834 109.362C148.926 109.555 147.532 109.656 146.791 110.255C145.973 110.912 145.741 112.446 145.431 113.392C145.023 114.62 144.64 115.855 144.291 117.103C143.596 119.593 143.026 122.12 142.585 124.672C142.143 127.227 141.847 129.808 141.682 132.396C141.518 134.982 141.59 137.584 141.325 140.159C141.182 141.525 139.719 142.227 138.638 141.273C138.511 141.161 138.383 141.048 138.256 140.933L138.068 140.761C137.143 139.921 136.246 139.031 135.506 138.029C135.372 137.845 135.244 137.652 135.124 137.456C135.104 137.456 135.087 137.45 135.068 137.436L134.863 137.281C132.603 135.597 128.829 133.401 126.626 136.199C125.924 137.091 125.565 138.226 125.266 139.321L124.743 141.281C124.404 142.561 124.086 143.848 123.899 145.157C123.478 148.09 123.69 151.47 125.704 153.821C126.509 154.761 127.618 155.433 128.855 155.609C129.545 155.704 130.227 155.587 130.911 155.5C131.607 155.413 132.277 155.553 132.973 155.486C134.079 155.377 134.562 156.703 134.149 157.537C133.925 157.985 133.662 158.371 133.364 158.699C133.604 158.906 133.833 159.13 134.054 159.365C134.707 159.574 135.294 160.025 135.733 160.621C136.087 161.102 136.271 161.626 136.302 162.177C136.341 162.314 136.375 162.454 136.406 162.597L137.005 163.571C137.137 163.785 137.268 163.996 137.4 164.203C138.925 166.61 140.618 168.647 142.722 170.567C144.747 172.414 146.945 174.068 148.848 176.049L149.072 176.284C150.845 178.157 152.715 180.423 152.021 183.146C151.842 183.845 150.867 184.349 150.23 183.876C148.183 182.354 147.152 179.941 145.414 178.095C143.626 176.192 141.646 174.482 139.853 172.584C138.157 170.793 136.819 168.765 135.811 166.531C135.408 166.976 134.822 167.293 134.009 167.416C132.612 167.626 131.31 166.806 130.702 165.594C130.31 165.767 129.911 165.924 129.509 166.047C127.391 166.696 126.059 164.337 126.858 162.594C127.285 161.659 127.819 160.848 128.481 160.165C126.411 159.88 124.304 158.808 122.944 157.47C119.531 154.109 119.062 149.058 119.83 144.566C120.238 142.185 120.941 139.776 121.855 137.54C122.014 137.151 122.185 136.759 122.371 136.373C122.268 136.37 122.162 136.325 122.095 136.238C121.478 135.393 120.726 134.702 120.268 133.756C119.846 132.889 119.377 132.01 119.045 131.106C118.36 129.256 118.025 127.169 117.802 125.212C117.341 121.208 117.519 117.229 118.131 113.249C119.173 106.471 121.689 99.9852 125.396 94.2937C125.195 94.1875 125.001 94.0592 124.821 93.9075L124.732 93.8297L124.587 93.6988C123.529 92.7397 123.621 90.9423 124.587 89.971L124.892 89.6644C125.279 89.2797 125.612 88.975 126.237 88.5561C126.329 88.4942 126.423 88.436 126.518 88.3817C126.191 87.7767 126.078 87.0693 126.306 86.2888C127.099 83.5698 131.004 83.6661 133.479 84.8518C136.218 82.4034 139.254 80.278 142.545 78.557C150.384 74.4601 159.247 71.6029 167.901 69.8567ZM127.383 141.469C128.847 140.99 130.791 141.995 132.107 142.599C133.774 143.366 135.193 144.499 136.568 145.697C137.252 146.296 137.375 147.275 137.205 148.112C137.188 148.196 137.171 148.283 137.151 148.37C136.97 149.262 135.975 149.965 135.095 149.939C133.255 149.889 132.378 148.297 131.336 146.948C131.213 147.166 131.059 147.368 130.869 147.519L130.741 147.62C130.308 147.949 129.831 148.213 129.26 148.188C128.855 148.168 128.467 148.065 128.109 147.877C127.215 147.404 126.822 146.246 127.064 145.302C127.215 144.709 127.562 144.245 128.014 143.923L127.846 143.807C127.485 143.556 127.155 143.29 126.899 142.899L126.841 142.806H126.863C126.584 142.325 126.766 141.67 127.383 141.469Z" fill="black"/>
<path fill-rule="evenodd" clip-rule="evenodd" d="M196.522 169.63C194.46 170.227 192.247 170.28 190.145 169.664C188.238 169.104 186.28 167.874 184.877 166.245C183.631 164.798 182.824 163.039 182.855 161.162C182.859 160.948 182.936 160.769 183.053 160.63C183.18 160.481 183.358 160.378 183.548 160.334C183.743 160.288 183.95 160.304 184.126 160.384C184.285 160.456 184.421 160.579 184.506 160.758C184.722 161.042 184.937 161.321 185.153 161.592C186.886 163.732 188.566 165.332 191.173 165.905C192.587 166.217 194 166.079 195.297 165.604C196.684 165.095 197.939 164.201 198.922 163.057C199.366 162.54 199.89 162.329 200.403 162.326C200.984 162.322 201.559 162.591 201.991 163.023C202.417 163.447 202.702 164.023 202.727 164.626C202.75 165.155 202.577 165.708 202.118 166.201C200.605 167.826 198.644 169.016 196.522 169.63ZM196.459 142.823C198.572 144.108 201.793 147.103 199.519 150.287C196.843 153.095 192.989 149.876 191.089 148.42C189.329 147.291 187.35 150.194 188.984 151.511C202.707 161.668 208.276 143.159 197.528 141.313C196.344 141.11 195.905 142.426 196.459 142.823ZM176.685 137.171C176.005 136.737 175.206 136.588 174.32 136.991C173.628 137.305 172.414 138.354 171.569 139.733C170.991 140.677 170.581 141.783 170.667 142.936C170.686 143.204 170.587 143.401 170.431 143.547C170.308 143.663 170.13 143.747 169.921 143.774C169.743 143.796 169.545 143.776 169.383 143.726C169.076 143.63 168.913 143.43 168.852 143.268C168.26 141.697 168.515 139.945 169.178 138.363C170.073 136.23 171.697 134.442 172.762 133.866C174.584 132.879 176.733 132.834 178.557 133.839C180.11 134.694 181.081 136.075 182.047 137.483C182.252 137.782 182.456 138.079 182.666 138.371C183.088 138.956 183.13 139.536 182.967 140.033C182.786 140.584 182.324 141.049 181.747 141.292C181.213 141.517 180.594 141.548 180.046 141.317C179.583 141.122 179.158 140.742 178.889 140.096C178.437 139.009 177.682 137.809 176.685 137.171ZM211.19 139.59C210.725 139.833 210.361 139.906 209.845 139.751C209.559 139.665 209.277 139.501 209.056 139.28C208.837 139.062 208.68 138.789 208.618 138.488C208.467 137.743 208.059 137.045 207.478 136.591C206.982 136.202 206.355 135.996 205.659 136.112C204.909 136.237 204.194 136.718 203.702 137.286C203.537 137.475 203.408 137.691 203.279 137.905C203.036 138.305 202.8 138.678 202.466 138.972C202.339 139.083 202.148 139.161 201.963 139.161C201.887 139.161 201.811 139.149 201.738 139.126C200.992 138.377 200.848 137.808 200.872 137.244C200.897 136.653 201.13 136.055 201.507 135.496C202.391 134.186 204.069 133.112 205.202 132.868C206.753 132.535 208.293 132.935 209.528 133.801C210.799 134.692 211.74 136.075 212.034 137.634C212.104 138.01 212.074 138.415 211.931 138.767C211.792 139.11 211.548 139.404 211.19 139.59ZM180.105 123.202C179.174 124.109 178.073 124.249 176.958 124.374C176.339 124.444 175.845 124.501 175.358 124.61C174.021 124.912 172.7 125.366 171.494 126.021C170.233 126.705 168.86 127.53 167.872 128.587C167.637 128.839 167.415 129.103 167.193 129.367C166.991 129.608 166.796 129.84 166.591 130.064C166.355 130.322 166.131 130.591 165.908 130.86C165.771 131.087 165.743 131.143 165.716 131.201C165.674 131.288 165.625 131.386 165.57 131.49C165.494 131.634 165.405 131.791 165.312 131.933C165.157 132.194 165.074 132.265 165.002 132.297C164.882 132.35 164.769 132.377 164.66 132.362C164.557 132.349 164.46 132.3 164.364 132.219C163.886 131.815 163.745 131.153 163.76 130.45C163.782 129.383 164.175 128.201 164.538 127.475C165.382 125.788 166.552 124.034 167.959 122.774C169.565 121.337 171.322 120.249 173.34 119.499C174.593 119.032 176.045 118.605 177.411 118.659C178.395 118.697 179.333 118.99 180.109 119.719C180.585 120.167 180.813 120.804 180.813 121.441C180.813 122.091 180.576 122.744 180.105 123.202ZM213.083 131.504C213.024 131.601 212.942 131.668 212.851 131.708C212.755 131.75 212.649 131.762 212.546 131.745C212.444 131.727 212.347 131.681 212.271 131.611C212.197 131.543 212.141 131.453 212.116 131.343C211.498 128.63 210.298 126.611 207.737 125.31C206.477 124.669 205.028 124.262 203.657 123.938C203.259 123.844 202.837 123.783 202.413 123.721C201.084 123.527 199.746 123.305 198.879 122.231C198.357 121.584 198.138 120.756 198.262 120C198.379 119.287 198.795 118.634 199.552 118.243C201.437 117.268 203.779 118.224 205.682 119.039C205.823 119.099 205.962 119.158 206.097 119.216C207.958 120.001 209.656 121.038 211.051 122.52C212.158 123.696 213.184 125.435 213.597 127.224C213.941 128.712 213.86 130.231 213.083 131.504Z" fill="black"/>
<path fill-rule="evenodd" clip-rule="evenodd" d="M171.52 171.598C173.786 166.29 178.733 162.389 184.428 160.963C188.61 159.918 192.999 159.952 197.263 160.366C199.496 160.582 201.892 160.759 203.997 161.588C205.795 162.297 207.26 163.636 208.361 165.208C209.672 167.07 210.564 169.202 211.19 171.387C211.279 171.698 211.363 172.011 211.441 172.325C211.168 173.974 210.59 175.377 209.063 176.414C207.572 177.426 205.794 177.84 204.021 177.987C203.847 177.904 203.679 177.818 203.525 177.73C200.762 176.149 198.817 172.412 195.33 172.918C192.218 173.369 190.169 177.284 188.319 179.579C182.378 180.271 176.442 178.487 171.608 175.091C171.363 173.929 171.349 172.757 171.52 171.598ZM215.478 167.572C215.003 166.238 214.405 164.947 213.695 163.731C211.35 159.708 207.749 156.503 203.474 154.671C193.363 150.343 180.279 153.394 172.114 160.492C169.324 162.919 166.504 166.485 165.651 170.321C165.396 170.371 165.156 170.504 164.958 170.69C159.058 166.977 152.982 163.404 148.228 158.257C144.776 154.517 142.374 150.091 140.904 145.227C140.783 144.827 140.138 144.886 140.157 145.329C140.163 145.432 140.168 145.536 140.174 145.639C140.113 145.449 139.822 145.547 139.799 145.732C139.008 151.64 138.019 157.904 138.93 163.843C139.475 167.387 141.085 169.981 143.238 172.783C145.544 175.785 148.155 178.578 150.825 181.257C152.519 182.957 154.289 184.918 156.363 186.165C158.776 187.613 161.513 188.714 164.087 189.832C166.707 190.972 169.366 192.025 172.074 192.939C177.489 194.771 183.086 196.037 188.781 196.592C193.34 197.034 198.551 197.516 202.921 195.802C206.27 194.488 208.973 192.112 211.118 189.255C213.452 186.142 215.297 182.597 216.317 178.859C217.377 174.975 215.702 168.198 215.478 167.572Z" fill="black"/>
<path fill-rule="evenodd" clip-rule="evenodd" d="M226.208 135.524C223.539 153.571 204.909 155.567 201.599 137.651C202.13 137.418 202.512 136.96 202.432 136.071C202.413 132.167 203.626 128.041 207.149 125.869C210.79 123.629 215.051 123.407 219.264 123.463C227.304 123.272 227.135 129.99 226.208 135.524ZM198.682 127.675C196.159 127.569 192.966 127.658 190.706 129.195C190.085 127.522 188.47 125.736 186.838 124.781C192.902 124.958 199.144 124.361 205.253 123.898C203.791 124.895 202.431 126.392 201.546 128.123C200.726 127.685 199.551 127.726 198.682 127.675ZM187.56 137.437C180.563 161.514 163.098 151.02 161.194 147.934C157.759 142.828 157.113 130.416 160.105 127.097C164.387 124.096 170.45 124.869 175.509 124.795C184.803 124.921 191.403 127.7 187.56 137.437ZM234.47 126.364C232.569 126.115 230.537 126.065 228.77 126.902C228.225 124.59 226.517 122.656 224.588 121.806C224.355 121.513 224.39 121.356 223.592 121.4C218.695 119.928 213.215 120.707 208.508 122.216C201.076 122.841 193.278 123.335 185.783 124.197C178.761 121.045 157.573 120.583 156.256 128.352C154.6 128.104 151.779 126.801 150.387 128.569C140.178 126.839 129.628 129.243 119.375 130.314C116.794 130.789 115.465 135.91 118.394 135.84C120.041 135.393 118.344 132.652 120.561 132.445C130.454 131.365 140.131 129.833 150.125 129.653C149.778 131.379 156.736 131.491 156.838 130.483C156.853 130.491 156.869 130.496 156.884 130.503C155.165 136.908 156.717 146.127 159.824 150.099C164.177 155.3 175.107 156.792 179.954 153.446C186.205 150.357 192.709 134.853 190.882 129.703C194.198 128.652 197.475 128.967 200.916 129.502C200.128 131.727 198.768 137.203 200.725 137.678C200.366 148.55 210.263 155.333 219.387 150.874C227.284 147.168 230.046 135.437 229.08 128.317C230.063 130.216 238.318 128.149 234.47 126.364Z" fill="black"/>
</svg>
