<svg width="40" height="40" viewBox="0 0 40 40" fill="none" xmlns="http://www.w3.org/2000/svg">
<path d="M19.1654 36.2497C9.7487 36.2497 2.08203 28.583 2.08203 19.1663C2.08203 9.74967 9.7487 2.08301 19.1654 2.08301C19.8487 2.08301 20.4154 2.64967 20.4154 3.33301C20.4154 4.01634 19.8487 4.58301 19.1654 4.58301C11.1154 4.58301 4.58203 11.133 4.58203 19.1663C4.58203 27.1997 11.1154 33.7497 19.1654 33.7497C27.2154 33.7497 33.7487 27.1997 33.7487 19.1663C33.7487 18.483 34.3154 17.9163 34.9987 17.9163C35.682 17.9163 36.2487 18.483 36.2487 19.1663C36.2487 28.583 28.582 36.2497 19.1654 36.2497Z" fill="#14BDDC"/>
<path d="M36.6651 37.9171C36.3484 37.9171 36.0318 37.8004 35.7818 37.5504L32.4484 34.2171C31.9651 33.7337 31.9651 32.9337 32.4484 32.4504C32.9318 31.9671 33.7318 31.9671 34.2151 32.4504L37.5484 35.7837C38.0318 36.2671 38.0318 37.0671 37.5484 37.5504C37.2984 37.8004 36.9818 37.9171 36.6651 37.9171Z" fill="#14BDDC"/>
<path d="M29.1651 15.8997C27.6318 15.8997 24.0651 14.033 22.9651 10.5997C22.2151 8.24965 23.0818 5.16632 25.7985 4.28299C26.9651 3.89965 28.1818 4.08299 29.1485 4.69965C30.0985 4.08299 31.3485 3.91632 32.5151 4.28299C35.2318 5.16632 36.1151 8.24965 35.3485 10.5997C34.2651 14.0997 30.5151 15.8997 29.1651 15.8997ZM25.3485 9.84965C26.1151 12.2663 28.7151 13.3663 29.1818 13.4163C29.7151 13.3663 32.2651 12.133 32.9651 9.86632C33.3485 8.64965 32.9651 7.08299 31.7485 6.68299C31.2318 6.51632 30.5318 6.61632 30.1985 7.09965C29.9651 7.44965 29.5985 7.64965 29.1818 7.66632C28.8151 7.68299 28.3818 7.48299 28.1485 7.14965C27.7651 6.59965 27.0651 6.51632 26.5651 6.66632C25.3651 7.06632 24.9651 8.63299 25.3485 9.84965Z" fill="#14BDDC"/>
</svg>
