<svg width="61" height="60" viewBox="0 0 61 60" fill="none" xmlns="http://www.w3.org/2000/svg">
<path d="M14.2734 16.25C12.8984 16.25 11.7734 15.125 11.7734 13.75C11.7734 12.375 12.8734 11.25 14.2734 11.25H14.2984C15.6734 11.25 16.7984 12.375 16.7984 13.75C16.7984 15.125 15.6734 16.25 14.2734 16.25Z" fill="#14BDDC"/>
<path d="M46.7734 48.75C45.3984 48.75 44.2734 47.625 44.2734 46.25C44.2734 44.875 45.3734 43.75 46.7734 43.75H46.7984C48.1734 43.75 49.2984 44.875 49.2984 46.25C49.2984 47.625 48.1734 48.75 46.7734 48.75Z" fill="#14BDDC"/>
<path d="M14.1758 24.375C8.32578 24.375 3.55078 19.6 3.55078 13.75C3.55078 7.9 8.32578 3.125 14.1758 3.125C20.0258 3.125 24.8008 7.9 24.8008 13.75C24.8008 19.6 20.0508 24.375 14.1758 24.375ZM14.1758 6.875C10.3758 6.875 7.30078 9.95 7.30078 13.75C7.30078 17.55 10.3758 20.625 14.1758 20.625C17.9758 20.625 21.0508 17.55 21.0508 13.75C21.0508 9.95 17.9758 6.875 14.1758 6.875Z" fill="#14BDDC"/>
<path d="M50.4258 56.875H42.9258C39.1258 56.875 36.0508 53.8 36.0508 50V42.5C36.0508 38.7 39.1258 35.625 42.9258 35.625H50.4258C54.2258 35.625 57.3008 38.7 57.3008 42.5V50C57.3008 53.8 54.2258 56.875 50.4258 56.875ZM42.9258 39.375C41.2008 39.375 39.8008 40.775 39.8008 42.5V50C39.8008 51.725 41.2008 53.125 42.9258 53.125H50.4258C52.1508 53.125 53.5508 51.725 53.5508 50V42.5C53.5508 40.775 52.1508 39.375 50.4258 39.375H42.9258Z" fill="#14BDDC"/>
<path d="M30.4996 49.375H23.7996C20.8996 49.375 18.3746 47.625 17.3746 44.925C16.3496 42.225 17.0996 39.25 19.2746 37.325L39.2496 19.85C40.4496 18.8 40.4746 17.375 40.1246 16.4C39.7496 15.425 38.7996 14.375 37.1996 14.375H30.4996C29.4746 14.375 28.6246 13.525 28.6246 12.5C28.6246 11.475 29.4746 10.625 30.4996 10.625H37.1996C40.0996 10.625 42.6246 12.375 43.6246 15.075C44.6496 17.775 43.8996 20.75 41.7246 22.675L21.7496 40.15C20.5496 41.2 20.5246 42.625 20.8746 43.6C21.2496 44.575 22.1996 45.625 23.7996 45.625H30.4996C31.5246 45.625 32.3746 46.475 32.3746 47.5C32.3746 48.525 31.5246 49.375 30.4996 49.375Z" fill="#14BDDC"/>
</svg>
