<svg width="60" height="60" viewBox="0 0 60 60" fill="none" xmlns="http://www.w3.org/2000/svg">
<path d="M30 56.9C27.275 56.9 24.575 56.1 22.45 54.525L11.7 46.5C8.85 44.375 6.625 39.95 6.625 36.4V17.825C6.625 13.975 9.45004 9.87499 13.075 8.52499L25.55 3.85C28.025 2.925 31.925 2.925 34.4 3.85L46.9 8.52499C50.525 9.87499 53.35 13.975 53.35 17.825V36.4C53.35 39.95 51.125 44.375 48.275 46.5L37.525 54.525C35.425 56.1 32.725 56.9 30 56.9ZM26.875 7.34998L14.4 12.025C12.25 12.825 10.375 15.525 10.375 17.825V36.4C10.375 38.775 12.05 42.1 13.925 43.5L24.675 51.5249C27.55 53.6749 32.425 53.6749 35.3 51.5249L46.05 43.5C47.9501 42.075 49.6 38.75 49.6 36.4V17.825C49.6 15.55 47.725 12.85 45.575 12.025L33.1 7.34998C31.45 6.72498 28.55 6.72498 26.875 7.34998Z" fill="#14BDDC"/>
<path d="M30.0007 29.1749C29.9507 29.1749 29.9007 29.1749 29.8257 29.1749C26.2007 29.0749 23.5508 26.2999 23.5508 22.9249C23.5508 19.4749 26.3757 16.6499 29.8257 16.6499C33.2757 16.6499 36.1008 19.4749 36.1008 22.9249C36.0758 26.3249 33.4257 29.0749 30.0507 29.1999C30.0257 29.1749 30.0257 29.1749 30.0007 29.1749ZM29.8257 20.3999C28.4257 20.3999 27.3008 21.5249 27.3008 22.9249C27.3008 24.2999 28.3758 25.3999 29.7258 25.4499C29.7258 25.4499 29.8507 25.4499 30.0007 25.4499C31.3257 25.3749 32.3508 24.2749 32.3508 22.9249C32.3758 21.5249 31.2257 20.3999 29.8257 20.3999Z" fill="#14BDDC"/>
<path d="M30 43.3749C27.85 43.3749 25.675 42.7999 24 41.6749C22.325 40.5749 21.375 38.9499 21.375 37.2249C21.375 35.4999 22.325 33.8749 24 32.7499C27.375 30.4999 32.65 30.5249 36 32.7499C37.675 33.8499 38.6251 35.4749 38.6251 37.1999C38.6251 38.9249 37.675 40.5499 36 41.6749C34.325 42.7999 32.15 43.3749 30 43.3749ZM26.075 35.8499C25.45 36.2499 25.1 36.7499 25.125 37.1999C25.125 37.6499 25.475 38.1499 26.075 38.5499C28.175 39.9499 31.825 39.9499 33.925 38.5499C34.55 38.1499 34.9 37.6499 34.9 37.1999C34.9 36.7499 34.55 36.2499 33.95 35.8499C31.85 34.4749 28.175 34.4749 26.075 35.8499Z" fill="#14BDDC"/>
</svg>
