<svg width="40" height="40" viewBox="0 0 40 40" fill="none" xmlns="http://www.w3.org/2000/svg">
<path d="M24.9987 37.9163H14.9987C5.9487 37.9163 2.08203 34.0497 2.08203 24.9997V14.9997C2.08203 5.94967 5.9487 2.08301 14.9987 2.08301H24.9987C34.0487 2.08301 37.9154 5.94967 37.9154 14.9997V24.9997C37.9154 34.0497 34.0487 37.9163 24.9987 37.9163ZM14.9987 4.58301C7.31536 4.58301 4.58203 7.31634 4.58203 14.9997V24.9997C4.58203 32.683 7.31536 35.4163 14.9987 35.4163H24.9987C32.682 35.4163 35.4154 32.683 35.4154 24.9997V14.9997C35.4154 7.31634 32.682 4.58301 24.9987 4.58301H14.9987Z" fill="#14BDDC"/>
<path d="M23.2495 37.9168C22.6828 37.9168 22.1828 37.5335 22.0328 36.9668L13.7828 3.63347C13.6162 2.9668 14.0328 2.28349 14.6995 2.11682C15.3662 1.95015 16.0494 2.35016 16.2161 3.03349L24.4661 36.3668C24.6328 37.0335 24.2162 37.7168 23.5495 37.8835C23.4495 37.9001 23.3495 37.9168 23.2495 37.9168Z" fill="#14BDDC"/>
<path d="M3.33113 26.2497C2.78113 26.2497 2.29785 25.8997 2.13118 25.3497C1.93118 24.683 2.31443 23.9997 2.9811 23.7997L18.8645 19.1663C19.5311 18.9663 20.2145 19.3497 20.4145 20.0163C20.6145 20.683 20.2311 21.3663 19.5645 21.5663L3.68117 26.1997C3.5645 26.233 3.4478 26.2497 3.33113 26.2497Z" fill="#14BDDC"/>
</svg>
