<svg width="40" height="40" viewBox="0 0 40 40" fill="none" xmlns="http://www.w3.org/2000/svg">
<path d="M29.9979 13.1834C29.9479 13.1834 29.9146 13.1834 29.8646 13.1834H29.7812C26.6312 13.0834 24.2812 10.6501 24.2812 7.6501C24.2812 4.58343 26.7813 2.1001 29.8313 2.1001C32.8813 2.1001 35.3813 4.6001 35.3813 7.6501C35.3646 10.6668 33.0146 13.1001 30.0146 13.2001C30.0146 13.1834 30.0146 13.1834 29.9979 13.1834ZM29.8313 4.58344C28.1479 4.58344 26.7812 5.95011 26.7812 7.63344C26.7812 9.28344 28.0646 10.6168 29.7146 10.6834C29.7313 10.6668 29.8646 10.6668 30.0146 10.6834C31.6312 10.6001 32.8813 9.26678 32.8979 7.63344C32.8979 5.95011 31.5313 4.58344 29.8313 4.58344Z" fill="#14BDDC"/>
<path d="M30.0155 25.4668C29.3655 25.4668 28.7155 25.4167 28.0655 25.3001C27.3822 25.1834 26.9322 24.5334 27.0489 23.8501C27.1655 23.1667 27.8155 22.7167 28.4989 22.8334C30.5489 23.1834 32.7155 22.8001 34.1655 21.8334C34.9489 21.3168 35.3655 20.6667 35.3655 20.0167C35.3655 19.3667 34.9322 18.7334 34.1655 18.2167C32.7155 17.2501 30.5155 16.8667 28.4489 17.2334C27.7655 17.3667 27.1155 16.9001 26.9989 16.2167C26.8822 15.5334 27.3322 14.8834 28.0155 14.7668C30.7322 14.2834 33.5489 14.8001 35.5489 16.1334C37.0155 17.1167 37.8655 18.5167 37.8655 20.0167C37.8655 21.5001 37.0322 22.9168 35.5489 23.9168C34.0322 24.9168 32.0655 25.4668 30.0155 25.4668Z" fill="#14BDDC"/>
<path d="M9.95078 13.1835C9.93412 13.1835 9.91745 13.1835 9.91745 13.1835C6.91745 13.0835 4.56745 10.6502 4.55078 7.65016C4.55078 4.58349 7.05078 2.0835 10.1008 2.0835C13.1508 2.0835 15.6508 4.5835 15.6508 7.6335C15.6508 10.6502 13.3008 13.0835 10.3008 13.1835L9.95078 11.9335L10.0675 13.1835C10.0341 13.1835 9.98412 13.1835 9.95078 13.1835ZM10.1174 10.6835C10.2174 10.6835 10.3008 10.6835 10.4008 10.7002C11.8841 10.6335 13.1841 9.30016 13.1841 7.65016C13.1841 5.96682 11.8175 4.60015 10.1341 4.60015C8.45079 4.60015 7.08412 5.96682 7.08412 7.65016C7.08412 9.28349 8.35078 10.6002 9.96745 10.7002C9.98411 10.6835 10.0508 10.6835 10.1174 10.6835Z" fill="#14BDDC"/>
<path d="M9.93203 25.4668C7.88203 25.4668 5.91536 24.9168 4.3987 23.9168C2.93203 22.9334 2.08203 21.5167 2.08203 20.0167C2.08203 18.5334 2.93203 17.1167 4.3987 16.1334C6.3987 14.8001 9.21536 14.2834 11.932 14.7668C12.6154 14.8834 13.0654 15.5334 12.9487 16.2167C12.832 16.9001 12.182 17.3667 11.4987 17.2334C9.43203 16.8667 7.2487 17.2501 5.78203 18.2167C4.9987 18.7334 4.58203 19.3667 4.58203 20.0167C4.58203 20.6667 5.01537 21.3168 5.78203 21.8334C7.23203 22.8001 9.3987 23.1834 11.4487 22.8334C12.132 22.7167 12.782 23.1834 12.8987 23.8501C13.0154 24.5334 12.5654 25.1834 11.882 25.3001C11.232 25.4167 10.582 25.4668 9.93203 25.4668Z" fill="#14BDDC"/>
<path d="M19.9979 25.6332C19.9479 25.6332 19.9146 25.6332 19.8646 25.6332H19.7812C16.6312 25.5332 14.2812 23.0998 14.2812 20.0998C14.2812 17.0331 16.7813 14.5498 19.8313 14.5498C22.8813 14.5498 25.3812 17.0498 25.3812 20.0998C25.3646 23.1165 23.0146 25.5498 20.0146 25.6498C20.0146 25.6331 20.0146 25.6332 19.9979 25.6332ZM19.8313 17.0331C18.1479 17.0331 16.7812 18.3998 16.7812 20.0831C16.7812 21.7331 18.0646 23.0665 19.7146 23.1332C19.7313 23.1165 19.8646 23.1165 20.0146 23.1332C21.6312 23.0498 22.8813 21.7165 22.8979 20.0831C22.8979 18.4165 21.5313 17.0331 19.8313 17.0331Z" fill="#14BDDC"/>
<path d="M19.9995 37.9332C17.9995 37.9332 15.9995 37.4166 14.4495 36.3666C12.9828 35.3832 12.1328 33.9832 12.1328 32.4832C12.1328 30.9999 12.9661 29.5665 14.4495 28.5832C17.5661 26.5165 22.4495 26.5165 25.5495 28.5832C27.0161 29.5665 27.8661 30.9665 27.8661 32.4665C27.8661 33.9499 27.0328 35.3832 25.5495 36.3666C23.9995 37.3999 21.9995 37.9332 19.9995 37.9332ZM15.8328 30.6832C15.0495 31.1999 14.6328 31.8499 14.6328 32.4999C14.6328 33.1499 15.0661 33.7832 15.8328 34.2999C18.0828 35.8165 21.8995 35.8165 24.1495 34.2999C24.9328 33.7832 25.3495 33.1332 25.3495 32.4832C25.3495 31.8332 24.9161 31.1999 24.1495 30.6832C21.9161 29.1666 18.0995 29.1832 15.8328 30.6832Z" fill="#14BDDC"/>
</svg>
