<svg width="111" height="110" viewBox="0 0 111 110" fill="none" xmlns="http://www.w3.org/2000/svg">
<path d="M55.4997 58.4378C40.9705 58.4378 29.1455 46.6128 29.1455 32.0837C29.1455 17.5545 40.9705 5.72949 55.4997 5.72949C70.0288 5.72949 81.8538 17.5545 81.8538 32.0837C81.8538 46.6128 70.0288 58.4378 55.4997 58.4378ZM55.4997 12.6045C44.7747 12.6045 36.0205 21.3587 36.0205 32.0837C36.0205 42.8087 44.7747 51.5628 55.4997 51.5628C66.2247 51.5628 74.9788 42.8087 74.9788 32.0837C74.9788 21.3587 66.2247 12.6045 55.4997 12.6045Z" fill="#1FBAD6"/>
<path d="M94.8715 104.271C92.9923 104.271 91.434 102.713 91.434 100.833C91.434 85.0208 75.3007 72.1875 55.5007 72.1875C35.7007 72.1875 19.5674 85.0208 19.5674 100.833C19.5674 102.713 18.009 104.271 16.1299 104.271C14.2507 104.271 12.6924 102.713 12.6924 100.833C12.6924 81.2625 31.8965 65.3125 55.5007 65.3125C79.1049 65.3125 98.309 81.2625 98.309 100.833C98.309 102.713 96.7507 104.271 94.8715 104.271Z" fill="#1FBAD6"/>
</svg>
