<svg width="40" height="40" viewBox="0 0 40 40" fill="none" xmlns="http://www.w3.org/2000/svg">
<path d="M29.9979 13.1839C29.9479 13.1839 29.9146 13.1839 29.8646 13.1839H29.7812C26.6312 13.0839 24.2812 10.6506 24.2812 7.65059C24.2812 4.58392 26.7813 2.10059 29.8313 2.10059C32.8813 2.10059 35.3813 4.60059 35.3813 7.65059C35.3646 10.6673 33.0146 13.1006 30.0146 13.2006C30.0146 13.1839 30.0146 13.1839 29.9979 13.1839ZM29.8313 4.58393C28.1479 4.58393 26.7812 5.9506 26.7812 7.63393C26.7812 9.28393 28.0646 10.6173 29.7146 10.6839C29.7313 10.6673 29.8646 10.6673 30.0146 10.6839C31.6312 10.6006 32.8813 9.26726 32.8979 7.63393C32.8979 5.9506 31.5313 4.58393 29.8313 4.58393Z" fill="#14BDDC"/>
<path d="M30.0155 25.4672C29.3655 25.4672 28.7155 25.4172 28.0655 25.3006C27.3822 25.1839 26.9322 24.5339 27.0489 23.8506C27.1655 23.1672 27.8155 22.7172 28.4989 22.8339C30.5489 23.1839 32.7155 22.8006 34.1655 21.8339C34.9489 21.3173 35.3655 20.6672 35.3655 20.0172C35.3655 19.3672 34.9322 18.7339 34.1655 18.2172C32.7155 17.2506 30.5155 16.8672 28.4489 17.2339C27.7655 17.3672 27.1155 16.9006 26.9989 16.2172C26.8822 15.5339 27.3322 14.8839 28.0155 14.7672C30.7322 14.2839 33.5489 14.8006 35.5489 16.1339C37.0155 17.1172 37.8655 18.5172 37.8655 20.0172C37.8655 21.5006 37.0322 22.9173 35.5489 23.9173C34.0322 24.9173 32.0655 25.4672 30.0155 25.4672Z" fill="#14BDDC"/>
<path d="M9.95078 13.184C9.93412 13.184 9.91745 13.184 9.91745 13.184C6.91745 13.084 4.56745 10.6506 4.55078 7.65064C4.55078 4.58398 7.05078 2.08398 10.1008 2.08398C13.1508 2.08398 15.6508 4.58399 15.6508 7.63399C15.6508 10.6507 13.3008 13.084 10.3008 13.184L9.95078 11.934L10.0675 13.184C10.0341 13.184 9.98412 13.184 9.95078 13.184ZM10.1174 10.684C10.2174 10.684 10.3008 10.684 10.4008 10.7006C11.8841 10.634 13.1841 9.30064 13.1841 7.65064C13.1841 5.96731 11.8175 4.60064 10.1341 4.60064C8.45079 4.60064 7.08412 5.96731 7.08412 7.65064C7.08412 9.28398 8.35078 10.6006 9.96745 10.7006C9.98411 10.684 10.0508 10.684 10.1174 10.684Z" fill="#14BDDC"/>
<path d="M9.93203 25.4672C7.88203 25.4672 5.91536 24.9173 4.3987 23.9173C2.93203 22.9339 2.08203 21.5172 2.08203 20.0172C2.08203 18.5339 2.93203 17.1172 4.3987 16.1339C6.3987 14.8006 9.21536 14.2839 11.932 14.7672C12.6154 14.8839 13.0654 15.5339 12.9487 16.2172C12.832 16.9006 12.182 17.3672 11.4987 17.2339C9.43203 16.8672 7.2487 17.2506 5.78203 18.2172C4.9987 18.7339 4.58203 19.3672 4.58203 20.0172C4.58203 20.6672 5.01537 21.3173 5.78203 21.8339C7.23203 22.8006 9.3987 23.1839 11.4487 22.8339C12.132 22.7172 12.782 23.1839 12.8987 23.8506C13.0154 24.5339 12.5654 25.1839 11.882 25.3006C11.232 25.4172 10.582 25.4672 9.93203 25.4672Z" fill="#14BDDC"/>
<path d="M19.9979 25.6336C19.9479 25.6336 19.9146 25.6336 19.8646 25.6336H19.7812C16.6312 25.5336 14.2812 23.1003 14.2812 20.1003C14.2812 17.0336 16.7813 14.5503 19.8313 14.5503C22.8813 14.5503 25.3812 17.0503 25.3812 20.1003C25.3646 23.117 23.0146 25.5503 20.0146 25.6503C20.0146 25.6336 20.0146 25.6336 19.9979 25.6336ZM19.8313 17.0336C18.1479 17.0336 16.7812 18.4003 16.7812 20.0836C16.7812 21.7336 18.0646 23.067 19.7146 23.1336C19.7313 23.117 19.8646 23.117 20.0146 23.1336C21.6312 23.0503 22.8813 21.717 22.8979 20.0836C22.8979 18.417 21.5313 17.0336 19.8313 17.0336Z" fill="#14BDDC"/>
<path d="M19.9995 37.9337C17.9995 37.9337 15.9995 37.417 14.4495 36.367C12.9828 35.3837 12.1328 33.9837 12.1328 32.4837C12.1328 31.0004 12.9661 29.567 14.4495 28.5837C17.5661 26.517 22.4495 26.517 25.5495 28.5837C27.0161 29.567 27.8661 30.967 27.8661 32.467C27.8661 33.9504 27.0328 35.3837 25.5495 36.367C23.9995 37.4004 21.9995 37.9337 19.9995 37.9337ZM15.8328 30.6837C15.0495 31.2004 14.6328 31.8504 14.6328 32.5004C14.6328 33.1504 15.0661 33.7837 15.8328 34.3004C18.0828 35.817 21.8995 35.817 24.1495 34.3004C24.9328 33.7837 25.3495 33.1337 25.3495 32.4837C25.3495 31.8337 24.9161 31.2004 24.1495 30.6837C21.9162 29.167 18.0995 29.1837 15.8328 30.6837Z" fill="#14BDDC"/>
</svg>
