<svg width="40" height="40" viewBox="0 0 40 40" fill="none" xmlns="http://www.w3.org/2000/svg">
<path d="M29.2654 29.9506H10.732C4.0987 29.9506 2.08203 27.934 2.08203 21.3006V10.734C2.08203 4.10065 4.0987 2.08398 10.732 2.08398H29.2487C35.882 2.08398 37.8987 4.10065 37.8987 10.734V21.284C37.9154 27.934 35.8987 29.9506 29.2654 29.9506ZM10.732 4.58398C5.4987 4.58398 4.58203 5.50065 4.58203 10.734V21.284C4.58203 26.5173 5.4987 27.434 10.732 27.434H29.2487C34.482 27.434 35.3987 26.5173 35.3987 21.284V10.734C35.3987 5.50065 34.482 4.58398 29.2487 4.58398H10.732Z" fill="#14BDDC"/>
<path d="M20 37.9174C19.3167 37.9174 18.75 37.3507 18.75 36.6674V28.7007C18.75 28.0174 19.3167 27.4507 20 27.4507C20.6833 27.4507 21.25 28.0174 21.25 28.7007V36.6674C21.25 37.3507 20.6833 37.9174 20 37.9174Z" fill="#14BDDC"/>
<path d="M36.6654 22.917H3.33203C2.6487 22.917 2.08203 22.3503 2.08203 21.667C2.08203 20.9837 2.6487 20.417 3.33203 20.417H36.6654C37.3487 20.417 37.9154 20.9837 37.9154 21.667C37.9154 22.3503 37.3487 22.917 36.6654 22.917Z" fill="#14BDDC"/>
<path d="M27.5 37.917H12.5C11.8167 37.917 11.25 37.3503 11.25 36.667C11.25 35.9837 11.8167 35.417 12.5 35.417H27.5C28.1833 35.417 28.75 35.9837 28.75 36.667C28.75 37.3503 28.1833 37.917 27.5 37.917Z" fill="#14BDDC"/>
</svg>
