<svg width="1555" height="320" viewBox="0 0 1555 320" fill="none" xmlns="http://www.w3.org/2000/svg">
<path fill-rule="evenodd" clip-rule="evenodd" d="M1077.38 180.211C1073.24 153.33 1057.17 133.521 1025 133.521C995.128 133.521 974.471 150.498 968.95 180.211H1077.38ZM1030.05 260.385C1055.31 260.385 1073.7 250.011 1084.72 239.169L1111.83 268.395C1093.9 286.797 1069.11 300.49 1030.52 300.49C964.35 300.49 921.629 256.614 921.629 197.188C921.629 138.23 966.659 93.9033 1024.53 93.9033C1090.24 93.9033 1127.44 143.895 1124.23 213.226H968.95C974.471 242.001 994.677 260.385 1030.05 260.385Z" fill="white"/>
<path fill-rule="evenodd" clip-rule="evenodd" d="M10.4795 258.232L130.001 136.834H13.2758V98.7319H185.368V137.61L65.8471 259.026H186.974V297.11H10.4795V258.232Z" fill="white"/>
<path fill-rule="evenodd" clip-rule="evenodd" d="M368.481 180.211C364.349 153.33 348.275 133.521 316.108 133.521C286.232 133.521 265.575 150.498 260.055 180.211H368.481ZM321.159 260.385C346.417 260.385 364.8 250.011 375.823 239.169L402.939 268.395C385.006 286.797 360.218 300.49 321.61 300.49C255.454 300.49 212.733 256.614 212.733 197.188C212.733 138.23 257.764 93.9033 315.639 93.9033C381.344 93.9033 418.544 143.895 415.333 213.226H260.055C265.575 242.001 285.781 260.385 321.159 260.385Z" fill="white"/>
<path fill-rule="evenodd" clip-rule="evenodd" d="M841.505 196.911C841.505 161.605 814.823 132.631 778.56 132.631C743.092 132.631 715.598 160.811 715.598 196.911C715.598 233.011 743.092 261.588 778.56 261.588C814.823 261.588 841.505 232.614 841.505 196.911ZM673.382 197.308C673.382 133.822 720.775 94.1499 772.968 94.1499C799.271 94.1499 824.366 105.66 839.106 123.917V6.84985H881.34V296.515H839.106V269.129C823.969 288.577 798.874 300.466 772.571 300.466C721.984 300.466 673.382 260.415 673.382 197.308Z" fill="white"/>
<path fill-rule="evenodd" clip-rule="evenodd" d="M1151.73 254.443L1189.96 234.616C1200.73 252.856 1218.26 263.572 1240.96 263.572C1264.86 263.572 1277.22 251.286 1277.22 237.395C1277.22 221.519 1254.13 217.946 1229.02 212.787C1195.14 205.643 1160.1 194.529 1160.1 153.685C1160.1 122.311 1189.96 93.3558 1236.99 93.7527C1274.03 93.7527 1301.54 108.438 1317.07 132.252L1281.61 151.682C1272.44 137.791 1256.91 129.059 1236.99 129.059C1214.28 129.059 1202.73 140.19 1202.73 152.873C1202.73 167.161 1221.06 171.112 1249.75 177.463C1282.4 184.625 1319.46 195.323 1319.46 236.601C1319.46 263.969 1295.57 300.881 1238.98 300.466C1197.55 300.466 1168.45 283.814 1151.73 254.443Z" fill="white"/>
<path fill-rule="evenodd" clip-rule="evenodd" d="M1434.13 208.425L1400.68 244.922V296.501H1358.45V6.854H1400.68V196.518L1490.31 98.1231H1541.71L1464.01 183.024L1543.71 296.501H1495.9L1434.13 208.425Z" fill="white"/>
<path fill-rule="evenodd" clip-rule="evenodd" d="M545.77 94.1099C495.562 94.1099 453.526 126.638 453.526 180.598V296.511H496.554V185.974C496.554 153.446 515.28 133.962 547.123 133.962C579.019 133.962 594.967 153.446 594.967 185.974V296.511H637.995V180.598C637.995 126.638 595.959 94.1099 545.77 94.1099Z" fill="white"/>
</svg>
