<svg width="96" height="30" viewBox="0 0 96 30" fill="none" xmlns="http://www.w3.org/2000/svg">
<g clip-path="url(#clip0_2016_21793)">
<path d="M50.4529 7.53C50.4529 8.61 49.5856 9.48 48.5089 9.48C47.4323 9.48 46.565 8.61 46.565 7.53C46.565 6.45 47.4024 5.58 48.5089 5.58C49.6155 5.61 50.4529 6.48 50.4529 7.53ZM42.4379 11.46C42.4379 11.64 42.4379 11.94 42.4379 11.94C42.4379 11.94 41.5108 10.74 39.537 10.74C36.2772 10.74 33.7351 13.23 33.7351 16.68C33.7351 20.1 36.2473 22.62 39.537 22.62C41.5407 22.62 42.4379 21.39 42.4379 21.39V21.9C42.4379 22.14 42.6174 22.32 42.8566 22.32H45.279V11.04C45.279 11.04 43.066 11.04 42.8566 11.04C42.6174 11.04 42.4379 11.25 42.4379 11.46ZM42.4379 18.69C41.9893 19.35 41.0921 19.92 40.0155 19.92C38.1015 19.92 36.636 18.72 36.636 16.68C36.636 14.64 38.1015 13.44 40.0155 13.44C41.0622 13.44 42.0192 14.04 42.4379 14.67V18.69ZM47.0734 11.04H49.9445V22.32H47.0734V11.04ZM89.9594 10.74C87.9856 10.74 87.0585 11.94 87.0585 11.94V5.61H84.1875V22.32C84.1875 22.32 86.4005 22.32 86.6099 22.32C86.8491 22.32 87.0286 22.11 87.0286 21.9V21.39C87.0286 21.39 87.9557 22.62 89.9295 22.62C93.1893 22.62 95.7314 20.1 95.7314 16.68C95.7314 13.26 93.1893 10.74 89.9594 10.74ZM89.4809 19.89C88.3744 19.89 87.5071 19.32 87.0585 18.66V14.64C87.5071 14.04 88.4641 13.41 89.4809 13.41C91.3949 13.41 92.8604 14.61 92.8604 16.65C92.8604 18.69 91.3949 19.89 89.4809 19.89ZM82.6921 15.63V22.35H79.8211V15.96C79.8211 14.1 79.223 13.35 77.608 13.35C76.7407 13.35 75.8435 13.8 75.2753 14.46V22.32H72.4043V11.04H74.6772C74.9164 11.04 75.0959 11.25 75.0959 11.46V11.94C75.9332 11.07 77.0398 10.74 78.1463 10.74C79.4024 10.74 80.4491 11.1 81.2865 11.82C82.3033 12.66 82.6921 13.74 82.6921 15.63ZM65.4361 10.74C63.4622 10.74 62.5351 11.94 62.5351 11.94V5.61H59.6641V22.32C59.6641 22.32 61.8772 22.32 62.0865 22.32C62.3258 22.32 62.5052 22.11 62.5052 21.9V21.39C62.5052 21.39 63.4323 22.62 65.4061 22.62C68.666 22.62 71.208 20.1 71.208 16.68C71.2379 13.26 68.6959 10.74 65.4361 10.74ZM64.9575 19.89C63.851 19.89 62.9837 19.32 62.5351 18.66V14.64C62.9837 14.04 63.9407 13.41 64.9575 13.41C66.8716 13.41 68.337 14.61 68.337 16.65C68.337 18.69 66.8716 19.89 64.9575 19.89ZM57.1818 10.74C58.0491 10.74 58.4977 10.89 58.4977 10.89V13.56C58.4977 13.56 56.1052 12.75 54.6099 14.46V22.35H51.7388V11.04C51.7388 11.04 53.9519 11.04 54.1613 11.04C54.4005 11.04 54.58 11.25 54.58 11.46V11.94C55.1183 11.31 56.2846 10.74 57.1818 10.74ZM27.365 21.3C27.2155 20.94 27.066 20.55 26.9164 20.22C26.6772 19.68 26.4379 19.17 26.2286 18.69L26.1987 18.66C24.1351 14.16 21.922 9.6 19.5893 5.1L19.4996 4.92C19.2603 4.47 19.0211 3.99 18.7818 3.51C18.4828 2.97 18.1837 2.4 17.7052 1.86C16.7482 0.66 15.3725 0 13.9071 0C12.4117 0 11.066 0.66 10.079 1.8C9.63044 2.34 9.30147 2.91 9.0024 3.45C8.76315 3.93 8.52389 4.41 8.28464 4.86L8.19492 5.04C5.89212 9.54 3.64913 14.1 1.58559 18.6L1.55568 18.66C1.34633 19.14 1.10708 19.65 0.867828 20.19C0.718295 20.52 0.568763 20.88 0.41923 21.27C0.0304457 22.38 -0.0891805 23.43 0.0603522 24.51C0.389323 26.76 1.88465 28.65 3.94819 29.49C4.72576 29.82 5.53324 29.97 6.37062 29.97C6.60988 29.97 6.90894 29.94 7.14819 29.91C8.13511 29.79 9.15193 29.46 10.1388 28.89C11.365 28.2 12.5314 27.21 13.8473 25.77C15.1631 27.21 16.3594 28.2 17.5557 28.89C18.5426 29.46 19.5594 29.79 20.5463 29.91C20.7856 29.94 21.0846 29.97 21.3239 29.97C22.1613 29.97 22.9987 29.82 23.7463 29.49C25.8398 28.65 27.3052 26.73 27.6342 24.51C27.8734 23.46 27.7538 22.41 27.365 21.3ZM13.8772 22.86C12.2622 20.82 11.2155 18.9 10.8566 17.28C10.7071 16.59 10.6772 15.99 10.7669 15.45C10.8267 14.97 11.0061 14.55 11.2454 14.19C11.8136 13.38 12.7706 12.87 13.8772 12.87C14.9837 12.87 15.9706 13.35 16.5089 14.19C16.7482 14.55 16.9276 14.97 16.9874 15.45C17.0772 15.99 17.0473 16.62 16.8977 17.28C16.5388 18.87 15.4921 20.79 13.8772 22.86ZM25.8099 24.27C25.6005 25.83 24.5538 27.18 23.0884 27.78C22.3706 28.08 21.5931 28.17 20.8155 28.08C20.0678 27.99 19.3202 27.75 18.5426 27.3C17.466 26.7 16.3893 25.77 15.1332 24.39C17.1071 21.96 18.3033 19.74 18.7519 17.76C18.9613 16.83 18.9912 15.99 18.9015 15.21C18.7818 14.46 18.5127 13.77 18.094 13.17C17.1669 11.82 15.6117 11.04 13.8772 11.04C12.1426 11.04 10.5874 11.85 9.66034 13.17C9.24165 13.77 8.97249 14.46 8.85287 15.21C8.73324 15.99 8.76315 16.86 9.0024 17.76C9.451 19.74 10.6772 21.99 12.6211 24.42C11.3949 25.8 10.2884 26.73 9.21174 27.33C8.43417 27.78 7.68651 28.02 6.93885 28.11C6.13137 28.2 5.3538 28.08 4.66595 27.81C3.20053 27.21 2.15381 25.86 1.94446 24.3C1.85474 23.55 1.91456 22.8 2.21362 21.96C2.30334 21.66 2.45288 21.36 2.60241 21C2.81175 20.52 3.051 20.01 3.29025 19.5L3.32016 19.44C5.38371 14.97 7.59679 10.41 9.8996 5.97L9.98932 5.79C10.2286 5.34 10.4678 4.86 10.7071 4.41C10.9463 3.93 11.2155 3.48 11.5445 3.09C12.1725 2.37 13.0099 1.98 13.937 1.98C14.8641 1.98 15.7015 2.37 16.3295 3.09C16.6585 3.48 16.9276 3.93 17.1669 4.41C17.4061 4.86 17.6454 5.34 17.8846 5.79L17.9744 5.97C20.2473 10.44 22.4603 15 24.5239 19.47V19.5C24.7631 19.98 24.9725 20.52 25.2117 21C25.3613 21.36 25.5108 21.66 25.6005 21.96C25.8398 22.74 25.9295 23.49 25.8099 24.27Z" fill="#8F8F8F"/>
</g>
<defs>
<clipPath id="clip0_2016_21793">
<rect width="96" height="30" fill="white"/>
</clipPath>
</defs>
</svg>
