<svg width="208" height="62" viewBox="0 0 208 62" fill="none" xmlns="http://www.w3.org/2000/svg">
<rect width="208" height="62" rx="31" fill="#484A51"/>
<path d="M51.2631 30.0468C51.2786 28.8476 51.5971 27.6717 52.1892 26.6286C52.7812 25.5855 53.6275 24.7091 54.6493 24.0809C54.0002 23.1539 53.1438 22.391 52.1483 21.8528C51.1528 21.3146 50.0454 21.016 48.9143 20.9806C46.5012 20.7272 44.162 22.4243 42.9322 22.4243C41.6789 22.4243 39.7858 21.0057 37.7472 21.0477C36.4285 21.0902 35.1433 21.4737 34.0169 22.1606C32.8905 22.8474 31.9613 23.8144 31.3197 24.9672C28.5406 29.7786 30.6136 36.8495 33.2758 40.7385C34.6077 42.643 36.1642 44.7701 38.2011 44.6947C40.1941 44.6121 40.9385 43.4238 43.3445 43.4238C45.7281 43.4238 46.4265 44.6947 48.5046 44.6467C50.6434 44.6121 51.9908 42.7339 53.276 40.8115C54.233 39.4546 54.9693 37.9549 55.4579 36.368C54.2153 35.8425 53.155 34.9628 52.409 33.8387C51.6631 32.7147 51.2645 31.3959 51.2631 30.0468ZM47.3379 18.4228C48.504 17.023 49.0785 15.2237 48.9394 13.4072C47.1578 13.5943 45.5121 14.4457 44.3303 15.7919C43.7524 16.4495 43.3098 17.2145 43.0278 18.0433C42.7458 18.872 42.63 19.7482 42.6868 20.6218C43.5779 20.631 44.4595 20.4378 45.2652 20.0569C46.0708 19.676 46.7795 19.1173 47.3379 18.4228ZM76.4577 39.8737H69.6561L68.0227 44.6964H65.1416L71.5842 26.8532H74.5774L81.0198 44.6964H78.0897L76.4577 39.8737ZM70.3605 37.6481H75.7519L73.0941 29.8211H73.0197L70.3605 37.6481ZM94.9332 38.1927C94.9332 42.2352 92.7693 44.8325 89.504 44.8325C88.6768 44.8758 87.8541 44.6852 87.1301 44.2827C86.4062 43.8802 85.8102 43.2819 85.4105 42.5565H85.3487V49H82.6783V31.6873H85.2632V33.8511H85.3124C85.7305 33.1291 86.3365 32.534 87.0659 32.129C87.7953 31.724 88.6209 31.5244 89.4548 31.5513C92.7566 31.5513 94.9332 34.1614 94.9332 38.1927ZM92.1883 38.1927C92.1883 35.5589 90.8273 33.8273 88.7504 33.8273C86.71 33.8273 85.3377 35.5952 85.3377 38.1925C85.3377 40.8138 86.71 42.5693 88.7504 42.5693C90.8273 42.5693 92.1883 40.8505 92.1883 38.1927ZM109.252 38.1927C109.252 42.2352 107.088 44.8325 103.823 44.8325C102.996 44.8757 102.173 44.6852 101.449 44.2827C100.725 43.8801 100.129 43.2819 99.7296 42.5565H99.6678V49H96.9974V31.6873H99.5822V33.8511H99.6313C100.049 33.1291 100.655 32.534 101.385 32.129C102.114 31.724 102.94 31.5244 103.774 31.5513C107.076 31.5513 109.252 34.1614 109.252 38.1927ZM106.507 38.1927C106.507 35.5589 105.146 33.8273 103.069 33.8273C101.029 33.8273 99.6566 35.5952 99.6566 38.1925C99.6566 40.8138 101.029 42.5693 103.069 42.5693C105.146 42.5693 106.507 40.8505 106.507 38.1927ZM118.716 39.7249C118.914 41.4943 120.633 42.6562 122.982 42.6562C125.233 42.6562 126.852 41.4943 126.852 39.8988C126.852 38.5138 125.875 37.6846 123.563 37.1163L121.25 36.5592C117.974 35.7678 116.452 34.2355 116.452 31.749C116.452 28.6703 119.135 26.5558 122.945 26.5558C126.716 26.5558 129.301 28.6703 129.388 31.749H126.692C126.531 29.9684 125.059 28.8935 122.907 28.8935C120.756 28.8935 119.284 29.981 119.284 31.5638C119.284 32.8253 120.224 33.5676 122.524 34.1358L124.49 34.6186C128.151 35.4843 129.673 36.9549 129.673 39.5647C129.673 42.903 127.013 44.9938 122.784 44.9938C118.827 44.9938 116.155 42.952 115.982 39.7248L118.716 39.7249ZM135.436 28.6088V31.6873H137.91V33.802H135.436V40.9737C135.436 42.0879 135.931 42.607 137.019 42.607C137.312 42.6019 137.606 42.5813 137.897 42.5453V44.6474C137.408 44.7387 136.911 44.78 136.414 44.7707C133.78 44.7707 132.753 43.7815 132.753 41.2585V33.802H130.861V31.6873H132.753V28.6088H135.436ZM139.343 38.1927C139.343 34.0994 141.753 31.5274 145.513 31.5274C149.285 31.5274 151.684 34.0994 151.684 38.1927C151.684 42.297 149.297 44.8578 145.513 44.8578C141.73 44.8578 139.343 42.297 139.343 38.1927ZM148.963 38.1927C148.963 35.3849 147.677 33.7276 145.513 33.7276C143.349 33.7276 142.063 35.3974 142.063 38.1927C142.063 41.0117 143.349 42.6562 145.513 42.6562C147.677 42.6562 148.963 41.0117 148.963 38.1927ZM153.886 31.6873H156.433V33.9016H156.495C156.667 33.21 157.072 32.5989 157.642 32.1708C158.212 31.7428 158.912 31.524 159.624 31.5513C159.932 31.5502 160.239 31.5836 160.539 31.6508V34.1486C160.151 34.0299 159.745 33.9754 159.339 33.9872C158.951 33.9715 158.564 34.0399 158.205 34.1877C157.846 34.3355 157.524 34.5593 157.259 34.8436C156.995 35.128 156.795 35.4662 156.674 35.835C156.553 36.2038 156.513 36.5945 156.557 36.9802V44.6964H153.886V31.6873ZM172.851 40.8755C172.492 43.2371 170.192 44.8578 167.249 44.8578C163.465 44.8578 161.116 42.3222 161.116 38.2543C161.116 34.1739 163.477 31.5274 167.137 31.5274C170.737 31.5274 173 33.9998 173 37.9442V38.8591H163.811V39.0204C163.769 39.4992 163.829 39.9815 163.987 40.4354C164.146 40.8892 164.399 41.3041 164.73 41.6527C165.061 42.0012 165.462 42.2753 165.907 42.4568C166.352 42.6383 166.831 42.723 167.311 42.7053C167.942 42.7645 168.576 42.6183 169.117 42.2886C169.658 41.9589 170.079 41.4633 170.316 40.8755H172.851ZM163.824 36.9929H170.328C170.352 36.5624 170.287 36.1316 170.136 35.7275C169.986 35.3234 169.754 34.9548 169.454 34.6448C169.154 34.3347 168.794 34.09 168.395 33.9259C167.997 33.7617 167.568 33.6818 167.137 33.6911C166.702 33.6885 166.271 33.772 165.869 33.9369C165.466 34.1018 165.101 34.3447 164.793 34.6517C164.485 34.9587 164.24 35.3236 164.074 35.7254C163.908 36.1273 163.823 36.558 163.824 36.9929ZM70.0258 13.4226C70.5857 13.3824 71.1475 13.467 71.6707 13.6702C72.1939 13.8734 72.6655 14.1902 73.0515 14.5978C73.4374 15.0053 73.7281 15.4935 73.9025 16.0269C74.077 16.5604 74.1308 17.126 74.0602 17.6828C74.0602 20.4218 72.5797 21.9963 70.0258 21.9963H66.9287V13.4224L70.0258 13.4226ZM68.2605 20.7837H69.8771C70.2771 20.8076 70.6775 20.742 71.049 20.5917C71.4205 20.4414 71.7538 20.2101 72.0246 19.9147C72.2954 19.6193 72.497 19.2673 72.6146 18.8842C72.7323 18.5011 72.763 18.0966 72.7046 17.7002C72.7588 17.3053 72.7249 16.9033 72.6055 16.523C72.4861 16.1427 72.284 15.7936 72.0138 15.5005C71.7435 15.2075 71.4118 14.9779 71.0424 14.8281C70.673 14.6783 70.2751 14.6121 69.8771 14.6342H68.2605V20.7837ZM75.5645 18.7583C75.5238 18.3331 75.5725 17.9041 75.7073 17.4988C75.8422 17.0935 76.0602 16.7208 76.3475 16.4047C76.6348 16.0886 76.985 15.8361 77.3757 15.6633C77.7663 15.4904 78.1887 15.4012 78.6159 15.4012C79.0431 15.4012 79.4655 15.4904 79.8562 15.6633C80.2468 15.8361 80.597 16.0886 80.8843 16.4047C81.1716 16.7208 81.3897 17.0935 81.5245 17.4988C81.6593 17.9041 81.708 18.3331 81.6673 18.7583C81.7088 19.184 81.6609 19.6137 81.5264 20.0197C81.392 20.4258 81.1741 20.7992 80.8867 21.116C80.5993 21.4328 80.2488 21.686 79.8577 21.8592C79.4667 22.0325 79.0436 22.122 78.6159 22.122C78.1882 22.122 77.7651 22.0325 77.3741 21.8592C76.983 21.686 76.6325 21.4328 76.3451 21.116C76.0577 20.7992 75.8398 20.4258 75.7054 20.0197C75.5709 19.6137 75.523 19.184 75.5645 18.7583ZM80.3539 18.7583C80.3539 17.3558 79.7238 16.5356 78.6181 16.5356C77.508 16.5356 76.8837 17.3558 76.8837 18.7583C76.8837 20.172 77.5082 20.9859 78.6181 20.9859C79.7238 20.9859 80.3539 20.1664 80.3539 18.7583ZM89.7797 21.9962H88.4548L87.1176 17.2309H87.0166L85.685 21.9962H84.3729L82.5894 15.5259H83.8845L85.0437 20.463H85.1391L86.4694 15.5259H87.6944L89.0247 20.463H89.1258L90.2792 15.5259H91.5562L89.7797 21.9962ZM93.0563 15.526H94.2856V16.5538H94.381C94.5428 16.1846 94.8159 15.8752 95.162 15.6685C95.5081 15.4619 95.9101 15.3684 96.312 15.401C96.6268 15.3774 96.9429 15.4248 97.2369 15.5399C97.5309 15.655 97.7952 15.8348 98.0103 16.0659C98.2254 16.297 98.3857 16.5735 98.4794 16.875C98.5731 17.1765 98.5978 17.4952 98.5516 17.8075V21.996H97.2746V18.1282C97.2746 17.0885 96.8226 16.5714 95.8783 16.5714C95.6645 16.5614 95.4511 16.5978 95.2528 16.678C95.0544 16.7583 94.8757 16.8804 94.729 17.0362C94.5822 17.1919 94.4709 17.3775 94.4026 17.5803C94.3343 17.7831 94.3106 17.9982 94.3333 18.211V21.9962H93.0563V15.526ZM100.586 13.0001H101.863V21.9962H100.586V13.0001ZM103.638 18.7583C103.598 18.333 103.646 17.904 103.781 17.4986C103.916 17.0933 104.134 16.7206 104.421 16.4044C104.709 16.0883 105.059 15.8357 105.45 15.6629C105.84 15.49 106.263 15.4007 106.69 15.4007C107.117 15.4007 107.54 15.49 107.931 15.6629C108.321 15.8357 108.672 16.0883 108.959 16.4044C109.246 16.7206 109.464 17.0933 109.599 17.4986C109.734 17.904 109.783 18.333 109.742 18.7583C109.783 19.1839 109.735 19.6135 109.601 20.0194C109.466 20.4253 109.248 20.7986 108.961 21.1153C108.673 21.432 108.323 21.685 107.932 21.8582C107.541 22.0313 107.118 22.1208 106.69 22.1208C106.263 22.1208 105.84 22.0313 105.449 21.8582C105.058 21.685 104.707 21.432 104.42 21.1153C104.132 20.7986 103.914 20.4253 103.78 20.0194C103.645 19.6135 103.597 19.1839 103.638 18.7583ZM108.428 18.7583C108.428 17.3558 107.798 16.5356 106.692 16.5356C105.582 16.5356 104.958 17.3558 104.958 18.7583C104.958 20.172 105.582 20.9859 106.692 20.9859C107.798 20.9859 108.428 20.1664 108.428 18.7583ZM111.086 20.1664C111.086 19.0017 111.953 18.3302 113.493 18.2348L115.246 18.1338V17.5753C115.246 16.8919 114.794 16.5061 113.921 16.5061C113.208 16.5061 112.714 16.7678 112.572 17.2253H111.336C111.466 16.1139 112.512 15.4012 113.98 15.4012C115.602 15.4012 116.517 16.2087 116.517 17.5753V21.9962H115.288V21.0869H115.187C114.982 21.4131 114.694 21.6789 114.352 21.8574C114.011 22.0359 113.628 22.1206 113.243 22.1028C112.971 22.131 112.697 22.102 112.437 22.0177C112.177 21.9334 111.938 21.7955 111.735 21.6131C111.532 21.4307 111.369 21.2077 111.257 20.9585C111.146 20.7093 111.087 20.4395 111.086 20.1664ZM115.246 19.6135V19.0725L113.665 19.1736C112.774 19.2332 112.37 19.5364 112.37 20.1067C112.37 20.689 112.875 21.028 113.57 21.028C113.774 21.0486 113.979 21.028 114.175 20.9676C114.37 20.9071 114.551 20.8079 114.708 20.6759C114.864 20.544 114.992 20.3819 115.085 20.1994C115.177 20.0169 115.232 19.8176 115.246 19.6135ZM118.195 18.7583C118.195 16.7138 119.246 15.4187 120.881 15.4187C121.285 15.4001 121.687 15.4969 122.038 15.6979C122.39 15.8989 122.676 16.1958 122.865 16.5538H122.961V13H124.238V21.996H123.014V20.9737H122.913C122.71 21.3293 122.413 21.6225 122.055 21.8215C121.696 22.0205 121.291 22.1177 120.881 22.1026C119.235 22.1026 118.195 20.8076 118.195 18.7583ZM119.514 18.7583C119.514 20.1305 120.161 20.9564 121.243 20.9564C122.319 20.9564 122.985 20.1187 122.985 18.7638C122.985 17.4154 122.312 16.5658 121.243 16.5658C120.168 16.5658 119.514 17.3971 119.514 18.7583ZM129.521 18.7583C129.48 18.3331 129.529 17.9041 129.664 17.4988C129.799 17.0935 130.017 16.7208 130.304 16.4047C130.591 16.0886 130.942 15.8361 131.332 15.6633C131.723 15.4904 132.145 15.4012 132.572 15.4012C133 15.4012 133.422 15.4904 133.813 15.6633C134.203 15.8361 134.553 16.0886 134.841 16.4047C135.128 16.7208 135.346 17.0935 135.481 17.4988C135.616 17.9041 135.664 18.3331 135.624 18.7583C135.665 19.184 135.617 19.6137 135.483 20.0197C135.348 20.4258 135.131 20.7992 134.843 21.116C134.556 21.4328 134.205 21.686 133.814 21.8592C133.423 22.0325 133 22.122 132.572 22.122C132.145 22.122 131.722 22.0325 131.331 21.8592C130.939 21.686 130.589 21.4328 130.302 21.116C130.014 20.7992 129.796 20.4258 129.662 20.0197C129.527 19.6137 129.479 19.184 129.521 18.7583ZM134.31 18.7583C134.31 17.3558 133.68 16.5356 132.575 16.5356C131.465 16.5356 130.84 17.3558 130.84 18.7583C130.84 20.172 131.465 20.9859 132.575 20.9859C133.68 20.9859 134.31 20.1664 134.31 18.7583ZM137.337 15.526H138.566V16.5538H138.662C138.824 16.1846 139.097 15.8752 139.443 15.6685C139.789 15.4619 140.191 15.3684 140.593 15.401C140.908 15.3774 141.224 15.4248 141.518 15.5399C141.812 15.655 142.076 15.8348 142.291 16.0659C142.506 16.297 142.667 16.5735 142.76 16.875C142.854 17.1765 142.879 17.4952 142.833 17.8075V21.996H141.555V18.1282C141.555 17.0885 141.104 16.5714 140.159 16.5714C139.945 16.5614 139.732 16.5978 139.534 16.678C139.335 16.7583 139.157 16.8804 139.01 17.0362C138.863 17.1919 138.752 17.3775 138.684 17.5803C138.615 17.7831 138.592 17.9982 138.614 18.211V21.9962H137.337L137.337 15.526ZM150.048 13.9151V15.5555H151.45V16.631H150.048V19.9579C150.048 20.6357 150.327 20.9326 150.963 20.9326C151.126 20.932 151.288 20.9221 151.45 20.903V21.9667C151.221 22.0077 150.988 22.0295 150.755 22.0319C149.335 22.0319 148.77 21.5323 148.77 20.285V16.631H147.743V15.5553H148.77V13.9153L150.048 13.9151ZM153.194 13.0001H154.46V16.5658H154.561C154.731 16.1931 155.011 15.8819 155.364 15.6745C155.717 15.467 156.126 15.3735 156.534 15.4066C156.847 15.3896 157.16 15.4419 157.451 15.5598C157.742 15.6777 158.003 15.8582 158.216 16.0886C158.428 16.319 158.588 16.5936 158.682 16.8927C158.777 17.1917 158.804 17.508 158.762 17.8189V21.9962H157.484V18.1338C157.484 17.1003 157.003 16.577 156.1 16.577C155.881 16.559 155.66 16.5892 155.454 16.6654C155.247 16.7416 155.06 16.8621 154.904 17.0183C154.749 17.1746 154.63 17.3628 154.555 17.5699C154.48 17.777 154.452 17.998 154.471 18.2173V21.9962H153.194V13.0001ZM166.208 20.2491C166.035 20.8404 165.659 21.3519 165.146 21.6942C164.634 22.0364 164.017 22.1875 163.404 22.121C162.978 22.1323 162.555 22.0506 162.163 21.8818C161.771 21.7129 161.421 21.4608 161.137 21.1431C160.852 20.8253 160.641 20.4495 160.516 20.0417C160.391 19.6339 160.357 19.2038 160.415 18.7814C160.359 18.3577 160.394 17.9267 160.518 17.5177C160.642 17.1086 160.853 16.731 161.136 16.4105C161.419 16.0899 161.767 15.8339 162.158 15.6598C162.548 15.4856 162.971 15.3974 163.399 15.401C165.199 15.401 166.285 16.631 166.285 18.6627V19.1083H161.716V19.1799C161.696 19.4173 161.726 19.6563 161.804 19.8815C161.882 20.1068 162.006 20.3133 162.168 20.4878C162.33 20.6623 162.527 20.801 162.746 20.8949C162.965 20.9889 163.201 21.0361 163.44 21.0334C163.745 21.0701 164.054 21.0151 164.329 20.8755C164.603 20.7358 164.829 20.5177 164.979 20.2491H166.208ZM161.716 18.164H164.985C165.001 17.9468 164.971 17.7287 164.898 17.5237C164.825 17.3186 164.709 17.1311 164.559 16.9733C164.409 16.8154 164.228 16.6907 164.027 16.6071C163.826 16.5235 163.61 16.4829 163.392 16.4879C163.171 16.4851 162.952 16.5266 162.747 16.6098C162.543 16.6931 162.357 16.8164 162.201 16.9727C162.044 17.1289 161.921 17.3147 161.838 17.5194C161.755 17.724 161.713 17.9432 161.716 18.164Z" fill="white"/>
</svg>
