<svg width="165" height="49" viewBox="0 0 165 49" fill="none" xmlns="http://www.w3.org/2000/svg">
<rect width="164.327" height="48.9822" rx="24.4911" fill="white"/>
<path d="M40.4998 23.7381C40.512 22.7906 40.7637 21.8617 41.2314 21.0376C41.6992 20.2135 42.3677 19.5211 43.175 19.0248C42.6622 18.2925 41.9856 17.6897 41.1991 17.2646C40.4126 16.8394 39.5378 16.6034 38.6441 16.5754C36.7377 16.3753 34.8896 17.7161 33.9181 17.7161C32.928 17.7161 31.4323 16.5953 29.8217 16.6285C28.7799 16.6621 27.7646 16.965 26.8747 17.5077C25.9848 18.0503 25.2506 18.8143 24.7438 19.725C22.5482 23.5262 24.1859 29.1124 26.2892 32.1849C27.3414 33.6895 28.5711 35.37 30.1803 35.3104C31.7549 35.2452 32.343 34.3064 34.2438 34.3064C36.1269 34.3064 36.6787 35.3104 38.3205 35.2725C40.0102 35.2452 41.0747 33.7614 42.09 32.2426C42.8461 31.1706 43.4278 29.9858 43.8138 28.732C42.8321 28.3169 41.9944 27.6219 41.4051 26.7339C40.8158 25.8458 40.5009 24.8039 40.4998 23.7381ZM37.3988 14.5547C38.32 13.4488 38.7739 12.0273 38.664 10.5922C37.2565 10.74 35.9563 11.4127 35.0226 12.4762C34.5661 12.9957 34.2164 13.6001 33.9936 14.2549C33.7708 14.9096 33.6793 15.6018 33.7242 16.292C34.4282 16.2992 35.1247 16.1467 35.7612 15.8457C36.3977 15.5448 36.9576 15.1034 37.3988 14.5547ZM60.4044 31.5017H55.0309L53.7405 35.3118H51.4643L56.5542 21.2151H58.9189L64.0086 35.3118H61.6937L60.4044 31.5017ZM55.5874 29.7434H59.8468L57.7471 23.5598H57.6883L55.5874 29.7434ZM75.0007 30.1736C75.0007 33.3673 73.2912 35.4193 70.7114 35.4193C70.0579 35.4535 69.408 35.303 68.836 34.985C68.2641 34.667 67.7933 34.1943 67.4775 33.6212H67.4286V38.7118H65.3189V25.0342H67.3611V26.7436H67.3999C67.7302 26.1732 68.209 25.7031 68.7853 25.3831C69.3616 25.0632 70.0138 24.9054 70.6726 24.9267C73.2812 24.9267 75.0007 26.9887 75.0007 30.1736ZM72.8322 30.1736C72.8322 28.0928 71.7569 26.7248 70.1161 26.7248C68.5041 26.7248 67.4199 28.1215 67.4199 30.1735C67.4199 32.2444 68.5041 33.6313 70.1161 33.6313C71.7569 33.6313 72.8322 32.2734 72.8322 30.1736ZM86.3132 30.1736C86.3132 33.3673 84.6037 35.4193 82.0239 35.4193C81.3704 35.4535 80.7205 35.3029 80.1485 34.9849C79.5766 34.6669 79.1058 34.1943 78.79 33.6212H78.7412V38.7118H76.6315V25.0342H78.6736V26.7436H78.7124C79.0427 26.1732 79.5214 25.7031 80.0977 25.3831C80.674 25.0632 81.3263 24.9054 81.9851 24.9267C84.5937 24.9267 86.3132 26.9887 86.3132 30.1736ZM84.1447 30.1736C84.1447 28.0928 83.0693 26.7248 81.4286 26.7248C79.8165 26.7248 78.7324 28.1215 78.7324 30.1735C78.7324 32.2444 79.8165 33.6313 81.4286 33.6313C83.0693 33.6313 84.1447 32.2734 84.1447 30.1736ZM93.7899 31.3842C93.9462 32.782 95.3043 33.6999 97.1601 33.6999C98.9383 33.6999 100.218 32.782 100.218 31.5215C100.218 30.4273 99.4461 29.7722 97.6192 29.3232L95.792 28.8831C93.2034 28.2579 92.0016 27.0473 92.0016 25.0829C92.0016 22.6506 94.1214 20.9801 97.1312 20.9801C100.11 20.9801 102.152 22.6506 102.221 25.0829H100.091C99.9638 23.6761 98.8008 22.8269 97.1013 22.8269C95.4018 22.8269 94.2389 23.6861 94.2389 24.9365C94.2389 25.9332 94.9817 26.5197 96.7986 26.9685L98.3518 27.3499C101.244 28.0339 102.446 29.1958 102.446 31.2576C102.446 33.895 100.345 35.5468 97.0037 35.5468C93.8773 35.5468 91.7665 33.9337 91.6302 31.3841L93.7899 31.3842ZM106.999 22.602V25.0342H108.954V26.7048H106.999V32.3708C106.999 33.251 107.391 33.6611 108.25 33.6611C108.482 33.6571 108.713 33.6408 108.944 33.6123V35.2731C108.557 35.3452 108.165 35.3778 107.772 35.3705C105.691 35.3705 104.879 34.589 104.879 32.5957V26.7048H103.385V25.0342H104.879V22.602H106.999ZM110.086 30.1736C110.086 26.9398 111.99 24.9078 114.96 24.9078C117.94 24.9078 119.836 26.9398 119.836 30.1736C119.836 33.4161 117.95 35.4393 114.96 35.4393C111.971 35.4393 110.086 33.4161 110.086 30.1736ZM117.686 30.1736C117.686 27.9553 116.67 26.646 114.96 26.646C113.251 26.646 112.235 27.9652 112.235 30.1736C112.235 32.4007 113.251 33.6999 114.96 33.6999C116.67 33.6999 117.686 32.4007 117.686 30.1736ZM121.575 25.0342H123.588V26.7835H123.637C123.773 26.2371 124.093 25.7543 124.543 25.4162C124.993 25.078 125.546 24.9052 126.109 24.9267C126.352 24.9258 126.594 24.9522 126.832 25.0053V26.9786C126.525 26.8848 126.205 26.8418 125.884 26.8511C125.577 26.8387 125.272 26.8927 124.988 27.0095C124.704 27.1263 124.449 27.3031 124.241 27.5278C124.032 27.7524 123.874 28.0196 123.778 28.311C123.682 28.6023 123.651 28.911 123.685 29.2157V35.3118H121.575V25.0342ZM136.559 32.2931C136.275 34.1589 134.458 35.4393 132.133 35.4393C129.143 35.4393 127.287 33.4361 127.287 30.2223C127.287 26.9986 129.153 24.9078 132.044 24.9078C134.888 24.9078 136.676 26.8611 136.676 29.9773V30.7001H129.417V30.8276C129.383 31.2058 129.431 31.5869 129.556 31.9454C129.681 32.304 129.881 32.6318 130.142 32.9071C130.404 33.1825 130.721 33.399 131.073 33.5424C131.424 33.6858 131.802 33.7527 132.182 33.7388C132.68 33.7855 133.181 33.67 133.608 33.4096C134.036 33.1491 134.368 32.7575 134.556 32.2931H136.559ZM129.427 29.2257H134.565C134.584 28.8856 134.533 28.5453 134.414 28.226C134.295 27.9068 134.112 27.6156 133.875 27.3706C133.638 27.1257 133.353 26.9323 133.038 26.8027C132.723 26.673 132.385 26.6099 132.044 26.6172C131.701 26.6151 131.36 26.6812 131.042 26.8114C130.724 26.9417 130.435 27.1336 130.192 27.3761C129.949 27.6186 129.756 27.9069 129.625 28.2244C129.493 28.5419 129.426 28.8822 129.427 29.2257ZM55.323 10.6044C55.7653 10.5726 56.2091 10.6394 56.6225 10.8C57.0359 10.9605 57.4084 11.2108 57.7134 11.5328C58.0183 11.8548 58.2479 12.2404 58.3857 12.6619C58.5235 13.0834 58.5661 13.5302 58.5103 13.9701C58.5103 16.134 57.3407 17.3779 55.323 17.3779H52.8762V10.6043L55.323 10.6044ZM53.9283 16.4199H55.2055C55.5215 16.4388 55.8378 16.387 56.1313 16.2682C56.4248 16.1494 56.6881 15.9667 56.9021 15.7334C57.1161 15.5 57.2753 15.2219 57.3683 14.9192C57.4612 14.6166 57.4855 14.297 57.4393 13.9838C57.4821 13.6718 57.4554 13.3542 57.361 13.0538C57.2667 12.7534 57.107 12.4775 56.8935 12.246C56.6801 12.0145 56.418 11.8331 56.1262 11.7148C55.8343 11.5964 55.5199 11.5441 55.2055 11.5616H53.9283V16.4199ZM59.6988 14.8198C59.6666 14.4838 59.7051 14.1449 59.8116 13.8247C59.9181 13.5045 60.0904 13.2101 60.3174 12.9604C60.5443 12.7107 60.821 12.5111 61.1296 12.3746C61.4382 12.238 61.772 12.1675 62.1095 12.1675C62.4469 12.1675 62.7807 12.238 63.0893 12.3746C63.3979 12.5111 63.6746 12.7107 63.9016 12.9604C64.1286 13.2101 64.3008 13.5045 64.4074 13.8247C64.5139 14.1449 64.5523 14.4838 64.5202 14.8198C64.553 15.1561 64.5151 15.4955 64.4089 15.8163C64.3027 16.1371 64.1305 16.4322 63.9035 16.6824C63.6764 16.9327 63.3995 17.1327 63.0906 17.2696C62.7816 17.4065 62.4474 17.4772 62.1095 17.4772C61.7715 17.4772 61.4373 17.4065 61.1284 17.2696C60.8194 17.1327 60.5425 16.9327 60.3154 16.6824C60.0884 16.4322 59.9162 16.1371 59.81 15.8163C59.7038 15.4955 59.6659 15.1561 59.6988 14.8198ZM63.4825 14.8198C63.4825 13.7117 62.9847 13.0637 62.1112 13.0637C61.2342 13.0637 60.7409 13.7117 60.7409 14.8198C60.7409 15.9367 61.2343 16.5796 62.1112 16.5796C62.9847 16.5796 63.4825 15.9322 63.4825 14.8198ZM70.9293 17.3778H69.8826L68.8261 13.6131H68.7463L67.6943 17.3778H66.6577L65.2486 12.266H66.2718L67.1876 16.1665H67.263L68.314 12.266H69.2818L70.3328 16.1665H70.4126L71.3239 12.266H72.3328L70.9293 17.3778ZM73.5179 12.2662H74.4891V13.0782H74.5644C74.6923 12.7865 74.908 12.542 75.1815 12.3787C75.4549 12.2155 75.7725 12.1416 76.09 12.1674C76.3387 12.1487 76.5885 12.1862 76.8207 12.2771C77.053 12.3681 77.2618 12.5101 77.4317 12.6927C77.6017 12.8753 77.7283 13.0937 77.8024 13.3319C77.8764 13.5701 77.8959 13.8219 77.8594 14.0686V17.3777H76.8505V14.322C76.8505 13.5006 76.4934 13.092 75.7474 13.092C75.5785 13.0842 75.4099 13.1129 75.2532 13.1763C75.0965 13.2397 74.9553 13.3362 74.8394 13.4592C74.7234 13.5822 74.6355 13.7289 74.5815 13.8891C74.5276 14.0493 74.5089 14.2193 74.5267 14.3874V17.3778H73.5179V12.2662ZM79.4669 10.2706H80.4756V17.3778H79.4669V10.2706ZM81.8781 14.8198C81.846 14.4838 81.8844 14.1448 81.9909 13.8246C82.0975 13.5043 82.2698 13.2099 82.4968 12.9601C82.7238 12.7104 83.0005 12.5108 83.3092 12.3743C83.6178 12.2377 83.9516 12.1672 84.2891 12.1672C84.6267 12.1672 84.9605 12.2377 85.2691 12.3743C85.5778 12.5108 85.8545 12.7104 86.0815 12.9601C86.3085 13.2099 86.4808 13.5043 86.5874 13.8246C86.6939 14.1448 86.7323 14.4838 86.7002 14.8198C86.7328 15.156 86.6948 15.4954 86.5885 15.8161C86.4822 16.1368 86.31 16.4317 86.0829 16.6819C85.8559 16.9321 85.579 17.132 85.2701 17.2688C84.9611 17.4056 84.627 17.4763 84.2891 17.4763C83.9513 17.4763 83.6172 17.4056 83.3082 17.2688C82.9993 17.132 82.7224 16.9321 82.4954 16.6819C82.2683 16.4317 82.0961 16.1368 81.9898 15.8161C81.8835 15.4954 81.8454 15.156 81.8781 14.8198ZM85.6619 14.8198C85.6619 13.7117 85.1641 13.0637 84.2905 13.0637C83.4135 13.0637 82.9203 13.7117 82.9203 14.8198C82.9203 15.9367 83.4136 16.5796 84.2905 16.5796C85.1641 16.5796 85.6619 15.9322 85.6619 14.8198ZM87.7622 15.9322C87.7622 15.0121 88.4473 14.4816 89.6635 14.4062L91.0482 14.3264V13.8852C91.0482 13.3453 90.6912 13.0405 90.0017 13.0405C89.4385 13.0405 89.0482 13.2472 88.9363 13.6086H87.9595C88.0626 12.7306 88.8886 12.1675 90.0482 12.1675C91.3298 12.1675 92.0526 12.8055 92.0526 13.8852V17.3778H91.0814V16.6594H91.0016C90.8396 16.9171 90.6121 17.1272 90.3423 17.2682C90.0726 17.4092 89.7703 17.4761 89.4662 17.462C89.2516 17.4843 89.0347 17.4614 88.8295 17.3948C88.6243 17.3282 88.4353 17.2193 88.2748 17.0752C88.1142 16.931 87.9857 16.7549 87.8974 16.558C87.8091 16.3612 87.7631 16.148 87.7622 15.9322ZM91.0482 15.4954V15.068L89.7998 15.1478C89.0959 15.1949 88.7765 15.4345 88.7765 15.885C88.7765 16.3451 89.1757 16.6129 89.7245 16.6129C89.8853 16.6292 90.0477 16.6129 90.2021 16.5652C90.3565 16.5174 90.4997 16.439 90.6232 16.3348C90.7467 16.2305 90.848 16.1025 90.921 15.9583C90.994 15.8141 91.0372 15.6567 91.0482 15.4954ZM93.3786 14.8198C93.3786 13.2045 94.2089 12.1814 95.5005 12.1814C95.8199 12.1666 96.137 12.2431 96.4146 12.402C96.6922 12.5608 96.9189 12.7953 97.0681 13.0782H97.1435V10.2705H98.1523V17.3777H97.1856V16.57H97.1058C96.9451 16.8509 96.7105 17.0826 96.4276 17.2398C96.1446 17.397 95.8241 17.4738 95.5006 17.4619C94.2 17.4619 93.3786 16.4388 93.3786 14.8198ZM94.4207 14.8198C94.4207 15.9039 94.9318 16.5564 95.7864 16.5564C96.6367 16.5564 97.1623 15.8946 97.1623 14.8241C97.1623 13.7588 96.6313 13.0876 95.7864 13.0876C94.9373 13.0876 94.4207 13.7444 94.4207 14.8198ZM102.326 14.8198C102.294 14.4838 102.333 14.1449 102.439 13.8247C102.546 13.5045 102.718 13.2101 102.945 12.9604C103.172 12.7107 103.449 12.5111 103.757 12.3746C104.066 12.238 104.4 12.1675 104.737 12.1675C105.074 12.1675 105.408 12.238 105.717 12.3746C106.025 12.5111 106.302 12.7107 106.529 12.9604C106.756 13.2101 106.928 13.5045 107.035 13.8247C107.141 14.1449 107.18 14.4838 107.148 14.8198C107.181 15.1561 107.143 15.4955 107.036 15.8163C106.93 16.1371 106.758 16.4322 106.531 16.6824C106.304 16.9327 106.027 17.1327 105.718 17.2696C105.409 17.4065 105.075 17.4772 104.737 17.4772C104.399 17.4772 104.065 17.4065 103.756 17.2696C103.447 17.1327 103.17 16.9327 102.943 16.6824C102.716 16.4322 102.544 16.1371 102.438 15.8163C102.331 15.4955 102.293 15.1561 102.326 14.8198ZM106.11 14.8198C106.11 13.7117 105.612 13.0637 104.739 13.0637C103.862 13.0637 103.368 13.7117 103.368 14.8198C103.368 15.9367 103.862 16.5796 104.739 16.5796C105.612 16.5796 106.11 15.9322 106.11 14.8198ZM108.501 12.2662H109.473V13.0782H109.548C109.676 12.7865 109.892 12.542 110.165 12.3787C110.438 12.2155 110.756 12.1416 111.073 12.1674C111.322 12.1487 111.572 12.1862 111.804 12.2771C112.036 12.3681 112.245 12.5101 112.415 12.6927C112.585 12.8753 112.712 13.0937 112.786 13.3319C112.86 13.5701 112.879 13.8219 112.843 14.0686V17.3777H111.834V14.322C111.834 13.5006 111.477 13.092 110.731 13.092C110.562 13.0842 110.393 13.1129 110.237 13.1763C110.08 13.2397 109.939 13.3362 109.823 13.4592C109.707 13.5822 109.619 13.7289 109.565 13.8891C109.511 14.0493 109.492 14.2193 109.51 14.3874V17.3778H108.501L108.501 12.2662ZM118.543 10.9935V12.2894H119.651V13.1391H118.543V15.7675C118.543 16.303 118.764 16.5375 119.266 16.5375C119.395 16.5371 119.523 16.5293 119.651 16.5141V17.3545C119.47 17.3869 119.286 17.4042 119.102 17.4061C117.98 17.4061 117.533 17.0114 117.533 16.0259V13.1391H116.722V12.2893H117.533V10.9936L118.543 10.9935ZM121.029 10.2706H122.029V13.0876H122.109C122.243 12.7932 122.465 12.5473 122.743 12.3834C123.022 12.2196 123.345 12.1457 123.668 12.1718C123.915 12.1584 124.162 12.1997 124.392 12.2928C124.622 12.3859 124.828 12.5286 124.996 12.7106C125.164 12.8927 125.29 13.1096 125.365 13.3458C125.439 13.5821 125.461 13.832 125.428 14.0776V17.3778H124.418V14.3264C124.418 13.5099 124.038 13.0964 123.325 13.0964C123.152 13.0822 122.977 13.1061 122.814 13.1663C122.651 13.2265 122.503 13.3217 122.38 13.4451C122.258 13.5686 122.163 13.7173 122.104 13.8809C122.045 14.0445 122.022 14.2191 122.038 14.3924V17.3778H121.029V10.2706ZM131.311 15.9975C131.173 16.4647 130.877 16.8688 130.472 17.1392C130.067 17.4096 129.58 17.5289 129.095 17.4764C128.759 17.4853 128.424 17.4208 128.115 17.2874C127.805 17.154 127.529 16.9549 127.304 16.7038C127.079 16.4528 126.912 16.1559 126.814 15.8337C126.715 15.5115 126.688 15.1718 126.734 14.838C126.689 14.5033 126.717 14.1628 126.815 13.8396C126.913 13.5164 127.08 13.2181 127.303 12.9649C127.527 12.7117 127.802 12.5094 128.11 12.3718C128.419 12.2342 128.753 12.1645 129.091 12.1674C130.513 12.1674 131.372 13.1391 131.372 14.7443V15.0963H127.762V15.1528C127.746 15.3404 127.77 15.5292 127.831 15.7072C127.892 15.8851 127.99 16.0482 128.119 16.1861C128.247 16.324 128.402 16.4336 128.575 16.5078C128.748 16.582 128.935 16.6193 129.123 16.6172C129.364 16.6462 129.609 16.6027 129.826 16.4924C130.042 16.3821 130.221 16.2098 130.339 15.9975H131.311ZM127.762 14.3503H130.344C130.356 14.1787 130.333 14.0064 130.275 13.8444C130.217 13.6824 130.126 13.5342 130.008 13.4095C129.889 13.2848 129.746 13.1863 129.587 13.1202C129.428 13.0542 129.257 13.0221 129.085 13.0261C128.911 13.0239 128.738 13.0566 128.576 13.1224C128.415 13.1882 128.268 13.2856 128.144 13.409C128.021 13.5325 127.924 13.6793 127.858 13.841C127.792 14.0026 127.76 14.1758 127.762 14.3503Z" fill="black"/>
</svg>
