<svg width="36" height="36" viewBox="0 0 50 50" fill="none" xmlns="http://www.w3.org/2000/svg">
<path d="M31.1888 47.3962H18.6888C7.3763 47.3962 2.54297 42.5628 2.54297 31.2503V18.7503C2.54297 7.43783 7.3763 2.60449 18.6888 2.60449H22.8555C23.7096 2.60449 24.418 3.31283 24.418 4.16699C24.418 5.02116 23.7096 5.72949 22.8555 5.72949H18.6888C9.08463 5.72949 5.66797 9.14616 5.66797 18.7503V31.2503C5.66797 40.8545 9.08463 44.2712 18.6888 44.2712H31.1888C40.793 44.2712 44.2096 40.8545 44.2096 31.2503V27.0837C44.2096 26.2295 44.918 25.5212 45.7721 25.5212C46.6263 25.5212 47.3346 26.2295 47.3346 27.0837V31.2503C47.3346 42.5628 42.5221 47.3962 31.1888 47.3962Z" fill="#14BDDC"/>
<path d="M26.6258 31.7498C26.3133 31.7498 26.0216 31.6664 25.7508 31.4789C25.3133 31.1873 25.0633 30.7081 25.0633 30.1873C25.0633 29.9581 25.0425 29.7081 25.0008 29.4581C24.855 28.3539 24.355 27.3748 23.5216 26.5206C22.6675 25.6664 21.6258 25.1248 20.48 24.9789C20.3133 24.9581 20.0425 24.9373 19.7925 24.9581C19.2716 24.9998 18.7508 24.7706 18.4383 24.3539C18.1258 23.9373 18.0425 23.3748 18.2091 22.8748C18.4591 22.1664 18.855 21.4998 19.3133 20.9789L21.8758 17.7706C26.3341 12.2081 35.3133 5.54143 41.9383 2.8956C43.4591 2.31227 45.0633 2.6456 46.1675 3.74977C47.3133 4.8956 47.6466 6.5206 47.0425 7.99977C44.3966 14.6039 37.73 23.6039 32.1883 28.0414L28.9175 30.6664C28.2716 31.1248 27.7508 31.4373 27.2091 31.6456C27.0216 31.7081 26.8133 31.7498 26.6258 31.7498ZM22.3341 22.2289C23.605 22.6456 24.7508 23.3539 25.73 24.3123C26.6883 25.2706 27.3758 26.3748 27.7716 27.5623L30.23 25.5831C35.4175 21.4164 41.6675 12.9998 44.1466 6.81227C44.3133 6.41643 44.1258 6.12477 43.9591 5.93727C43.855 5.8331 43.5633 5.60393 43.0841 5.79143C36.9175 8.2706 28.5008 14.5206 24.3341 19.7081L22.3341 22.2289Z" fill="#14BDDC"/>
<path d="M16.0417 39.0623C14.7084 39.0623 13.4376 38.5415 12.4792 37.5832C11.3751 36.479 10.8334 34.9582 11.0209 33.3957L11.4584 29.3123C11.9167 25.0832 15.3542 21.9582 19.6667 21.8748C20.0001 21.854 20.4167 21.8748 20.8126 21.8957C22.7084 22.1457 24.3959 22.979 25.7292 24.3332C27.0626 25.6665 27.8751 27.2498 28.1042 29.0415C28.1667 29.4373 28.1876 29.8332 28.1876 30.2082C28.1876 32.479 27.3126 34.6248 25.7084 36.229C24.3959 37.5415 22.6876 38.354 20.7501 38.604L16.6251 39.0415C16.4167 39.0623 16.2292 39.0623 16.0417 39.0623ZM20.0001 24.979C19.9376 24.979 19.8542 24.979 19.7917 24.979C17.3959 25.0415 14.8751 26.6457 14.5626 29.6457L14.1251 33.7498C14.0626 34.354 14.2709 34.9582 14.6876 35.3748C15.1042 35.7915 15.6876 35.9998 16.2709 35.9373L20.3751 35.4998C21.5834 35.354 22.6667 34.8332 23.4792 34.0207C24.4792 32.9998 25.0417 31.6665 25.0417 30.2082C25.0417 29.979 25.0209 29.729 24.9792 29.479C24.8334 28.3748 24.3334 27.3957 23.5001 26.5415C22.6459 25.6873 21.6042 25.1457 20.4584 24.9998C20.3542 24.979 20.1876 24.979 20.0001 24.979Z" fill="#14BDDC"/>
<path d="M32.9583 26.5208C32.1042 26.5208 31.3958 25.8125 31.3958 24.9583C31.3958 21.4792 28.5625 18.625 25.0625 18.625C24.2083 18.625 23.5 17.9167 23.5 17.0625C23.5 16.2083 24.2083 15.5 25.0625 15.5C30.2708 15.5 34.5208 19.7292 34.5208 24.9583C34.5208 25.8125 33.8333 26.5208 32.9583 26.5208Z" fill="#14BDDC"/>
</svg>
