<svg width="80" height="80" viewBox="0 0 80 80" fill="none" xmlns="http://www.w3.org/2000/svg">
<path d="M58.1665 75.8337C54.3998 75.8337 50.4332 74.9337 46.3332 73.2003C42.3332 71.5003 38.2998 69.167 34.3665 66.3337C30.4665 63.467 26.6998 60.267 23.1332 56.767C19.5998 53.2003 16.3998 49.4337 13.5665 45.567C10.6998 41.567 8.39984 37.567 6.7665 33.7003C5.03317 29.567 4.1665 25.567 4.1665 21.8003C4.1665 19.2003 4.63317 16.7337 5.53317 14.4337C6.4665 12.067 7.9665 9.86699 9.99984 7.96699C12.5665 5.43366 15.4998 4.16699 18.6332 4.16699C19.9332 4.16699 21.2665 4.46699 22.3998 5.00033C23.6998 5.60033 24.7998 6.50033 25.5998 7.70033L33.3332 18.6003C34.0332 19.567 34.5665 20.5003 34.9332 21.4337C35.3665 22.4337 35.5998 23.4337 35.5998 24.4003C35.5998 25.667 35.2332 26.9003 34.5332 28.067C34.0332 28.967 33.2665 29.9337 32.2998 30.9003L30.0332 33.267C30.0665 33.367 30.0998 33.4337 30.1332 33.5003C30.5332 34.2003 31.3332 35.4003 32.8665 37.2003C34.4998 39.067 36.0332 40.767 37.5665 42.3337C39.5332 44.267 41.1665 45.8003 42.6998 47.067C44.5998 48.667 45.8332 49.467 46.5665 49.8337L46.4998 50.0003L48.9332 47.6003C49.9665 46.567 50.9665 45.8003 51.9332 45.3003C53.7665 44.167 56.0998 43.967 58.4332 44.9337C59.2998 45.3003 60.2332 45.8003 61.2332 46.5003L72.2998 54.367C73.5332 55.2003 74.4332 56.267 74.9665 57.5337C75.4665 58.8003 75.6998 59.967 75.6998 61.1337C75.6998 62.7337 75.3332 64.3337 74.6332 65.8337C73.9332 67.3337 73.0665 68.6337 71.9665 69.8337C70.0665 71.9337 67.9998 73.4337 65.5998 74.4003C63.2998 75.3337 60.7998 75.8337 58.1665 75.8337ZM18.6332 9.16699C16.7998 9.16699 15.0998 9.96699 13.4665 11.567C11.9332 13.0003 10.8665 14.567 10.1998 16.267C9.49984 18.0003 9.1665 19.8337 9.1665 21.8003C9.1665 24.9003 9.89984 28.267 11.3665 31.7337C12.8665 35.267 14.9665 38.9337 17.6332 42.6003C20.2998 46.267 23.3332 49.8337 26.6665 53.2003C29.9998 56.5003 33.5998 59.567 37.2998 62.267C40.8998 64.9003 44.5998 67.0337 48.2665 68.567C53.9665 71.0003 59.2998 71.567 63.6998 69.7337C65.3998 69.0337 66.8998 67.967 68.2665 66.4337C69.0332 65.6003 69.6332 64.7003 70.1332 63.6337C70.5332 62.8003 70.7332 61.9337 70.7332 61.067C70.7332 60.5337 70.6332 60.0003 70.3665 59.4003C70.2665 59.2003 70.0665 58.8337 69.4332 58.4003L58.3665 50.5337C57.6998 50.067 57.0998 49.7337 56.5332 49.5003C55.7998 49.2003 55.4998 48.9003 54.3665 49.6003C53.6998 49.9337 53.0998 50.4337 52.4332 51.1003L49.8998 53.6003C48.5998 54.867 46.5998 55.167 45.0665 54.6003L44.1665 54.2003C42.7998 53.467 41.1998 52.3337 39.4332 50.8337C37.8332 49.467 36.0998 47.867 33.9998 45.8003C32.3665 44.1337 30.7332 42.367 29.0332 40.4003C27.4665 38.567 26.3332 37.0003 25.6332 35.7003L25.2332 34.7003C25.0332 33.9337 24.9665 33.5003 24.9665 33.0337C24.9665 31.8337 25.3998 30.767 26.2332 29.9337L28.7332 27.3337C29.3998 26.667 29.8998 26.0337 30.2332 25.467C30.4998 25.0337 30.5998 24.667 30.5998 24.3337C30.5998 24.067 30.4998 23.667 30.3332 23.267C30.0998 22.7337 29.7332 22.1337 29.2665 21.5003L21.5332 10.567C21.1998 10.1003 20.7998 9.76699 20.2998 9.53366C19.7665 9.30033 19.1998 9.16699 18.6332 9.16699ZM46.4998 50.0337L45.9665 52.3003L46.8665 49.967C46.6998 49.9337 46.5665 49.967 46.4998 50.0337Z" fill="#1FBAD6"/>
<path d="M61.6667 32.4997C60.3 32.4997 59.1667 31.3663 59.1667 29.9997C59.1667 28.7997 57.9667 26.2997 55.9667 24.1663C54 22.0663 51.8333 20.833 50 20.833C48.6333 20.833 47.5 19.6997 47.5 18.333C47.5 16.9663 48.6333 15.833 50 15.833C53.2333 15.833 56.6333 17.5663 59.6 20.733C62.3667 23.6997 64.1667 27.333 64.1667 29.9997C64.1667 31.3663 63.0333 32.4997 61.6667 32.4997Z" fill="#1FBAD6"/>
<path d="M73.3333 32.5003C71.9667 32.5003 70.8333 31.367 70.8333 30.0003C70.8333 18.5003 61.5 9.16699 50 9.16699C48.6333 9.16699 47.5 8.03366 47.5 6.66699C47.5 5.30033 48.6333 4.16699 50 4.16699C64.2333 4.16699 75.8333 15.767 75.8333 30.0003C75.8333 31.367 74.7 32.5003 73.3333 32.5003Z" fill="#1FBAD6"/>
</svg>
