<svg width="24" height="25" viewBox="0 0 24 25" fill="none" xmlns="http://www.w3.org/2000/svg">
<path d="M14.5 9.75H2C1.59 9.75 1.25 9.41 1.25 9C1.25 8.59 1.59 8.25 2 8.25H14.5C14.91 8.25 15.25 8.59 15.25 9C15.25 9.41 14.91 9.75 14.5 9.75Z" fill="#1FBAD6"/>
<path d="M8 17.75H6C5.59 17.75 5.25 17.41 5.25 17C5.25 16.59 5.59 16.25 6 16.25H8C8.41 16.25 8.75 16.59 8.75 17C8.75 17.41 8.41 17.75 8 17.75Z" fill="#1FBAD6"/>
<path d="M14.5 17.75H10.5C10.09 17.75 9.75 17.41 9.75 17C9.75 16.59 10.09 16.25 10.5 16.25H14.5C14.91 16.25 15.25 16.59 15.25 17C15.25 17.41 14.91 17.75 14.5 17.75Z" fill="#1FBAD6"/>
<path d="M17.56 21.75H6.44C2.46 21.75 1.25 20.55 1.25 16.61V8.39C1.25 4.45 2.46 3.25 6.44 3.25H14.5C14.91 3.25 15.25 3.59 15.25 4C15.25 4.41 14.91 4.75 14.5 4.75H6.44C3.3 4.75 2.75 5.29 2.75 8.39V16.6C2.75 19.7 3.3 20.24 6.44 20.24H17.55C20.69 20.24 21.24 19.7 21.24 16.6V14.52C21.24 14.11 21.58 13.77 21.99 13.77C22.4 13.77 22.74 14.11 22.74 14.52V16.6C22.75 20.55 21.54 21.75 17.56 21.75Z" fill="#1FBAD6"/>
<path d="M20 10.75C19.9 10.75 19.81 10.73 19.71 10.69C19.43 10.57 19.25 10.3 19.25 10V4C19.25 3.59 19.59 3.25 20 3.25C20.41 3.25 20.75 3.59 20.75 4V8.19L21.47 7.47C21.76 7.18 22.24 7.18 22.53 7.47C22.82 7.76 22.82 8.24 22.53 8.53L20.53 10.53C20.39 10.67 20.2 10.75 20 10.75Z" fill="#1FBAD6"/>
<path d="M19.9999 10.7504C19.8099 10.7504 19.6199 10.6804 19.4699 10.5304L17.4699 8.53043C17.1799 8.24043 17.1799 7.76043 17.4699 7.47043C17.7599 7.18043 18.2399 7.18043 18.5299 7.47043L20.5299 9.47043C20.8199 9.76043 20.8199 10.2404 20.5299 10.5304C20.3799 10.6804 20.1899 10.7504 19.9999 10.7504Z" fill="#1FBAD6"/>
</svg>
