<svg width="126" height="34" viewBox="0 0 126 34" fill="none" xmlns="http://www.w3.org/2000/svg">
<path d="M55.4005 12.9434C54.9805 12.3506 54.3995 11.8985 53.7305 11.644C53.0435 11.3605 52.3719 11.2188 51.7156 11.2188C50.8772 11.2188 50.1137 11.3763 49.4276 11.6913C48.7535 11.9969 48.1462 12.4388 47.6417 12.9907C47.145 13.5565 46.7568 14.2138 46.4977 14.9279C46.2328 15.7019 46.1012 16.5174 46.1087 17.3377C46.1087 18.2512 46.2381 19.0859 46.4977 19.8419C46.7371 20.5622 47.11 21.2278 47.5958 21.802C48.0853 22.3388 48.6777 22.7654 49.3357 23.055C50.0073 23.3542 50.7623 23.5038 51.6016 23.5038C52.4715 23.5038 53.2419 23.3306 53.9135 22.9841C54.5842 22.6218 55.1264 22.1493 55.5384 21.5666L57.8503 23.244C57.1442 24.1641 56.2439 24.9073 55.2175 25.4175C54.1799 25.9215 52.9669 26.1735 51.5786 26.1735C50.312 26.1735 49.145 25.9608 48.0767 25.5347C47.061 25.1192 46.1353 24.5012 45.3528 23.7165C44.5836 22.9185 43.9771 21.9707 43.5687 20.9287C43.1414 19.8419 42.9277 18.6449 42.9277 17.3377C42.9277 15.9989 43.149 14.7941 43.5917 13.7231C44.0496 12.6363 44.6676 11.7149 45.4456 10.958C46.2552 10.1922 47.204 9.59838 48.2376 9.21066C49.3059 8.8012 50.4661 8.59645 51.7165 8.59645C52.2357 8.59645 52.7771 8.65157 53.3423 8.76182C53.9067 8.85632 54.4489 9.01382 54.9673 9.23429C55.4865 9.43904 55.9742 9.69804 56.4314 10.013C56.8893 10.328 57.2783 10.7069 57.5992 11.1479L55.4005 12.9434ZM59.5502 7.8877H62.297V25.7482H59.5502V7.8877ZM73.3645 18.9442C73.3645 18.5819 73.3117 18.2354 73.2045 17.9047C73.1171 17.5816 72.9607 17.2827 72.7465 17.0297C72.5207 16.7694 72.2384 16.5673 71.9225 16.4399C71.6025 16.2824 71.2211 16.2037 70.7785 16.2037C69.9545 16.2037 69.2523 16.4636 68.6726 16.9824C68.1083 17.4873 67.7959 18.1409 67.7346 18.9442H73.3645ZM76.1114 20.2199V20.5979C76.1114 20.724 76.1037 20.8499 76.0884 20.976H67.7346C67.7652 21.3855 67.864 21.7635 68.0325 22.11C68.2147 22.4407 68.4513 22.7312 68.7416 22.9841C69.031 23.2203 69.3595 23.4093 69.7256 23.5511C70.0916 23.6928 70.4729 23.7637 70.8704 23.7637C71.5565 23.7637 72.1362 23.6377 72.6095 23.3857C73.0765 23.1234 73.4765 22.751 73.7765 22.299L75.6074 23.811C74.5247 25.323 72.9525 26.079 70.8926 26.079C70.0388 26.079 69.2523 25.9451 68.5347 25.6765C67.8423 25.4083 67.2056 25.0074 66.6587 24.4952C66.1285 23.9746 65.7078 23.3477 65.4227 22.6533C65.1333 21.9131 64.9886 21.0783 64.9886 20.1491C64.9886 19.2356 65.1333 18.4078 65.4227 17.6684C65.7283 16.9124 66.1403 16.2746 66.6587 15.7548C67.1788 15.2184 67.8025 14.7999 68.4896 14.5263C69.2245 14.2236 70.0098 14.0711 70.8015 14.0774C71.5642 14.0774 72.2656 14.2113 72.9074 14.4791C73.5524 14.7234 74.1325 15.1199 74.6013 15.6367C75.0737 16.1407 75.4397 16.7786 75.6994 17.5503C75.9743 18.3063 76.1114 19.1953 76.1114 20.2191V20.2199ZM85.4576 24.3062H85.3896C85.1146 24.8111 84.672 25.2285 84.0617 25.5592C83.4513 25.8742 82.7568 26.0317 81.9787 26.0317C81.5361 26.0317 81.0714 25.9687 80.5828 25.8427C80.1118 25.7334 79.6626 25.5416 79.2549 25.2757C78.8523 24.9858 78.51 24.6164 78.2479 24.189C77.9883 23.7322 77.8589 23.1731 77.8589 22.5116C77.8589 21.6611 78.0879 20.9838 78.5458 20.4798C79.0191 19.9758 79.6217 19.5899 80.3538 19.3222C81.0858 19.0544 81.8945 18.8812 82.7797 18.8024C83.6541 18.7093 84.5326 18.662 85.4117 18.6607V18.3772C85.4117 17.6684 85.1606 17.1487 84.6567 16.8179C84.1681 16.4714 83.5807 16.2982 82.8947 16.2982C82.3175 16.2975 81.7472 16.4265 81.2237 16.6762C80.6892 16.9282 80.2465 17.2353 79.8958 17.5976L78.4769 15.8729C79.0971 15.2775 79.8294 14.8189 80.6287 14.5254C81.429 14.2308 82.2726 14.0793 83.1228 14.0774C84.1 14.0774 84.901 14.2192 85.5266 14.5027C86.1676 14.7862 86.6706 15.1563 87.0366 15.6131C87.4027 16.0698 87.6546 16.5817 87.7925 17.1487C87.9449 17.7157 88.0215 18.2827 88.0215 18.8497V25.7482H85.4568V24.3062H85.4576ZM85.4117 20.5743H84.7937C84.3511 20.5743 83.8863 20.5979 83.3977 20.6443C82.9386 20.6705 82.4847 20.7582 82.0477 20.9051C81.6357 21.0311 81.2918 21.2201 81.0177 21.4721C80.7428 21.7083 80.6057 22.0391 80.6057 22.4643C80.6057 22.7321 80.6594 22.9605 80.7658 23.1495C80.8875 23.3227 81.0407 23.4645 81.2237 23.5747C81.4067 23.685 81.6127 23.7637 81.8417 23.811C82.0707 23.8582 82.2997 23.881 82.5278 23.881C83.4743 23.881 84.191 23.622 84.6796 23.1022C85.1682 22.5825 85.4117 21.8737 85.4117 20.976V20.5735V20.5743ZM91.2212 14.4082H93.8531V16.2982H93.8991C94.186 15.6592 94.6277 15.1063 95.181 14.6917C95.7301 14.2822 96.371 14.0774 97.1031 14.0774C97.2103 14.0774 97.3244 14.0853 97.4461 14.1011C97.5687 14.1011 97.6759 14.1168 97.767 14.1483V16.7471C97.6087 16.7047 97.4478 16.6731 97.2861 16.6526C97.1644 16.6369 97.0426 16.629 96.9201 16.6289C96.2944 16.6289 95.7905 16.7471 95.4092 16.9833C95.0533 17.1948 94.7486 17.4854 94.5171 17.8338C94.3128 18.142 94.1655 18.486 94.0821 18.8488C94.0055 19.1962 93.9672 19.4718 93.9672 19.6766V25.7482H91.2212V14.4082ZM102.35 7.8877V15.8493H102.419C102.557 15.6603 102.732 15.4634 102.946 15.2587C103.159 15.0539 103.411 14.8649 103.701 14.6917C104.034 14.5069 104.388 14.3641 104.754 14.2664C105.192 14.1345 105.647 14.0708 106.104 14.0774C106.882 14.0774 107.599 14.2349 108.256 14.5499C108.911 14.8492 109.476 15.2666 109.95 15.8012C110.431 16.3521 110.804 16.994 111.048 17.6912C111.311 18.4412 111.443 19.2335 111.437 20.0309C111.442 20.8358 111.31 21.6353 111.048 22.3935C110.814 23.0978 110.449 23.7481 109.972 24.3071C109.499 24.8541 108.922 25.2963 108.278 25.6065C107.622 25.9215 106.874 26.079 106.035 26.079C105.274 26.0827 104.521 25.9048 103.839 25.5592C103.18 25.2248 102.63 24.6991 102.259 24.0472H102.213V25.7482H99.6039V7.8877H102.351H102.35ZM108.645 20.0309C108.645 19.5899 108.577 19.1559 108.439 18.7316C108.323 18.304 108.129 17.9029 107.867 17.5503C107.604 17.2011 107.267 16.9183 106.882 16.7234C106.485 16.5029 106.02 16.3927 105.486 16.3927C104.983 16.3927 104.532 16.5029 104.136 16.7234C103.739 16.9439 103.395 17.2274 103.106 17.5739C102.827 17.9269 102.61 18.3265 102.465 18.7552C102.33 19.1825 102.261 19.6289 102.259 20.0782C102.259 20.5192 102.327 20.9602 102.465 21.4012C102.618 21.8265 102.831 22.2123 103.106 22.5588C103.395 22.9053 103.739 23.1888 104.136 23.4093C104.532 23.6141 104.983 23.7156 105.486 23.7156C106.02 23.7156 106.485 23.6062 106.882 23.3857C107.265 23.1772 107.601 22.8873 107.867 22.5352C108.125 22.1887 108.316 21.795 108.439 21.354C108.574 20.9267 108.643 20.4803 108.645 20.0309ZM114.132 14.4082H116.878V25.7482H114.132V14.4082ZM113.743 10.5573C113.743 10.1005 113.903 9.70679 114.223 9.37604C114.559 9.02957 114.979 8.85632 115.482 8.85632C115.985 8.85632 116.405 9.0217 116.741 9.35241C117.091 9.66742 117.267 10.069 117.267 10.5573C117.267 11.0455 117.091 11.455 116.741 11.7858C116.405 12.1008 115.985 12.2583 115.482 12.2583C114.979 12.2583 114.559 12.092 114.223 11.7622C114.069 11.6038 113.948 11.4158 113.866 11.209C113.783 11.0022 113.742 10.7808 113.743 10.5573ZM118.631 16.6762V14.4082H120.555V11.1243H123.255V14.4082H126V16.6762H123.254V21.9437C123.254 22.4486 123.338 22.866 123.506 23.1967C123.689 23.5275 124.085 23.6928 124.696 23.6928C124.879 23.6928 125.077 23.6771 125.291 23.6456C125.504 23.5983 125.695 23.5353 125.863 23.4566L125.955 25.6773C125.673 25.7811 125.382 25.8524 125.085 25.89C124.75 25.953 124.43 25.9845 124.123 25.9845C123.391 25.9845 122.796 25.8821 122.338 25.6773C121.881 25.4568 121.514 25.1655 121.24 24.8023C120.978 24.4182 120.791 23.9852 120.69 23.5275C120.596 23.0134 120.551 22.4913 120.554 21.9682V16.6762H118.63H118.631Z" fill="#8F8F8F"/>
<g filter="url(#filter0_f_2016_21796)">
<path d="M22.8817 31H10.2447L9.72882 30.9958C7.59501 30.9601 6.74627 30.6929 5.89109 30.2208C4.97014 29.7124 4.24736 28.9664 3.75483 28.0158L3.65282 27.8116C3.24257 26.9562 3.0177 26.0121 3.001 23.7944L3 10.478C3 7.87773 3.26229 6.93481 3.75483 5.9842C4.24736 5.03359 4.97014 4.28753 5.89109 3.77914L6.08891 3.67385C6.91759 3.25038 7.83218 3.01826 9.98087 3.00103L22.8817 3C25.4008 3 26.3143 3.27074 27.2353 3.77914C28.1563 4.28753 28.879 5.03359 29.3715 5.9842L29.4735 6.18839C29.8838 7.04376 30.1087 7.9878 30.1254 10.2056L30.1264 23.522L30.1224 24.0544C30.0878 26.257 29.8289 27.1331 29.3715 28.0158C28.879 28.9664 28.1563 29.7124 27.2353 30.2208L27.0374 30.3262C26.1757 30.7666 25.2209 31 22.8817 31Z" fill="#686868"/>
</g>
<path d="M30.1257 17V23.522C30.1257 26.1223 29.8634 27.0652 29.3708 28.0158C28.8783 28.9664 28.1556 29.7125 27.2346 30.2209C26.3136 30.7292 25.4001 31 22.881 31H16.5625V17H30.1257Z" fill="#C6C6C6"/>
<path d="M16.5625 3H22.881C25.4001 3 26.3136 3.27074 27.2346 3.77914C28.1556 4.28753 28.8783 5.03358 29.3708 5.9842C29.8634 6.93481 30.1257 7.87773 30.1257 10.4779V17H16.5625V3Z" fill="#686868"/>
<path d="M10.2447 3H16.5632V31H10.2447C7.72555 31 6.81205 30.7292 5.89109 30.2208C4.97014 29.7124 4.24736 28.9664 3.75483 28.0158C3.26229 27.0651 3 26.1222 3 23.522V10.478C3 7.87773 3.26229 6.93481 3.75483 5.9842C4.24736 5.03359 4.97014 4.28753 5.89109 3.77914C6.81205 3.27074 7.72555 3 10.2447 3Z" fill="#8F8F8F"/>
<defs>
<filter id="filter0_f_2016_21796" x="0.28576" y="0.28576" width="32.5545" height="33.4285" filterUnits="userSpaceOnUse" color-interpolation-filters="sRGB">
<feFlood flood-opacity="0" result="BackgroundImageFix"/>
<feBlend mode="normal" in="SourceGraphic" in2="BackgroundImageFix" result="shape"/>
<feGaussianBlur stdDeviation="1.35712" result="effect1_foregroundBlur_2016_21796"/>
</filter>
</defs>
</svg>
