<svg width="210" height="63" viewBox="0 0 210 63" fill="none" xmlns="http://www.w3.org/2000/svg">
<rect width="210" height="62.3402" rx="31.1701" fill="#484A51"/>
<path d="M152.645 42.7458H154.918V27.4942H152.645L152.645 42.7458ZM173.117 32.9882L170.511 39.6005H170.433L167.729 32.9881H165.281L169.336 42.2301L167.024 47.3709H169.395L175.644 32.9881L173.117 32.9882ZM160.227 41.0136C159.482 41.0136 158.444 40.6408 158.444 39.7182C158.444 38.541 159.738 38.0898 160.853 38.0898C161.853 38.0898 162.322 38.3056 162.93 38.6002C162.754 40.0127 161.539 41.0136 160.227 41.0136ZM160.501 32.6545C158.856 32.6545 157.152 33.3807 156.446 34.9897L158.464 35.8332C158.895 34.9897 159.697 34.7147 160.54 34.7147C161.716 34.7147 162.911 35.4215 162.93 36.6772V36.8341C162.518 36.5986 161.638 36.2454 160.56 36.2454C158.386 36.2454 156.171 37.4421 156.171 39.6791C156.171 41.7198 157.954 43.0346 159.952 43.0346C161.481 43.0346 162.322 42.3479 162.852 41.5435H162.93V42.7206H165.124V36.873C165.124 34.1657 163.107 32.6545 160.501 32.6545ZM146.455 34.8448H143.222V29.6169H146.455C148.154 29.6169 149.119 31.026 149.119 32.2308C149.119 33.4127 148.154 34.8448 146.455 34.8448ZM146.396 27.4942H140.95V42.7458H143.222V36.9675H146.396C148.915 36.9675 151.392 35.1407 151.392 32.2308C151.392 29.3209 148.915 27.4942 146.396 27.4942ZM116.699 41.0163C115.129 41.0163 113.814 39.6996 113.814 37.891C113.814 36.0635 115.129 34.7266 116.699 34.7266C118.249 34.7266 119.466 36.0634 119.466 37.891C119.466 39.6996 118.249 41.0163 116.699 41.0163ZM119.309 33.8422H119.23C118.72 33.233 117.739 32.6827 116.503 32.6827C113.912 32.6827 111.538 34.9625 111.538 37.891C111.538 40.8 113.912 43.0604 116.503 43.0604C117.739 43.0604 118.72 42.5099 119.23 41.8813H119.309V42.6281C119.309 44.6136 118.249 45.6749 116.542 45.6749C115.149 45.6749 114.286 44.6721 113.932 43.8271L111.95 44.6526C112.519 46.0284 114.03 47.7189 116.542 47.7189C119.211 47.7189 121.468 46.1461 121.468 42.3136V32.9972H119.309V33.8422ZM123.037 42.7458H125.314V27.4936H123.037V42.7458ZM128.669 37.7142C128.61 35.7093 130.22 34.6875 131.377 34.6875C132.28 34.6875 133.045 35.1393 133.3 35.7885L128.669 37.7142ZM135.734 35.9847C135.302 34.8247 133.987 32.6827 131.299 32.6827C128.63 32.6827 126.413 34.7857 126.413 37.8715C126.413 40.7805 128.61 43.0604 131.554 43.0604C133.928 43.0604 135.302 41.6058 135.871 40.7608L134.105 39.5813C133.517 40.4463 132.712 41.0163 131.554 41.0163C130.396 41.0163 129.572 40.4855 129.042 39.4441L135.969 36.5743L135.734 35.9847ZM80.5462 34.2748V36.4761H85.8051C85.6481 37.7142 85.236 38.6183 84.608 39.2473C83.8429 40.0141 82.6459 40.8591 80.5461 40.8591C77.3082 40.8591 74.777 38.2451 74.777 35.002C74.777 31.759 77.3082 29.1446 80.5462 29.1446C82.2928 29.1446 83.5679 29.8327 84.5099 30.7172L86.0601 29.1646C84.7455 27.9064 82.9989 26.9434 80.5462 26.9434C76.1112 26.9434 72.3828 30.56 72.3828 35.002C72.3828 39.4441 76.1112 43.0604 80.5462 43.0604C82.9404 43.0604 84.7455 42.2745 86.1582 40.8C87.6104 39.3455 88.0619 37.3015 88.0619 35.6507C88.0619 35.1393 88.0228 34.668 87.9438 34.2748H80.5462ZM94.0408 41.0163C92.4706 41.0163 91.1165 39.7191 91.1165 37.8715C91.1165 36.0042 92.4706 34.7266 94.0408 34.7266C95.6103 34.7266 96.9644 36.0042 96.9644 37.8715C96.9644 39.7191 95.6103 41.0163 94.0408 41.0163ZM94.0408 32.6827C91.1754 32.6827 88.8402 34.8643 88.8402 37.8715C88.8402 40.8591 91.1754 43.0604 94.0408 43.0604C96.9055 43.0604 99.2407 40.8591 99.2407 37.8715C99.2407 34.8643 96.9055 32.6827 94.0408 32.6827ZM105.385 41.0163C103.815 41.0163 102.461 39.7191 102.461 37.8715C102.461 36.0042 103.815 34.7266 105.385 34.7266C106.954 34.7266 108.308 36.0042 108.308 37.8715C108.308 39.7191 106.954 41.0163 105.385 41.0163ZM105.385 32.6827C102.519 32.6827 100.185 34.8643 100.185 37.8715C100.185 40.8591 102.519 43.0604 105.385 43.0604C108.25 43.0604 110.585 40.8591 110.585 37.8715C110.585 34.8643 108.249 32.6827 105.385 32.6827Z" fill="white"/>
<path d="M35.1918 15.4312C34.7831 15.8006 34.5391 16.4167 34.5391 17.2346V17.0497V44.0378V43.86C34.5391 44.6153 34.7484 45.1986 35.1028 45.5742L35.1932 45.6609V45.6613C35.4801 45.9206 35.848 46.0583 36.2696 46.0579C36.6815 46.0579 37.145 45.9263 37.6341 45.6486L55.3143 35.5867L61.3873 32.1302C62.1586 31.6913 62.5916 31.1251 62.664 30.5484V30.5461C62.5916 29.9681 62.1586 29.4023 61.3874 28.9634L55.3138 25.5073L37.6342 15.4455C37.144 15.1672 36.6802 15.0352 36.2672 15.0352C35.8461 15.0352 35.4787 15.1724 35.1919 15.4312H35.1918Z" fill="#00C1FF"/>
<path d="M35.1933 45.6611L35.1028 45.5744C34.7484 45.1988 34.5391 44.6155 34.5391 43.8602V44.0379V17.0566V17.2348C34.5391 16.4169 34.7831 15.8008 35.1918 15.4314L50.2832 30.5468L35.1933 45.6611Z" fill="url(#paint0_linear_2787_28270)"/>
<path d="M55.3143 35.5869L50.2832 30.5468L55.3139 25.5075L61.3874 28.9636C62.1586 29.4025 62.5916 29.9682 62.664 30.5463V30.5486C62.5916 31.1253 62.1586 31.6915 61.3874 32.1304L55.3144 35.5869" fill="url(#paint1_linear_2787_28270)"/>
<path d="M36.2696 46.0586C35.848 46.059 35.4802 45.9212 35.1934 45.662V45.6616L50.2832 30.5472L55.3144 35.5874L37.6341 45.6492C37.145 45.9271 36.6815 46.0586 36.2696 46.0586Z" fill="url(#paint2_linear_2787_28270)"/>
<path d="M50.2828 30.5469L35.1914 15.4315C35.4783 15.1727 35.8456 15.0355 36.2667 15.0355C36.6797 15.0355 37.1436 15.1674 37.6337 15.4458L55.3134 25.5076L50.2828 30.5469" fill="url(#paint3_linear_2787_28270)"/>
<path d="M36.2707 46.2373C35.8492 46.2373 35.4808 46.0996 35.1939 45.8403L35.1934 45.8408C35.1923 45.8396 35.191 45.8385 35.1897 45.8375L35.1112 45.7607C35.1087 45.7583 35.1064 45.7555 35.1035 45.7527L35.194 45.6621C35.4809 45.9213 35.8487 46.0591 36.2703 46.0586C36.6822 46.0586 37.1457 45.9271 37.6348 45.6492L55.315 35.5874L55.4283 35.7009L55.3136 35.7662L37.6348 45.8274C37.189 46.0805 36.765 46.2125 36.382 46.2345C36.3449 46.2363 36.3078 46.2372 36.2707 46.2372" fill="url(#paint4_linear_2787_28270)"/>
<path d="M35.1028 45.752C34.7484 45.3764 34.5391 44.7935 34.5391 44.0377V43.86C34.5391 44.6153 34.7484 45.1985 35.1028 45.5742L35.1932 45.6609L35.1028 45.752Z" fill="url(#paint5_linear_2787_28270)"/>
<path d="M55.4277 35.7001L55.3145 35.5866L61.3875 32.1301C62.1588 31.6913 62.5918 31.1251 62.6641 30.5484C62.6641 30.76 62.617 30.9716 62.5233 31.1776C62.3344 31.5926 61.9557 31.9848 61.3875 32.3084L55.4277 35.7002" fill="url(#paint6_linear_2787_28270)"/>
<path d="M62.6646 30.5469C62.5923 29.9688 62.1593 29.4031 61.388 28.9641L55.3145 25.5081L55.4277 25.3946H55.4282L61.388 28.7864C62.2383 29.2706 62.6641 29.9086 62.6646 30.5469Z" fill="url(#paint7_linear_2787_28270)"/>
<path d="M34.5391 17.2354V17.0489C34.5391 16.9817 34.5409 16.916 34.5443 16.8521V16.8492C34.5443 16.8484 34.5443 16.8474 34.5447 16.8464V16.8393C34.5813 16.1887 34.7831 15.6812 35.1028 15.3424L35.1918 15.4319C34.7831 15.8014 34.5391 16.4175 34.5391 17.2354Z" fill="url(#paint8_linear_2787_28270)"/>
<path d="M55.3145 25.5078L37.6348 15.4459C37.1447 15.1676 36.6809 15.0356 36.2678 15.0356C35.8467 15.0356 35.4794 15.1729 35.1926 15.4317L35.1035 15.3421C35.1313 15.3126 35.1602 15.2842 35.1901 15.2568C35.1911 15.2558 35.1926 15.2549 35.1935 15.2539C35.4781 14.9971 35.8415 14.8599 36.2588 14.8574H36.2678C36.6809 14.8574 37.1447 14.9894 37.6348 15.2678L55.4283 25.3939L55.4278 25.3943L55.3145 25.5078Z" fill="url(#paint9_linear_2787_28270)"/>
<g clip-path="url(#clip0_2787_28270)">
<path d="M76.6017 19.0253C78.8951 19.0253 80.566 17.4745 80.5005 14.7661H76.4598V15.9674H78.8842C78.775 16.9394 77.8467 17.6711 76.6017 17.6711C75.1056 17.6711 74.1008 16.5571 74.1008 15.061C74.1008 13.5866 75.0946 12.4836 76.5908 12.4836C77.6501 12.4836 78.4146 13.0297 78.7204 13.7941H80.3148C79.8998 12.2543 78.5238 11.0967 76.5908 11.0967C74.2537 11.0967 72.5938 12.8113 72.5938 15.061C72.5938 17.3325 74.2537 19.0253 76.6017 19.0253ZM81.8282 18.8833H86.6224V17.6274H83.2806V15.6398H86.0436V14.3948H83.2806V12.4946H86.5132V11.2387H81.8282V18.8833ZM89.588 18.8833H91.0404V12.5164H93.2574V11.2387H87.3929V12.5164H89.588V18.8833ZM97.303 18.8833H98.7555V11.2387H97.303V18.8833ZM102.119 18.8833H103.572V12.5164H105.789V11.2387H99.9242V12.5164H102.119V18.8833ZM113.46 19.0253C115.775 19.0253 117.501 17.3107 117.501 15.061C117.501 12.8331 115.786 11.0967 113.471 11.0967C111.156 11.0967 109.441 12.8113 109.441 15.061C109.441 17.3325 111.145 19.0253 113.46 19.0253ZM113.471 17.6383C111.997 17.6383 110.948 16.5462 110.948 15.061C110.948 13.5976 111.997 12.4836 113.471 12.4836C114.934 12.4836 115.983 13.5976 115.983 15.061C115.983 16.5462 114.934 17.6383 113.471 17.6383ZM118.836 18.8833H120.255V13.6522H120.321L123.575 18.8833H125.17V11.2387H123.761V16.4698H123.695L120.419 11.2387H118.836V18.8833Z" fill="#A2A2A2"/>
</g>
<defs>
<linearGradient id="paint0_linear_2787_28270" x1="44.1834" y1="16.7714" x2="31.178" y2="29.7977" gradientUnits="userSpaceOnUse">
<stop stop-color="#00A0FF"/>
<stop offset="0.00657" stop-color="#00A1FF"/>
<stop offset="0.2601" stop-color="#00BEFF"/>
<stop offset="0.5122" stop-color="#00D2FF"/>
<stop offset="0.7604" stop-color="#00DFFF"/>
<stop offset="1" stop-color="#00E3FF"/>
</linearGradient>
<linearGradient id="paint1_linear_2787_28270" x1="63.6037" y1="30.4597" x2="34.1307" y2="30.4597" gradientUnits="userSpaceOnUse">
<stop stop-color="#FFE000"/>
<stop offset="0.4087" stop-color="#FFBD00"/>
<stop offset="0.7754" stop-color="#FFA500"/>
<stop offset="1" stop-color="#FF9C00"/>
</linearGradient>
<linearGradient id="paint2_linear_2787_28270" x1="52.6433" y1="35.3392" x2="30.6047" y2="57.252" gradientUnits="userSpaceOnUse">
<stop stop-color="#FF3A44"/>
<stop offset="1" stop-color="#C31162"/>
</linearGradient>
<linearGradient id="paint3_linear_2787_28270" x1="31.3019" y1="13.1906" x2="41.124" y2="22.9717" gradientUnits="userSpaceOnUse">
<stop stop-color="#32A071"/>
<stop offset="0.0685" stop-color="#2DA771"/>
<stop offset="0.4762" stop-color="#15CF74"/>
<stop offset="0.8009" stop-color="#06E775"/>
<stop offset="1" stop-color="#00F076"/>
</linearGradient>
<linearGradient id="paint4_linear_2787_28270" x1="52.6329" y1="38.8354" x2="34.9834" y2="56.5135" gradientUnits="userSpaceOnUse">
<stop stop-color="#CC2E36"/>
<stop offset="1" stop-color="#9C0E4E"/>
</linearGradient>
<linearGradient id="paint5_linear_2787_28270" x1="36.5495" y1="16.7711" x2="25.0919" y2="28.2473" gradientUnits="userSpaceOnUse">
<stop stop-color="#008DE0"/>
<stop offset="0.00657" stop-color="#008DE0"/>
<stop offset="0.2601" stop-color="#00A7E0"/>
<stop offset="0.5122" stop-color="#00B8E0"/>
<stop offset="0.7604" stop-color="#00C4E0"/>
<stop offset="1" stop-color="#00C7E0"/>
</linearGradient>
<linearGradient id="paint6_linear_2787_28270" x1="63.6039" y1="30.5473" x2="34.1308" y2="30.5473" gradientUnits="userSpaceOnUse">
<stop stop-color="#E0C500"/>
<stop offset="0.4087" stop-color="#E0A600"/>
<stop offset="0.7754" stop-color="#E09100"/>
<stop offset="1" stop-color="#E08900"/>
</linearGradient>
<linearGradient id="paint7_linear_2787_28270" x1="63.6044" y1="30.5481" x2="34.1314" y2="30.5481" gradientUnits="userSpaceOnUse">
<stop stop-color="#FFE840"/>
<stop offset="0.4087" stop-color="#FFCE40"/>
<stop offset="0.7754" stop-color="#FFBC40"/>
<stop offset="1" stop-color="#FFB540"/>
</linearGradient>
<linearGradient id="paint8_linear_2787_28270" x1="36.537" y1="16.7927" x2="25.5014" y2="27.3673" gradientUnits="userSpaceOnUse">
<stop stop-color="#40B8FF"/>
<stop offset="0.00657" stop-color="#40B9FF"/>
<stop offset="0.2601" stop-color="#40CEFF"/>
<stop offset="0.5122" stop-color="#40DDFF"/>
<stop offset="0.7604" stop-color="#40E7FF"/>
<stop offset="1" stop-color="#40EAFF"/>
</linearGradient>
<linearGradient id="paint9_linear_2787_28270" x1="31.281" y1="16.3874" x2="39.1624" y2="24.2815" gradientUnits="userSpaceOnUse">
<stop stop-color="#65B895"/>
<stop offset="0.0685" stop-color="#62BD95"/>
<stop offset="0.4762" stop-color="#50DB97"/>
<stop offset="0.8009" stop-color="#44ED98"/>
<stop offset="1" stop-color="#40F498"/>
</linearGradient>
<clipPath id="clip0_2787_28270">
<rect width="52.7844" height="8.19068" fill="white" transform="translate(72.5781 10.9209)"/>
</clipPath>
</defs>
</svg>
