<svg width="25" height="25" viewBox="0 0 30 30" fill="none" xmlns="http://www.w3.org/2000/svg">
<path d="M15 28.4375C7.5875 28.4375 1.5625 22.4125 1.5625 15C1.5625 7.5875 7.5875 1.5625 15 1.5625C22.4125 1.5625 28.4375 7.5875 28.4375 15C28.4375 22.4125 22.4125 28.4375 15 28.4375ZM15 3.4375C8.625 3.4375 3.4375 8.625 3.4375 15C3.4375 21.375 8.625 26.5625 15 26.5625C21.375 26.5625 26.5625 21.375 26.5625 15C26.5625 8.625 21.375 3.4375 15 3.4375Z" fill="#65B895"/>
<path d="M13.2258 19.475C12.9758 19.475 12.7383 19.375 12.5633 19.2L9.02578 15.6625C8.66328 15.3 8.66328 14.7 9.02578 14.3375C9.38828 13.975 9.98828 13.975 10.3508 14.3375L13.2258 17.2125L19.6508 10.7875C20.0133 10.425 20.6133 10.425 20.9758 10.7875C21.3383 11.15 21.3383 11.75 20.9758 12.1125L13.8883 19.2C13.7133 19.375 13.4758 19.475 13.2258 19.475Z" fill="#65B895"/>
</svg>
