<svg width="32" height="32" viewBox="0 0 32 32" fill="none" xmlns="http://www.w3.org/2000/svg">
<path fill-rule="evenodd" clip-rule="evenodd" d="M15.7932 4.36914C12.6183 4.36914 12.2208 4.38239 10.9739 4.43928C9.72935 4.49617 8.87912 4.69411 8.13566 4.98324C7.35635 5.27626 6.64952 5.73605 6.06504 6.33144C5.4706 6.91525 5.01052 7.62159 4.71683 8.40129C4.42927 9.14475 4.23054 9.99576 4.17365 11.2403C4.11754 12.4864 4.10352 12.8831 4.10352 16.0588C4.10352 19.2345 4.11676 19.6311 4.17365 20.878C4.23054 22.1226 4.42849 22.9728 4.71761 23.7163C5.01063 24.4956 5.47042 25.2024 6.06582 25.7869C6.64964 26.3813 7.35597 26.8414 8.13566 27.1351C8.87912 27.4235 9.72935 27.6214 10.9739 27.6783C12.2208 27.7352 12.6183 27.7484 15.7932 27.7484C18.9681 27.7484 19.3655 27.7352 20.6124 27.6783C21.857 27.6214 22.7072 27.4235 23.4507 27.1343C24.23 26.8413 24.9368 26.3815 25.5213 25.7861C26.1157 25.2023 26.5758 24.496 26.8695 23.7163C27.1578 22.9728 27.3558 22.1226 27.4127 20.878C27.4696 19.6311 27.4828 19.2337 27.4828 16.0588C27.4828 12.8839 27.4696 12.4864 27.4127 11.2395C27.3558 9.99498 27.1578 9.14475 26.8687 8.40129C26.5752 7.62125 26.1151 6.91462 25.5205 6.33066C24.9367 5.73622 24.2304 5.27615 23.4507 4.98246C22.7072 4.69489 21.8562 4.49617 20.6116 4.43928C19.3655 4.38317 18.9688 4.36914 15.7932 4.36914ZM15.7932 6.47561C18.9143 6.47561 19.2845 6.4873 20.5173 6.54341C21.6567 6.59563 22.2755 6.785 22.6877 6.94632C23.2332 7.15751 23.6229 7.41157 24.032 7.81992C24.4412 8.22906 24.6944 8.61872 24.9056 9.16423C25.0662 9.57649 25.2563 10.1953 25.3085 11.3346C25.3646 12.5675 25.3763 12.9376 25.3763 16.0588C25.3763 19.1799 25.3646 19.5501 25.3085 20.783C25.2563 21.9223 25.0669 22.5411 24.9056 22.9533C24.7185 23.4611 24.42 23.9205 24.032 24.2976C23.6549 24.6857 23.1955 24.9843 22.6877 25.1713C22.2755 25.3318 21.6567 25.5219 20.5173 25.5742C19.2845 25.6303 18.9151 25.642 15.7932 25.642C12.6712 25.642 12.3019 25.6303 11.069 25.5742C9.92963 25.5219 9.31086 25.3326 8.89861 25.1713C8.39085 24.9842 7.93149 24.6856 7.5543 24.2976C7.16634 23.9204 6.86783 23.4611 6.68069 22.9533C6.52015 22.5411 6.33 21.9223 6.27779 20.783C6.22168 19.5501 6.20999 19.1799 6.20999 16.0588C6.20999 12.9376 6.22168 12.5675 6.27779 11.3346C6.33 10.1953 6.51938 9.57649 6.68069 9.16423C6.89189 8.61872 7.14594 8.22906 7.5543 7.81992C7.93144 7.43186 8.39082 7.13333 8.89861 6.94632C9.31086 6.78578 9.92963 6.59563 11.069 6.54341C12.3019 6.4873 12.672 6.47561 15.7932 6.47561Z" fill="#BBE0E7"/>
<path fill-rule="evenodd" clip-rule="evenodd" d="M15.7931 19.9598C15.2809 19.9598 14.7737 19.8589 14.3005 19.6629C13.8273 19.4669 13.3973 19.1796 13.0351 18.8174C12.6729 18.4552 12.3856 18.0252 12.1896 17.552C11.9936 17.0788 11.8927 16.5716 11.8927 16.0594C11.8927 15.5471 11.9936 15.0399 12.1896 14.5667C12.3856 14.0935 12.6729 13.6635 13.0351 13.3013C13.3973 12.9391 13.8273 12.6518 14.3005 12.4558C14.7737 12.2598 15.2809 12.1589 15.7931 12.1589C16.8276 12.1589 17.8197 12.5699 18.5512 13.3013C19.2826 14.0328 19.6936 15.0249 19.6936 16.0594C19.6936 17.0938 19.2826 18.0859 18.5512 18.8174C17.8197 19.5489 16.8276 19.9598 15.7931 19.9598ZM15.7931 10.0509C14.1996 10.0509 12.6713 10.6839 11.5445 11.8107C10.4177 12.9375 9.78467 14.4658 9.78467 16.0594C9.78467 17.6529 10.4177 19.1812 11.5445 20.308C12.6713 21.4348 14.1996 22.0678 15.7931 22.0678C17.3867 22.0678 18.915 21.4348 20.0418 20.308C21.1686 19.1812 21.8016 17.6529 21.8016 16.0594C21.8016 14.4658 21.1686 12.9375 20.0418 11.8107C18.915 10.6839 17.3867 10.0509 15.7931 10.0509ZM23.5496 9.94178C23.5496 10.3185 23.4 10.6797 23.1336 10.9461C22.8673 11.2124 22.506 11.3621 22.1293 11.3621C21.7526 11.3621 21.3914 11.2124 21.125 10.9461C20.8587 10.6797 20.709 10.3185 20.709 9.94178C20.709 9.56509 20.8587 9.20383 21.125 8.93748C21.3914 8.67112 21.7526 8.52148 22.1293 8.52148C22.506 8.52148 22.8673 8.67112 23.1336 8.93748C23.4 9.20383 23.5496 9.56509 23.5496 9.94178Z" fill="#BBE0E7"/>
</svg>
