<svg width="24" height="25" viewBox="0 0 24 25" fill="none" xmlns="http://www.w3.org/2000/svg">
<path d="M16.9897 10.4243H7.00977C6.59977 10.4243 6.25977 10.0843 6.25977 9.67432C6.25977 9.26432 6.59977 8.92432 7.00977 8.92432H16.9897C17.3997 8.92432 17.7397 9.26432 17.7397 9.67432C17.7397 10.0843 17.3997 10.4243 16.9897 10.4243Z" fill="#0A9AB4"/>
<path d="M12 10.4241C11.59 10.4241 11.25 10.0841 11.25 9.67413V7.99414C11.25 7.58414 11.59 7.24414 12 7.24414C12.41 7.24414 12.75 7.58414 12.75 7.99414V9.67413C12.75 10.0841 12.41 10.4241 12 10.4241Z" fill="#0A9AB4"/>
<path d="M7 18.1843C6.59 18.1843 6.25 17.8443 6.25 17.4343C6.25 17.0243 6.59 16.6843 7 16.6843C10.72 16.6843 13.75 13.5343 13.75 9.6543C13.75 9.2443 14.09 8.9043 14.5 8.9043C14.91 8.9043 15.25 9.2443 15.25 9.6543C15.25 14.3643 11.55 18.1843 7 18.1843Z" fill="#0A9AB4"/>
<path d="M17.0012 18.1841C15.0312 18.1841 13.2012 17.2041 11.8612 15.4141C11.6112 15.0841 11.6812 14.6142 12.0112 14.3642C12.3412 14.1142 12.8112 14.1841 13.0612 14.5141C14.1212 15.9141 15.5212 16.6841 17.0112 16.6841C17.4212 16.6841 17.7612 17.0241 17.7612 17.4341C17.7612 17.8441 17.4112 18.1841 17.0012 18.1841Z" fill="#0A9AB4"/>
<path d="M15 23.4644H9C3.57 23.4644 1.25 21.1444 1.25 15.7144V9.71436C1.25 4.28436 3.57 1.96436 9 1.96436H15C20.43 1.96436 22.75 4.28436 22.75 9.71436V15.7144C22.75 21.1444 20.43 23.4644 15 23.4644ZM9 3.46436C4.39 3.46436 2.75 5.10436 2.75 9.71436V15.7144C2.75 20.3244 4.39 21.9644 9 21.9644H15C19.61 21.9644 21.25 20.3244 21.25 15.7144V9.71436C21.25 5.10436 19.61 3.46436 15 3.46436H9Z" fill="#0A9AB4"/>
</svg>
