<svg width="32" height="32" viewBox="0 0 32 32" fill="none" xmlns="http://www.w3.org/2000/svg">
<path d="M28.1034 6.08821V26.0294C28.1034 26.4853 27.9223 26.9225 27.5999 27.2449C27.2775 27.5673 26.8403 27.7484 26.3843 27.7484H6.44319C5.98726 27.7484 5.55001 27.5673 5.22762 27.2449C4.90524 26.9225 4.72412 26.4853 4.72412 26.0294V6.08821C4.72412 5.63228 4.90524 5.19503 5.22762 4.87264C5.55001 4.55026 5.98726 4.36914 6.44319 4.36914H26.3843C26.8403 4.36914 27.2775 4.55026 27.5999 4.87264C27.9223 5.19503 28.1034 5.63228 28.1034 6.08821ZM11.6004 13.3083H8.16225V24.3103H11.6004V13.3083ZM11.9098 9.52634C11.9116 9.26627 11.8622 9.00839 11.7643 8.76743C11.6665 8.52647 11.5221 8.30714 11.3395 8.12197C11.1569 7.93679 10.9396 7.78941 10.7 7.68822C10.4604 7.58703 10.2033 7.53402 9.9432 7.53222H9.88132C9.35245 7.53222 8.84523 7.74231 8.47126 8.11628C8.0973 8.49025 7.8872 8.99746 7.8872 9.52634C7.8872 10.0552 8.0973 10.5624 8.47126 10.9364C8.84523 11.3104 9.35245 11.5205 9.88132 11.5205C10.1414 11.5269 10.4002 11.4819 10.6429 11.3883C10.8856 11.2946 11.1075 11.1541 11.2959 10.9746C11.4843 10.7952 11.6355 10.5804 11.7408 10.3425C11.8461 10.1046 11.9036 9.84831 11.9098 9.58822V9.52634ZM24.6653 17.6266C24.6653 14.3191 22.5611 13.0332 20.4708 13.0332C19.7863 12.999 19.1049 13.1447 18.4944 13.456C17.8838 13.7673 17.3656 14.2332 16.9914 14.8073H16.8951V13.3083H13.6633V24.3103H17.1014V18.4586C17.0517 17.8593 17.2405 17.2646 17.6267 16.8036C18.013 16.3427 18.5655 16.0528 19.1643 15.9969H19.2949C20.3882 15.9969 21.1996 16.6845 21.1996 18.4173V24.3103H24.6378L24.6653 17.6266Z" fill="#BBE0E7"/>
</svg>
