<svg width="80" height="80" viewBox="0 0 80 80" fill="none" xmlns="http://www.w3.org/2000/svg">
<path d="M39.9998 70.8337H23.3332C11.1665 70.8337 4.1665 63.8337 4.1665 51.667V28.3337C4.1665 16.167 11.1665 9.16699 23.3332 9.16699H56.6665C68.8332 9.16699 75.8332 16.167 75.8332 28.3337V38.3337C75.8332 39.7003 74.6998 40.8337 73.3332 40.8337C71.9665 40.8337 70.8332 39.7003 70.8332 38.3337V28.3337C70.8332 18.8003 66.1998 14.167 56.6665 14.167H23.3332C13.7998 14.167 9.1665 18.8003 9.1665 28.3337V51.667C9.1665 61.2003 13.7998 65.8337 23.3332 65.8337H39.9998C41.3665 65.8337 42.4998 66.967 42.4998 68.3337C42.4998 69.7003 41.3665 70.8337 39.9998 70.8337Z" fill="#1FBAD6"/>
<path d="M39.9994 42.8999C37.1994 42.8999 34.3661 42.0332 32.1994 40.2665L21.7661 31.9332C20.6994 31.0665 20.4994 29.4999 21.3661 28.4332C22.2328 27.3666 23.7994 27.1999 24.8661 28.0332L35.2994 36.3666C37.8327 38.3999 42.1327 38.3999 44.6661 36.3666L55.0994 28.0332C56.1661 27.1666 57.7327 27.3332 58.5994 28.4332C59.466 29.4999 59.2994 31.0999 58.1994 31.9332L47.766 40.2665C45.6327 42.0332 42.7994 42.8999 39.9994 42.8999Z" fill="#1FBAD6"/>
<path d="M52.7337 72.6004C51.467 72.6004 50.267 72.1337 49.4004 71.267C48.367 70.2337 47.9003 68.7337 48.1337 67.167L48.767 62.667C48.9337 61.5003 49.6337 60.1004 50.467 59.267L62.267 47.467C63.867 45.867 65.4337 45.0337 67.1337 44.867C69.2004 44.667 71.267 45.5337 73.2003 47.467C75.1336 49.4003 76.0003 51.4337 75.8003 53.5337C75.6336 55.2003 74.767 56.8003 73.2003 58.4003L61.4004 70.2004C60.567 71.0337 59.167 71.7337 58.0003 71.9004L53.5003 72.5337C53.2336 72.5671 53.0004 72.6004 52.7337 72.6004ZM67.7003 49.8337C67.667 49.8337 67.6337 49.8337 67.6003 49.8337C67.1337 49.8671 66.5003 50.3003 65.8003 51.0003L54.0004 62.8003C53.9004 62.9003 53.7336 63.2337 53.7336 63.3671L53.1337 67.5337L57.3003 66.9336C57.4337 66.9003 57.7669 66.7337 57.8669 66.6337L69.667 54.8337C70.367 54.1004 70.8003 53.5004 70.8337 53.0337C70.9003 52.367 70.2336 51.567 69.667 51.0003C69.1336 50.467 68.367 49.8337 67.7003 49.8337Z" fill="#1FBAD6"/>
<path d="M69.7338 60.8331C69.5005 60.8331 69.2671 60.7998 69.0671 60.7331C64.6671 59.4998 61.1671 55.9998 59.9338 51.5998C59.5671 50.2665 60.3338 48.8997 61.6671 48.4997C63.0004 48.1331 64.3672 48.8998 64.7338 50.2331C65.5005 52.9665 67.6671 55.1331 70.4004 55.8997C71.7338 56.2664 72.5005 57.6665 72.1338 58.9998C71.8338 60.0998 70.8338 60.8331 69.7338 60.8331Z" fill="#1FBAD6"/>
</svg>
