<svg width="318" height="372" viewBox="0 0 318 372" fill="none" xmlns="http://www.w3.org/2000/svg">
<g clip-path="url(#clip0_3139_28259)">
<path fill-rule="evenodd" clip-rule="evenodd" d="M249.339 261.354C248.459 258.94 249.743 256.533 250.456 254.197C252.987 246.098 246.064 225.671 241.223 225.372C239.452 220.793 234.727 218.893 231.008 216.256C226.787 213.623 222.682 210.598 218.292 208.289C218.048 206.108 215.402 205.567 213.784 207.128C209.341 204.364 204.012 204.878 199.248 203.067C195.628 197.218 195.357 191.068 194.398 185.425C193.981 182.966 194.424 180.593 192.743 178.4C187.096 170.459 164.781 167.016 156.553 171.722C152.125 168.96 152.018 173.961 151.315 177.048C150.533 178.592 150.11 180.341 150.24 182.183C148.144 186.561 146.366 192.037 141.96 195.307C136.369 199.455 127.767 201.033 122.316 203.067C121.093 201.891 120.719 200.19 120.719 200.19C112.271 202.026 104.072 205.254 96.9933 210.293C88.9515 212.644 83.288 219.183 79.1926 226.194C78.7414 226.933 78.635 227.686 78.7668 228.378C66.1731 246.833 60.1624 268.927 59.3182 291.241C51.2195 296.1 63.1675 339.749 65.9489 348.811C65.9517 348.81 65.9545 348.809 65.9573 348.807C67.7617 352.001 69.8105 361.114 74.3263 360.409C77.424 363.91 82.3606 363.222 86.5643 363.491C85.8796 366.116 86.216 369.12 87.0309 371.715C87.9947 374.803 92.7244 374.908 93.3951 371.541C135.257 379.671 178.209 373.184 220.541 374.404C232.781 374.491 245.02 374.87 257.23 375.742C258.949 375.864 260.692 374.108 260.575 372.397C257.95 344.476 255.485 307.746 252.549 280.099C251.853 273.794 251.302 267.42 249.339 261.354Z" fill="#EDB68F"/>
<path fill-rule="evenodd" clip-rule="evenodd" d="M120.763 200.375C120.748 200.314 120.733 200.252 120.719 200.189C112.271 202.026 104.072 205.253 96.9933 210.292C88.9515 212.644 83.288 219.182 79.1926 226.193L79.138 226.286C78.7329 226.995 78.6405 227.715 78.7668 228.378C66.1731 246.833 60.1624 268.926 59.3182 291.24C51.2195 296.099 63.1675 339.748 65.9489 348.81L65.9573 348.807C66.4069 349.603 66.8717 350.766 67.3861 352.053C68.9359 355.932 70.9358 360.937 74.3263 360.408C76.8447 363.255 80.5785 363.332 84.1458 363.406C84.9664 363.423 85.7782 363.44 86.5643 363.49C85.8796 366.116 86.216 370.799 87.0309 373.393C87.9947 376.482 221.706 378.997 257.23 375.741C258.945 375.584 260.692 374.107 260.575 372.396C259.473 360.67 258.398 347.391 257.306 333.883C255.796 315.227 254.252 296.135 252.549 280.098C252.483 279.495 252.417 278.891 252.352 278.287C251.735 272.576 251.114 266.839 249.339 261.354C248.636 259.426 249.314 257.502 249.978 255.616C250.146 255.14 250.312 254.667 250.456 254.197C252.987 246.098 246.539 225.719 241.915 225.416L241.223 225.371C239.863 221.854 236.759 219.918 233.708 218.013C232.878 217.496 232.052 216.98 231.266 216.436L231.008 216.255C229.569 215.358 228.144 214.415 226.716 213.47C223.955 211.643 221.186 209.81 218.292 208.289C218.048 206.107 215.402 205.567 213.784 207.127C213.077 206.687 212.348 206.331 211.602 206.034L211.307 210.096C206.262 228.893 192.225 239.352 169.196 241.472C134.652 244.653 119.082 210.044 119.082 206.547C119.082 205.013 119.589 203.076 120.603 200.738L120.763 200.375ZM196.867 263.263C202.017 262.006 208.129 260.68 213.172 259.844C215.696 259.425 217.934 259.132 219.642 259.03C220.499 258.978 221.2 258.976 221.729 259.024C221.992 259.047 222.197 259.082 222.347 259.123C222.421 259.143 222.475 259.163 222.513 259.18C222.551 259.197 222.565 259.208 222.564 259.207C223.365 259.828 224.033 260.722 224.51 261.494C224.746 261.875 224.927 262.214 225.05 262.457C225.063 262.483 225.075 262.508 225.087 262.532C225.096 262.55 225.105 262.568 225.113 262.585C225.087 262.661 225.054 262.752 225.015 262.853C224.887 263.18 224.695 263.61 224.435 264.033C223.889 264.924 223.189 265.566 222.337 265.566C221.63 265.566 219.899 265.809 217.795 266.149C215.655 266.494 213.043 266.953 210.515 267.412C207.985 267.871 205.535 268.33 203.717 268.675C202.808 268.847 202.058 268.99 201.534 269.09C201.272 269.141 201.067 269.18 200.927 269.207L200.768 269.238L200.727 269.246L200.717 269.248L200.714 269.248L200.713 269.248C200.713 269.248 200.713 269.248 200.856 269.985L200.713 269.248L200.619 269.267L200.532 269.308L194.931 271.99L195.318 273.413L195.255 272.666C195.318 273.413 195.318 273.413 195.319 273.413L195.319 273.413L195.321 273.413L195.329 273.412L195.36 273.41L195.483 273.4C195.591 273.391 195.751 273.377 195.956 273.36C196.368 273.327 196.963 273.278 197.697 273.22C199.167 273.105 201.194 272.95 203.428 272.796C207.902 272.487 213.173 272.179 216.437 272.179L217.149 272.179H217.149C220.416 272.178 224.917 272.176 228.704 272.388C230.745 272.502 232.542 272.676 233.817 272.937C234.461 273.069 234.92 273.213 235.201 273.355C235.256 273.383 235.297 273.407 235.328 273.427C235.303 273.47 235.262 273.53 235.194 273.607C235.026 273.796 234.755 274.018 234.373 274.262C233.612 274.749 232.537 275.247 231.332 275.711C228.921 276.638 226.145 277.366 224.679 277.567C223.11 277.783 218.721 278.662 214.762 279.479C212.774 279.889 210.882 280.286 209.488 280.58C208.79 280.727 208.217 280.849 207.818 280.933L207.357 281.032L207.236 281.057L207.205 281.064L207.197 281.066L207.195 281.066L207.195 281.066C207.195 281.066 207.195 281.066 207.23 281.233L207.195 281.066L207.325 282.549L231.01 283.378C231.066 283.436 231.131 283.506 231.2 283.585C231.423 283.838 231.664 284.155 231.815 284.464C231.977 284.796 231.963 284.967 231.938 285.031C231.926 285.06 231.83 285.27 231.165 285.418C229.621 285.764 226.449 286.454 223.661 287.059C222.268 287.361 220.971 287.641 220.022 287.846L218.892 288.091L218.582 288.157L218.501 288.175L218.48 288.179L218.475 288.181L218.474 288.181L218.474 288.181C218.473 288.181 218.473 288.181 218.632 288.914L218.473 288.181L218.041 288.274L217.914 288.697L217.914 288.697L217.913 288.698L217.913 288.698L217.913 288.699L217.911 288.707L217.898 288.748C217.886 288.785 217.867 288.841 217.841 288.915C217.79 289.062 217.71 289.278 217.601 289.543C217.382 290.073 217.047 290.794 216.583 291.553C215.643 293.092 214.238 294.687 212.294 295.302C210.692 295.809 208.916 296.151 207.191 296.483L207.191 296.483L207.19 296.483C206.602 296.596 206.02 296.708 205.452 296.826C204.357 297.052 203.315 297.298 202.441 297.611C201.587 297.918 200.787 298.324 200.28 298.934C199.877 299.417 199.418 300.112 198.936 300.841L198.915 300.873C198.414 301.632 197.869 302.456 197.275 303.241C196.68 304.027 196.054 304.749 195.402 305.305C194.747 305.863 194.105 306.219 193.48 306.337C191.845 306.646 186.928 307.929 182.461 309.122C180.218 309.721 178.076 310.301 176.494 310.731C175.704 310.946 175.053 311.124 174.6 311.247L174.402 311.302C174.258 311.091 174.068 310.806 173.843 310.457C173.321 309.647 172.617 308.495 171.892 307.134C170.432 304.394 168.924 300.874 168.584 297.596C168.232 294.194 168.056 290.948 167.967 288.551C167.923 287.353 167.901 286.368 167.89 285.684C167.886 285.417 167.883 285.196 167.882 285.026L170.601 283.268L170.683 283.215L170.749 283.143L182.855 269.86L182.857 269.858L182.86 269.855L182.885 269.83C182.911 269.804 182.954 269.762 183.014 269.706C183.133 269.595 183.319 269.428 183.577 269.218C184.092 268.798 184.893 268.203 186.014 267.528C188.255 266.179 191.78 264.505 196.867 263.263ZM226.64 262.737C226.64 262.736 226.64 262.736 225.917 262.535L226.64 262.736L226.711 262.481L226.606 262.238L225.917 262.535C226.606 262.238 226.606 262.238 226.606 262.237L226.606 262.237L226.605 262.236L226.604 262.234L226.601 262.226L226.59 262.2C226.58 262.178 226.566 262.147 226.548 262.108C226.511 262.03 226.458 261.919 226.389 261.782C226.251 261.508 226.049 261.13 225.786 260.706C225.268 259.868 224.489 258.801 223.483 258.021C223.07 257.701 222.453 257.583 221.864 257.53C221.229 257.472 220.443 257.479 219.552 257.532C217.767 257.64 215.47 257.942 212.926 258.364C207.834 259.209 201.683 260.544 196.511 261.806C191.275 263.084 187.609 264.816 185.24 266.243C184.056 266.956 183.197 267.592 182.629 268.056C182.345 268.288 182.134 268.476 181.991 268.609C181.919 268.676 181.865 268.729 181.827 268.767C181.819 268.775 181.812 268.782 181.805 268.788C181.796 268.797 181.789 268.805 181.783 268.811L181.77 268.825L181.765 268.829L181.764 268.831L181.763 268.831C181.763 268.832 181.763 268.832 181.823 268.889C181.888 268.95 182.021 269.076 182.297 269.337L181.763 268.832L181.753 268.842L169.706 282.061L166.722 283.989L166.379 284.211V284.619H167.129C166.379 284.619 166.379 284.619 166.379 284.619V284.62V284.621V284.624L166.379 284.639L166.379 284.693C166.379 284.741 166.38 284.812 166.381 284.905C166.382 285.09 166.385 285.361 166.39 285.708C166.401 286.401 166.424 287.396 166.468 288.606C166.557 291.024 166.736 294.305 167.092 297.75C167.462 301.32 169.08 305.045 170.568 307.839C171.317 309.245 172.043 310.433 172.582 311.27C172.852 311.688 173.075 312.02 173.232 312.248C173.311 312.362 173.372 312.45 173.415 312.51C173.436 312.54 173.453 312.563 173.464 312.579L173.477 312.598L173.481 312.603L173.482 312.604L173.482 312.605C173.482 312.605 173.482 312.605 174.09 312.165L173.482 312.605L173.787 313.026L174.288 312.888L174.09 312.165C174.288 312.888 174.288 312.888 174.288 312.888L174.289 312.888L174.291 312.887L174.3 312.885L174.335 312.875L174.472 312.838L174.995 312.694C175.448 312.571 176.098 312.393 176.888 312.178C178.468 311.748 180.608 311.169 182.848 310.571C187.347 309.37 192.194 308.107 193.758 307.811C194.733 307.627 195.607 307.1 196.374 306.447C197.144 305.791 197.845 304.974 198.471 304.146C199.096 303.321 199.664 302.46 200.16 301.71L200.166 301.7C200.675 300.93 201.089 300.305 201.432 299.894C201.676 299.601 202.161 299.305 202.948 299.023C203.716 298.747 204.672 298.518 205.756 298.295C206.279 298.187 206.831 298.08 207.401 297.971L207.403 297.97L207.404 297.97C209.149 297.634 211.053 297.268 212.746 296.732C215.195 295.957 216.846 294.001 217.863 292.335C218.378 291.493 218.747 290.698 218.988 290.114C219.077 289.898 219.149 289.71 219.204 289.558L219.209 289.557L220.339 289.313C221.288 289.107 222.585 288.827 223.979 288.524C226.766 287.92 229.943 287.229 231.492 286.882C232.374 286.685 233.052 286.282 233.33 285.589C233.594 284.93 233.387 284.266 233.163 283.806C232.927 283.324 232.588 282.892 232.327 282.595C232.194 282.443 232.073 282.318 231.986 282.23C231.942 282.186 231.905 282.151 231.88 282.127L231.848 282.097L231.839 282.089L231.836 282.086L231.835 282.085L231.834 282.084C231.834 282.084 231.834 282.084 231.765 282.16L231.834 282.084L231.63 281.898L231.355 281.889L213.532 281.265C214.032 281.161 214.545 281.055 215.065 280.948C219.051 280.126 223.377 279.26 224.883 279.053C226.492 278.832 229.383 278.067 231.871 277.111C233.115 276.632 234.297 276.091 235.181 275.525C235.622 275.244 236.02 274.936 236.315 274.603C236.604 274.278 236.866 273.849 236.866 273.338C236.866 272.627 236.286 272.223 235.879 272.017C235.418 271.783 234.803 271.608 234.117 271.467C232.731 271.184 230.844 271.005 228.788 270.89C224.956 270.676 220.414 270.678 217.154 270.679L216.437 270.679C213.114 270.679 207.794 270.99 203.324 271.299C201.83 271.403 200.428 271.506 199.223 271.598L201.093 270.703L201.211 270.68C201.35 270.653 201.555 270.614 201.816 270.564C202.339 270.463 203.089 270.32 203.996 270.148C205.812 269.805 208.258 269.346 210.782 268.888C213.308 268.43 215.908 267.972 218.034 267.629C220.193 267.281 221.78 267.066 222.337 267.066C224.011 267.066 225.102 265.816 225.714 264.817C226.034 264.296 226.263 263.78 226.412 263.398C226.487 263.206 226.543 263.045 226.58 262.93C226.599 262.872 226.613 262.826 226.623 262.793L226.635 262.754L226.638 262.742L226.639 262.739L226.64 262.737L226.64 262.737ZM235.406 273.488C235.408 273.49 235.409 273.491 235.409 273.491C235.409 273.491 235.407 273.488 235.401 273.482C235.403 273.485 235.405 273.487 235.406 273.488Z" fill="black"/>
<path fill-rule="evenodd" clip-rule="evenodd" d="M207.511 259.08L219.815 231.218C219.815 231.218 221.674 226.484 224.831 226.484C227.988 226.484 256.614 227.381 256.614 227.381C256.614 227.381 262.472 228.128 260.58 231.218C258.689 234.309 230.561 291.821 230.561 291.821H218.631V288.915L231.912 285.203C231.912 285.203 234.33 282.639 230.561 282.639C226.792 282.639 204.865 281.8 204.865 281.8L225.773 278.733L236.115 274.757L234.594 272.667L225.773 271.407L197.046 272.667L204.865 270.024L222.336 266.316C222.336 266.316 225.773 263.897 225.773 261.525C225.773 259.152 216.567 258.24 216.567 258.24L207.511 259.08Z" fill="white"/>
<path fill-rule="evenodd" clip-rule="evenodd" d="M152.004 173.444C152.125 173.116 152.614 173.16 152.623 173.527C152.816 181.378 150.861 190.971 144.577 196.274C141.351 198.996 137.087 200.242 133.17 201.673L132.729 201.836L125.809 204.413C123.974 205.096 121.994 206.148 120.373 205.182C121.685 208.434 122.786 211.775 124.384 214.909C126.372 218.81 128.777 222.38 131.719 225.626C143.377 238.488 161.827 242.411 178.384 238.642C186.91 236.702 195.207 233.024 201.023 226.316C205.444 221.217 207.984 214.374 208.582 207.624C208.407 207.652 208.224 207.651 208.035 207.609C205.941 207.153 203.826 206.03 201.982 204.929L201.805 204.823C200.031 203.755 198.182 202.532 196.91 200.874C195.646 199.227 194.319 193.855 194.319 193.855C193.957 191.836 193.618 187.814 193.676 185.773C193.682 185.58 194.536 185.467 194.628 185.667C195.417 187.399 195.673 191.206 196.282 193.009L196.405 193.369C197.056 195.252 197.614 197.545 198.964 199.068C201.497 201.926 205.32 203.136 208.732 204.57C208.977 201.339 214.139 201.414 214.074 204.784C214.07 204.967 214.062 205.149 214.055 205.331C214.462 205.554 214.854 205.81 215.22 206.057L215.577 206.3C216.929 207.219 218.29 208.092 219.73 208.872C222.516 210.381 225.465 211.578 228.32 212.949C231.208 214.335 233.909 215.987 236.431 217.964C237.615 218.893 238.751 219.881 239.828 220.932L240.121 221.22C241.146 222.241 242.48 223.383 243.064 224.724C243.193 225.02 243.838 225.708 244.188 225.731C249.612 226.086 255.025 226.588 260.414 227.341C261.81 227.536 262.362 228.255 261.846 229.417C260.073 233.413 253.134 249.37 251.289 253.652C251.504 256.798 251.213 260.502 251.407 263.649C251.692 268.241 252.064 272.832 252.51 277.411C254.105 293.792 256.524 310.094 258.71 326.403C259.804 334.566 260.801 342.74 261.786 350.916C262.283 355.048 262.705 359.184 263.029 363.334C263.165 365.063 263.287 366.793 263.395 368.524L263.489 370.059C263.618 371.992 263.913 373.837 262.717 375.495C262.175 376.247 260.937 376.671 260.224 375.816C259.327 374.742 258.994 373.939 258.908 372.528C258.843 371.448 258.827 370.363 258.778 369.281C258.672 366.937 258.538 364.595 258.381 362.253C258.068 357.573 257.711 352.893 257.298 348.22C255.849 331.834 253.095 315.572 251.262 299.227C250.338 290.986 249.682 282.731 249.335 274.445C249.161 270.307 249.098 266.17 249.139 262.028C249.154 260.481 249.227 258.941 249.333 257.405C246.588 263.64 243.702 269.815 240.684 275.908L239.969 277.351C238.056 281.202 236.093 285.068 233.794 288.699L233.399 289.318C232.468 290.792 231.196 293.118 229.498 293.583C228.315 293.907 226.87 293.679 225.657 293.656C224.454 293.633 223.249 293.628 222.046 293.579C220.698 293.525 219.41 293.348 218.107 292.996C217.89 292.938 217.685 292.875 217.498 292.794C216.185 294.943 213.953 296.579 211.672 297.533C209.844 298.296 207.929 298.82 206.01 299.304L205.333 299.474C203.276 299.987 200.923 300.23 199.763 302.216L199.493 302.676C198.631 304.141 197.803 305.427 196.376 306.478C194.839 307.608 193.019 308.32 191.206 308.873C189.349 309.439 187.449 309.873 185.563 310.338L185.05 310.465C183.805 310.777 182.549 311.063 181.312 311.401C180.784 311.546 180.247 311.695 179.729 311.873C179.123 312.081 178.682 312.406 178.204 312.76C177.774 314.261 175.936 315.077 174.425 314.972C173.632 314.917 172.92 314.648 172.272 314.254C171.141 315.216 169.896 316.078 168.744 316.969C167.13 318.217 165.51 319.456 163.881 320.684C160.522 323.216 157.137 325.713 153.717 328.162C147.647 332.508 141.445 336.654 135.138 340.648C132.508 342.313 129.86 343.975 127.186 345.598L127.472 345.703L128.038 345.917C129.376 346.417 130.866 347.223 131.125 348.783C131.331 350.021 130.639 350.874 129.417 351.025C127.965 351.204 126.834 350.178 125.93 349.199C125.531 348.767 125.084 348.366 124.702 347.921C124.546 347.74 124.426 347.53 124.32 347.311C121.682 348.865 119.015 350.367 116.306 351.772L115.628 352.121C108.911 355.555 102.372 359.317 95.5978 362.653C93.8306 363.524 91.676 364.465 89.4301 365.108C90.0261 367.417 90.0169 369.952 90.032 372.296C90.0462 374.58 86.4153 374.569 86.492 372.296L86.5289 371.198C86.595 369.352 86.703 367.436 87.1411 365.64C80.524 366.737 73.9136 364.353 72.6828 363.637C71.3243 362.847 70.0912 361.583 69.065 360.411C66.8689 357.902 65.345 354.894 63.9929 351.868C61.0968 345.388 59.0449 338.461 57.5447 331.534C52.0142 305.994 54.393 278.658 63.3746 254.176C65.6185 248.059 68.2677 242.076 71.3036 236.311L71.6805 235.598C74.7099 229.896 78.0769 224.216 82.3538 219.364C86.8086 214.311 92.3039 210.38 98.2871 207.329C101.207 205.841 104.212 204.55 107.282 203.407C107.776 203.223 108.272 203.058 108.77 202.901C111.97 200.862 115.854 198.911 119.739 198.987C120.003 198.992 120.217 199.092 120.376 199.243C120.564 199.276 120.751 199.315 120.938 199.37C121.352 199.49 121.79 199.944 121.73 200.41L121.71 200.565C121.699 200.64 121.685 200.714 121.662 200.785C121.801 200.806 121.937 200.839 122.07 200.884C125.788 199.835 129.445 198.23 133.072 196.935L133.898 196.644C136.936 195.579 140.053 194.536 142.545 192.43C145.025 190.334 146.889 187.62 148.237 184.686C149.897 181.071 150.641 177.155 152.004 173.444ZM226.426 364.107C227.162 363.559 228.033 364.195 228.308 364.872C229.212 367.095 228.765 370.55 227.491 372.516C226.17 374.553 223.009 373.749 222.933 371.282C222.853 368.709 224.349 365.653 226.426 364.107ZM234.029 302.713C234.095 302.424 234.544 302.426 234.611 302.713C235.224 305.322 235.209 308.131 235.389 310.806L235.41 311.103C235.626 314.052 235.807 317.01 235.937 319.965C236.191 325.779 236.494 331.593 236.834 337.402C237.003 340.283 237.184 343.163 237.377 346.043C237.981 345.706 238.603 345.411 239.248 345.15C240.214 344.76 241.155 344.715 242.193 344.726C243.458 344.738 244.41 345.85 244.243 347.089C244.06 348.437 242.872 349.015 241.639 348.822C240.273 348.609 238.901 348.278 237.522 348.141C237.675 350.367 237.834 352.593 238.002 354.817C238.225 357.763 238.516 360.704 238.721 363.651C238.74 363.932 238.761 364.213 238.783 364.496C239.605 364.068 240.479 363.849 241.468 363.58L241.726 363.508C243.163 363.095 244.701 362.524 246.031 363.49C246.925 364.14 247.103 365.209 246.363 366.066C245.24 367.365 243.578 367.113 242.027 367.047L241.192 367.017C240.406 366.986 239.68 366.935 238.953 366.737C239.086 368.656 239.157 370.583 238.921 372.475C238.794 373.497 237.448 373.765 237.091 372.722C236.161 369.997 235.968 367.057 235.628 364.203C235.31 361.537 235.116 358.851 234.908 356.173L234.845 355.37C234.376 349.478 234.001 343.583 233.728 337.679C233.453 331.776 233.289 325.874 233.223 319.965C233.194 317.282 233.238 314.59 233.343 311.907L233.376 311.103C233.497 308.344 233.413 305.416 234.029 302.713ZM111.021 364.542C111.057 364.165 111.359 363.696 111.808 363.755C112.222 363.808 112.649 363.783 113.058 363.851C113.599 363.941 114.034 364.26 114.537 364.461C115.354 364.787 116.245 364.956 117.083 365.223C118.656 365.725 119.513 367.38 118.862 368.926C118.177 370.551 116.455 370.92 114.968 370.238C113.796 369.701 112.922 368.842 112.134 367.847L111.91 367.564C111.571 367.137 111.185 366.66 111.043 366.143C110.904 365.638 110.972 365.055 111.021 364.542ZM187.441 356.902C189.4 356.626 191.074 357.296 192.886 357.927L193.034 357.978C194.879 358.615 197.571 359.055 198.516 360.943C199.087 362.082 198.644 363.593 197.301 363.93C195.175 364.463 193.269 362.91 191.51 361.864L191.418 361.809C189.721 360.816 187.97 359.98 186.886 358.266C186.597 357.809 186.848 356.986 187.441 356.902ZM119.049 201.143C118.264 201.319 117.479 201.474 116.695 201.624C113.712 203.222 110.817 204.88 107.738 206.304C104.47 207.815 101.215 209.375 98.1116 211.203C91.8414 214.895 86.6725 219.696 82.4014 225.581C75.0235 235.747 69.5355 247.47 65.6078 259.364C64.5987 262.42 63.6956 265.51 62.8967 268.627C64.3092 267.321 65.9815 266.518 67.8568 265.83C68.6515 265.539 69.6408 266.032 70.0436 266.72C70.2247 267.029 70.3269 267.334 70.3081 267.697C70.2664 268.497 69.7458 269.405 68.8864 269.564C66.8829 269.933 64.9349 270.651 63.0031 271.284C62.7103 271.38 62.4586 271.344 62.2576 271.23C60.3398 279.351 59.1401 287.639 58.7151 295.977C58.3557 303.036 58.5774 310.15 59.3595 317.199C59.9605 316.929 60.5484 316.676 61.2073 316.522C62.062 316.324 62.9026 316.082 63.7362 315.809C66.1419 315.02 67.2393 318.99 64.7804 319.595C63.8653 319.821 62.9446 320.007 62.0121 320.144C61.1995 320.264 60.4806 320.211 59.7145 320.086C60.2998 324.484 61.0993 328.85 62.1177 333.153L62.3424 334.095C63.6652 339.592 65.207 345.14 67.4366 350.335C68.5303 352.883 69.9784 355.303 71.7663 357.428C72.6447 358.472 73.6197 359.368 74.6829 360.216C75.568 360.923 78.5768 362.455 82.1402 362.455C85.7036 362.455 86.6682 362.118 88.466 361.499C92.0214 360.276 95.3971 358.323 98.7314 356.583L99.0762 356.404C100.551 355.642 102.019 354.868 103.484 354.087C103.299 352.594 103.623 351.34 104.401 349.961C105.242 348.47 107.327 349.213 107.482 350.738L107.487 350.797C107.51 351.141 107.568 351.491 107.64 351.841C117.435 346.477 127.022 340.737 136.457 334.757C142.535 330.904 148.548 326.936 154.473 322.852C157.435 320.811 160.371 318.733 163.278 316.614C164.801 315.504 166.316 314.385 167.825 313.256C168.454 312.786 169.07 312.292 169.7 311.82C169.547 311.628 169.398 311.437 169.253 311.248C166.901 308.17 165.375 304.5 164.615 300.715C164.156 298.431 163.934 296.06 163.867 293.731L163.837 292.718C163.791 291.012 163.778 289.227 164.093 287.574C163.665 287.809 163.228 288.04 162.792 288.286C161.228 289.172 159.663 290.056 158.095 290.935C154.955 292.696 151.806 294.436 148.617 296.106C142.921 299.09 137.169 301.927 131.262 304.471L128.387 305.709C123.399 307.854 118.369 309.961 113.182 311.555C110.257 312.454 105.87 313.567 102.903 314.254C102.903 314.254 106.479 317.622 103.891 318.781C101.303 319.94 99.1584 315.495 99.073 315.092C97.7061 315.378 93.8023 316.069 93.8023 316.069C90.0926 316.785 86.4958 318.202 83.1799 320.016C82.0272 320.647 81.706 319.422 82.9274 318.568C86.4986 316.072 90.6642 314.66 94.9623 313.475L95.1734 313.417C96.7503 312.985 98.3243 312.535 99.895 312.069C99.7223 311.444 99.6226 310.796 99.6425 310.081C99.6867 308.489 99.8275 306.892 99.9121 305.301C100.09 301.962 100.316 298.633 100.581 295.3C100.683 294.016 100.798 292.729 100.928 291.442C100.086 290.991 99.3595 290.392 98.4204 290.097L98.2619 290.051C97.2575 289.78 97.5965 288.486 98.4886 288.376C99.2968 288.276 100.101 288.322 100.898 288.493C101.021 288.519 101.138 288.549 101.249 288.583C101.396 287.392 101.558 286.203 101.743 285.021C102.23 281.899 102.576 278.609 103.591 275.609C103.667 275.387 103.997 275.307 104.119 275.54C105.596 278.35 105.648 281.797 105.814 284.925L105.835 285.299C106.031 288.713 106.042 292.16 105.979 295.578C105.914 299.101 105.793 302.614 105.635 306.134C105.572 307.551 105.574 309.021 105.333 310.377C114.125 307.519 122.761 304.099 131.04 300.05C136.879 297.194 142.669 294.223 148.392 291.14C151.259 289.596 154.14 288.077 157.005 286.527C158.008 285.983 159.011 285.438 160.014 284.893L161.517 284.073C162.924 283.305 164.099 282.542 165.737 282.488C166.226 282.472 166.664 282.701 166.975 283.047C167.855 282.423 168.873 282.039 169.942 282.048C171.549 279.828 173.182 277.626 174.879 275.471L176.134 273.877C178.304 271.125 180.603 268.331 183.371 266.237C184.606 265.303 185.965 264.602 187.382 264.022C187.049 263.941 186.722 263.777 186.432 263.507C185.078 262.253 184.892 259.923 184.617 258.172C184.332 256.357 184.442 254.732 184.723 252.922C184.833 252.219 185.998 252.073 186.282 252.719C186.882 254.08 187.516 255.386 188.062 256.763L188.223 257.178C188.808 258.728 190.055 260.359 189.972 262.041C189.95 262.502 189.796 262.904 189.557 263.227C190.746 262.832 191.953 262.48 193.141 262.113C196.88 260.958 200.633 259.835 204.444 258.939C205.459 258.701 206.478 258.479 207.502 258.276C208.038 255.731 208.82 253.232 209.741 250.779C208.869 250.332 208.304 249.583 207.553 248.917C206.849 248.293 206.366 247.533 205.766 246.816C205.22 246.165 205.527 244.987 206.508 245.025L206.786 245.037C207.803 245.084 208.788 245.189 209.71 245.663L210.038 245.833C210.489 246.067 210.982 246.334 211.421 246.651C211.995 245.33 212.592 244.022 213.196 242.728L213.979 241.053C216.009 236.696 218.033 232.172 220.582 228.114C221.715 226.311 223.223 225.184 225.388 225.01C227.617 224.83 229.934 225.062 232.166 225.142C234.753 225.235 237.34 225.344 239.924 225.48C239.262 224.786 238.657 224.014 237.992 223.348C236.887 222.244 235.72 221.198 234.494 220.23C232.066 218.316 229.396 216.738 226.624 215.38C223.85 214.021 220.996 212.837 218.392 211.158C216.745 210.096 215.272 208.76 213.929 207.313C213.083 216.433 208.678 224.907 202.06 231.272C195.186 237.884 185.687 241.516 176.394 243.061C166.916 244.637 157.024 244.059 147.956 240.765C143.281 239.067 138.797 236.641 134.799 233.597C134.755 233.862 134.702 234.124 134.598 234.37C134.459 234.7 134.288 234.982 134.093 235.272L133.744 235.782C133.524 236.102 133.3 236.42 133.05 236.717C132.446 237.436 131.59 237.751 130.667 237.748C128.901 237.742 127.564 236.011 128.039 234.299C128.338 233.223 128.977 232.575 129.975 232.154C130.29 232.021 130.611 231.91 130.934 231.8L131.177 231.717C131.504 231.606 131.828 231.499 132.164 231.437C130.271 229.767 128.514 227.95 126.941 225.989C122.006 219.841 117.14 211.23 118.789 203.064C118.818 202.924 118.944 202.836 119.08 202.814C119.176 202.24 119.481 201.686 119.899 201.313C119.617 201.239 119.334 201.182 119.049 201.143ZM170.287 342.323C171.264 341.78 172.274 343.07 171.479 343.868L170.294 345.054C169.193 346.159 168.122 347.276 167.18 348.536L166.952 348.844C165.681 350.573 164.325 352.577 162.241 353.223C159.722 354.005 157.3 350.937 158.759 348.695C160.034 346.736 162.489 345.997 164.605 345.187C166.607 344.421 168.415 343.363 170.287 342.323ZM88.9951 333.283C89.5692 332.532 91.0663 332.927 90.6741 333.991C89.4001 337.443 88.8809 342.151 85.6634 344.445C84.6254 345.185 82.9948 344.845 82.1402 343.991C81.1691 343.02 81.1302 341.653 81.6856 340.469C82.3629 339.024 84.0289 337.977 85.1967 336.876L85.3014 336.776C86.5577 335.556 87.9165 334.694 88.9951 333.283ZM223.47 337.257C224.494 336.815 227.165 335.957 227.957 336.973C227.994 337.01 228.025 337.051 228.051 337.095C228.245 337.433 228.274 337.908 228.051 338.243C227.129 339.629 226.168 340.663 224.857 341.649L224.709 341.759C223.282 342.808 221.941 344.04 220.201 344.514C217.79 345.169 216.106 342.152 217.799 340.389C219.164 338.97 221.246 338.233 223.054 337.441L223.47 337.257ZM126.647 317.528C126.243 316.8 127.067 315.905 127.814 316.361C129.942 317.662 132.422 318.638 134.813 319.339C135.781 319.623 136.654 320.603 136.582 321.661L136.571 321.822C136.543 322.195 136.491 322.566 136.253 322.877C135.421 323.966 134.229 324.386 132.957 323.741C130.122 322.305 128.181 320.3 126.647 317.528ZM188.869 315.321C188.817 315.015 189.041 314.778 189.353 314.837C191.152 315.178 192.813 316.047 194.358 317.045C195.187 317.581 195.986 318.169 196.813 318.71C197.834 319.378 198.216 319.929 198.367 321.155C198.467 321.964 197.711 322.703 197.018 322.926C195.13 323.535 192.967 321.537 191.687 320.24L191.63 320.181C190.291 318.817 189.186 317.203 188.869 315.321ZM242.904 313.201C242.494 312.094 243.907 311.176 244.831 311.72C245.702 312.232 246.646 312.657 247.467 313.243C248.221 313.782 248.909 314.421 249.633 315.006L249.99 315.289C251.317 316.355 253.507 318.992 251.61 320.522C249.804 321.978 247.41 320.119 246.198 318.759L246.114 318.663C245.417 317.858 244.557 316.983 244.051 316.042C243.575 315.157 243.252 314.141 242.904 313.201ZM225.097 227.5C222.836 227.939 221.914 230.73 220.961 232.549C218.714 236.841 216.647 241.213 214.571 245.59C213.932 246.936 213.31 248.293 212.682 249.647C212.643 249.753 212.594 249.857 212.536 249.961C211.25 252.729 209.925 255.479 208.377 258.107C209.794 257.842 211.218 257.616 212.648 257.438C212.576 256.092 213.497 254.292 213.953 253.159L213.991 253.063C214.56 251.611 215.156 249.325 216.619 248.571C217.107 248.321 217.628 248.635 217.666 249.172C217.777 250.769 216.213 252.598 215.449 253.954C214.987 254.775 214.537 255.599 214.098 256.432C213.933 256.744 213.796 257.05 213.627 257.325C214.364 257.245 215.102 257.174 215.842 257.122L216.325 257.089C219.069 256.909 221.983 256.857 224.462 258.21C226.762 259.464 227.938 262.143 226.674 264.581C225.1 267.62 221.633 268.022 218.585 268.269C214.777 268.576 210.961 269.13 207.18 269.671C203.27 270.23 199.587 271.671 195.735 272.412C195.376 272.481 195.153 272.012 195.482 271.812C198.521 269.963 202.215 268.945 205.612 267.909L205.887 267.825C207.73 267.259 209.531 266.613 211.437 266.292C213.288 265.98 215.15 265.728 217.017 265.536L217.198 265.519C219.253 265.347 224.496 265.405 224.274 262.364C224.128 260.35 220.854 260.003 219.36 259.979C212.509 259.869 205.609 261.687 199.098 263.635L197.644 264.07C194.978 264.872 192.308 265.697 189.693 266.637C186.728 267.702 184.393 269.363 182.233 271.637C179.84 274.157 177.521 276.734 175.037 279.17C173.472 280.705 171.886 282.213 170.287 283.709C169.926 284.177 169.637 284.685 169.437 285.345C169.099 286.459 169.177 287.495 169.304 288.639C169.626 291.53 169.697 294.45 170.101 297.332C170.475 300.001 170.998 302.769 172.106 305.245C172.546 306.226 173.117 307.189 173.768 308.05L174.293 308.733C174.522 309.029 174.778 309.354 175.047 309.659C175.442 309.178 176.013 308.864 176.676 308.943C178.087 309.109 179.196 309.069 180.579 308.745C181.65 308.494 182.713 308.201 183.779 307.929C185.873 307.395 187.986 306.909 190.058 306.296L190.415 306.189C191.959 305.715 193.504 305.122 194.789 304.126C196.283 302.967 196.742 301.296 197.848 299.851C200.21 296.766 205.315 296.831 208.771 295.986C211.708 295.268 214.534 294.135 216.567 292.004L216.685 291.877C216.595 291.497 216.741 291.068 217.095 290.871L217.172 290.828C217.309 290.752 217.458 290.72 217.603 290.723C217.792 290.446 217.974 290.16 218.139 289.855C218.275 289.604 218.615 289.789 218.571 290.037C218.544 290.185 218.507 290.329 218.472 290.474C220.441 289.968 222.604 290.064 224.603 290.066L227.197 290.057C227.646 290.051 228.315 290.029 228.374 290.002L228.435 289.974C228.597 289.904 228.367 290.02 228.48 289.87C228.605 289.705 228.727 289.538 228.847 289.369C229.277 288.767 229.684 288.148 230.083 287.523C225.738 288.629 221.238 289.317 216.803 289.891C212.044 290.508 207.222 290.935 202.421 290.94C201.097 290.941 201.109 288.944 202.421 288.894C207.505 288.7 212.562 288.43 217.612 287.779C220.224 287.442 222.824 287.019 225.41 286.524C226.409 286.334 227.405 286.131 228.398 285.918L229.143 285.755C229.61 285.652 230.93 285.503 231.574 285.071C231.701 284.854 231.827 284.637 231.953 284.42C231.891 283.657 229.952 283.759 229.497 283.758C228.208 283.756 226.919 283.766 225.629 283.769C223.051 283.777 220.473 283.755 217.894 283.734C212.742 283.692 207.571 283.512 202.423 283.732C201.174 283.785 200.517 281.782 201.752 281.255C207.205 278.928 213.257 278.422 219.079 277.707C222.141 277.331 225.204 276.896 228.197 276.135L228.937 275.947C230.817 275.465 232.894 274.878 234.477 273.729C232.097 272.767 229.139 272.877 226.672 272.741L226.484 272.73C223.03 272.518 219.569 272.409 216.109 272.404C209.028 272.395 201.946 272.645 194.873 272.981C194.695 272.989 194.659 272.709 194.831 272.672C202.101 271.086 209.489 270.322 216.928 270.205C220.393 270.15 223.859 270.199 227.321 270.352L228.591 270.411C231.543 270.538 234.818 270.572 237.287 272.354C237.664 272.625 237.862 272.972 237.893 273.339C241.205 266.739 244.264 260.002 247.335 253.309C249.723 248.105 252.021 242.857 254.496 237.694L255.297 236.024C256.369 233.795 257.468 231.565 258.689 229.417C254.126 228.808 249.537 228.384 244.946 228.06C240.762 227.764 227.111 227.11 225.097 227.5ZM223.077 299.027C223.597 298.738 224.394 298.973 224.522 299.615C224.618 300.092 224.781 300.623 224.781 301.111C224.781 301.697 224.571 302.333 224.46 302.905C224.203 304.222 223.887 305.292 223.217 306.466C222.798 307.2 221.952 307.698 221.101 307.678C220.428 307.663 219.831 307.482 219.369 306.961C218.815 306.337 218.435 305.419 218.739 304.578C219.534 302.376 220.997 300.181 223.077 299.027ZM112.701 296.83C113.919 294.697 116.805 292.792 119.324 292.981C123.106 293.264 123.878 298.355 120.216 299.57C118.027 300.295 115.016 299.55 113.101 298.355C112.585 298.033 112.396 297.364 112.701 296.83ZM73.8304 289.545C73.5538 289.144 74.0109 288.684 74.423 288.775C75.337 288.975 76.3223 289.063 77.2175 289.336C78.1343 289.614 79.0217 290.077 79.9298 290.395C81.8322 291.061 83.8642 291.395 85.7053 292.199C86.4412 292.521 87.0201 293.586 86.9521 294.372L86.9347 294.556C86.894 294.945 86.8264 295.286 86.6083 295.642C86.0224 296.598 84.8616 297.093 83.7659 296.798C81.7333 296.252 79.7472 294.85 78.0142 293.685L77.694 293.472C76.9368 292.974 76.1226 292.452 75.5125 291.81C74.8756 291.14 74.3522 290.304 73.8304 289.545ZM143.7 281.791C143.466 280.949 144.514 280.392 145.126 280.961C146.347 282.099 147.623 283.153 148.819 284.319L148.899 284.399C149.756 285.259 151.002 286.917 149.888 288.03C148.461 289.457 146.474 287.34 145.708 286.237C144.737 284.838 144.154 283.427 143.7 281.791ZM237.142 274.827C235.331 276.745 232.54 277.627 230.082 278.357C227.169 279.223 224.167 279.74 221.162 280.165C218.258 280.576 215.377 280.944 212.519 281.415C214.681 281.442 216.842 281.458 218.999 281.497C221.486 281.542 223.972 281.595 226.458 281.668C228.269 281.72 230.394 281.472 232.114 282.145C232.425 282.266 232.714 282.433 232.967 282.638C234.414 280.066 235.801 277.459 237.142 274.827ZM125.411 256.89C127.301 256.29 129.079 255.494 131.083 255.7C131.616 255.755 131.998 256.273 131.707 256.786C130.757 258.457 129.212 259.4 127.692 260.518L127.558 260.617C125.894 261.854 124.107 262.982 122.297 263.997C119.181 265.745 116.389 260.742 119.536 259.274C121.429 258.391 123.418 257.523 125.411 256.89ZM159.45 252.547C162.343 252.737 165.233 252.867 168.129 252.984C171.484 253.119 170.356 258.28 167.554 257.236C164.785 256.204 162.017 255.185 159.223 254.222C158.373 253.929 158.441 252.533 159.396 252.545L159.45 252.547ZM85.2612 243.366C86.0109 243.314 86.767 243.477 87.5178 243.55L88.3166 243.628C89.9634 243.791 91.5075 243.993 93.078 244.663C95.9758 245.9 94.4194 250.557 91.5104 250.45C89.3602 250.371 87.5217 249.447 85.706 248.373C84.1188 247.433 83.1458 246.258 82.074 244.783C81.719 244.294 82.2136 243.747 82.6971 243.698C83.5486 243.611 84.4094 243.426 85.2612 243.366ZM230.522 233.856C230.042 236.847 228.852 239.651 227.058 242.092C226.157 243.318 224.575 243.365 223.681 242.092C222.418 240.291 223.197 238.228 224.149 236.498L224.43 235.991C224.857 235.232 225.511 234.124 226.259 233.359L226.272 233.281C226.673 230.149 231.016 230.774 230.522 233.856ZM113.529 214.659C114.25 214.01 115.578 214.205 115.812 215.262C116.14 216.742 116.339 218.409 116.125 219.911C116.009 220.725 115.965 221.64 115.645 222.398C115.3 223.214 114.638 223.841 114.014 224.455C112.769 225.679 110.143 225.274 109.809 223.345L109.766 223.108C109.599 222.195 109.384 221.219 109.632 220.314C109.82 219.632 110.239 218.935 110.586 218.302L110.659 218.167C111.354 216.874 112.437 215.642 113.529 214.659ZM214.889 217.808L215.15 217.811C217.163 217.85 220.843 218.34 220.862 220.826C220.867 221.412 220.433 222.02 219.851 222.155C218.648 222.433 217.87 221.723 217.013 221.005C216.311 220.418 215.494 219.949 214.645 219.611C213.728 219.247 213.788 217.806 214.889 217.808Z" fill="white"/>
<path fill-rule="evenodd" clip-rule="evenodd" d="M217.414 135.445C216.813 130.152 217.591 119.088 217.643 118.416C217.973 114.166 215.985 97.3859 212.228 98.932C205.925 93.9337 197.531 92.83 189.682 92.3028C173.377 91.2075 156.033 93.7219 143.443 104.714C137.217 110.423 131.155 118.725 131.642 127.37C125.985 135.565 118.011 146.805 125.059 156.385C127.455 159.446 131.262 160.585 134.272 162.903C140.326 167.795 144.124 174.815 150.235 179.678C166.426 194.253 193.917 197.298 209.824 180.72C222.125 168.713 220.136 150.751 217.973 135.445C216.518 125.154 218.587 145.771 217.414 135.445Z" fill="#EDB68F"/>
<path fill-rule="evenodd" clip-rule="evenodd" d="M167.901 69.8547C172.262 68.9732 176.739 68.4247 181.192 68.5898L181.535 68.6032C184.886 68.7373 189.129 69.0341 192.052 70.9858C192.22 70.8168 192.49 70.7301 192.736 70.8473C196.209 72.5082 200.029 73.709 203.686 74.9022C207.327 76.0896 211.103 76.8735 214.919 77.1894C216.354 77.3083 217.583 78.8612 216.674 80.254C216.458 80.5859 216.247 80.9211 216.037 81.2572C216.388 81.2205 216.739 81.1828 217.09 81.1472C218.244 81.0308 219.398 82.2652 219.329 83.3913C219.286 84.0996 219.21 84.7995 219.097 85.491C219.537 85.4817 219.974 85.5478 220.397 85.7266C222.535 86.6313 222.386 89.1832 222.226 91.1248C222.004 93.8191 220.999 96.6729 219.131 98.6895C220.525 100.14 221.513 101.873 222.101 103.931C222.528 105.434 222.766 107.035 222.649 108.599L222.611 109.067C222.466 110.765 222.178 112.644 220.959 113.866C220.333 114.495 219.562 114.725 218.827 114.652C219.272 118.564 219.557 122.499 219.825 126.419L219.95 128.293C220.549 137.355 220.998 146.475 220.881 155.551C220.771 164.033 219.098 172.266 213.906 179.153C209.176 185.424 202.386 190.047 194.704 191.805C190.564 192.754 186.338 192.821 182.148 192.216C180.116 191.922 178.072 191.472 176.144 190.761C174.01 189.972 172.477 188.811 171.041 187.07C170.362 186.244 170.689 184.487 172.041 184.652C174.086 184.901 175.953 185.2 177.914 185.806L178.195 185.895C180.147 186.521 182.17 186.989 184.212 187.187C188.394 187.593 192.639 187.185 196.645 185.914C203.168 183.843 208.785 179.229 212.386 173.43C216.66 166.557 217.143 158.755 217.081 150.853C217.015 142.181 216.734 133.504 216.274 124.841L216.196 123.397C215.953 118.939 215.718 114.479 215.512 110.018C215.448 108.619 215.35 107.208 215.173 105.812C213.562 104.866 212.118 103.562 211.176 101.953C209.285 102.736 207.296 103.302 205.466 103.752C201.228 104.797 196.827 105.05 192.513 104.396C191.349 104.878 190.162 105.301 188.957 105.665C188.631 105.81 188.306 105.952 187.98 106.092C185.075 107.337 182.128 108.392 179.061 109.164L178.307 109.353C176.693 109.751 174.94 110.144 173.223 110.267C172.94 110.376 172.636 110.468 172.303 110.55C170.739 110.93 169.116 111.05 167.513 110.916C165.951 110.785 164.823 109.203 165.683 107.723C166.311 106.643 166.946 105.566 167.586 104.491C165.359 105.42 163.06 106.192 160.742 106.847C158.401 107.508 156.027 108.065 153.649 108.577C152.378 108.848 151.102 109.089 149.834 109.36C148.926 109.553 147.532 109.654 146.791 110.253C145.973 110.911 145.741 112.444 145.431 113.39C145.023 114.618 144.64 115.853 144.291 117.101C143.596 119.591 143.026 122.118 142.585 124.67C142.143 127.225 141.847 129.806 141.682 132.394C141.518 134.98 141.59 137.582 141.325 140.157C141.182 141.523 139.719 142.225 138.638 141.271C138.511 141.159 138.383 141.046 138.256 140.931L138.068 140.759C137.143 139.919 136.246 139.029 135.506 138.027C135.372 137.843 135.244 137.65 135.124 137.454C135.104 137.454 135.087 137.448 135.068 137.434L134.863 137.279C132.603 135.595 128.829 133.399 126.626 136.197C125.924 137.089 125.565 138.224 125.266 139.319L124.743 141.279C124.404 142.559 124.086 143.846 123.899 145.155C123.478 148.088 123.69 151.468 125.704 153.819C126.509 154.759 127.618 155.431 128.855 155.607C129.545 155.702 130.227 155.585 130.911 155.498C131.607 155.411 132.277 155.551 132.973 155.484C134.079 155.375 134.562 156.701 134.149 157.535C133.925 157.983 133.662 158.369 133.364 158.697C133.604 158.904 133.833 159.128 134.054 159.363C134.707 159.573 135.294 160.023 135.733 160.619C136.087 161.1 136.271 161.624 136.302 162.175C136.341 162.312 136.375 162.452 136.406 162.595L137.005 163.569C137.137 163.783 137.268 163.994 137.4 164.201C138.925 166.608 140.618 168.645 142.722 170.565C144.747 172.412 146.945 174.066 148.848 176.047L149.072 176.282C150.845 178.155 152.715 180.421 152.021 183.144C151.842 183.843 150.867 184.347 150.23 183.874C148.183 182.352 147.152 179.94 145.414 178.093C143.626 176.19 141.646 174.48 139.853 172.582C138.157 170.791 136.819 168.763 135.811 166.529C135.408 166.974 134.822 167.291 134.009 167.414C132.612 167.624 131.31 166.804 130.702 165.592C130.31 165.765 129.911 165.922 129.509 166.045C127.391 166.695 126.059 164.335 126.858 162.592C127.285 161.657 127.819 160.846 128.481 160.163C126.411 159.878 124.304 158.806 122.944 157.468C119.531 154.107 119.062 149.056 119.83 144.565C120.238 142.183 120.941 139.774 121.855 137.538C122.014 137.149 122.185 136.757 122.371 136.371C122.268 136.368 122.162 136.323 122.095 136.236C121.478 135.391 120.726 134.7 120.268 133.754C119.846 132.887 119.377 132.008 119.045 131.104C118.36 129.254 118.025 127.167 117.802 125.211C117.341 121.206 117.519 117.227 118.131 113.247C119.173 106.469 121.689 99.9832 125.396 94.2918C125.195 94.1855 125.001 94.0572 124.821 93.9056L124.732 93.8278L124.587 93.6968C123.529 92.7378 123.621 90.9404 124.587 89.969L124.892 89.6625C125.279 89.2778 125.612 88.973 126.237 88.5541C126.329 88.4923 126.423 88.4341 126.518 88.3798C126.191 87.7748 126.078 87.0673 126.306 86.2868C127.099 83.5679 131.004 83.6641 133.479 84.8498C136.218 82.4015 139.254 80.2761 142.545 78.555C150.384 74.4581 159.247 71.6009 167.901 69.8547ZM127.383 141.467C128.847 140.988 130.791 141.993 132.107 142.597C133.774 143.364 135.193 144.497 136.568 145.695C137.252 146.294 137.375 147.273 137.205 148.11C137.188 148.194 137.171 148.281 137.151 148.368C136.97 149.26 135.975 149.963 135.095 149.938C133.255 149.887 132.378 148.295 131.336 146.946C131.213 147.164 131.059 147.366 130.869 147.517L130.741 147.618C130.308 147.947 129.831 148.211 129.26 148.186C128.855 148.166 128.467 148.063 128.109 147.875C127.215 147.402 126.822 146.244 127.064 145.301C127.215 144.707 127.562 144.243 128.014 143.921L127.846 143.805C127.485 143.554 127.155 143.288 126.899 142.897L126.841 142.804H126.863C126.584 142.323 126.766 141.668 127.383 141.467Z" fill="black"/>
<path fill-rule="evenodd" clip-rule="evenodd" d="M196.522 169.629C194.46 170.226 192.247 170.279 190.145 169.663C188.238 169.103 186.28 167.873 184.877 166.244C183.631 164.797 182.824 163.038 182.855 161.162C182.859 160.947 182.936 160.768 183.053 160.629C183.18 160.48 183.358 160.377 183.548 160.333C183.743 160.287 183.95 160.303 184.126 160.383C184.285 160.455 184.421 160.578 184.506 160.757C184.722 161.041 184.937 161.32 185.153 161.591C186.886 163.731 188.566 165.331 191.173 165.904C192.587 166.216 194 166.078 195.297 165.603C196.684 165.094 197.939 164.2 198.922 163.056C199.366 162.539 199.89 162.328 200.403 162.325C200.984 162.321 201.559 162.591 201.991 163.022C202.417 163.446 202.702 164.022 202.727 164.625C202.75 165.154 202.577 165.707 202.118 166.2C200.605 167.825 198.644 169.015 196.522 169.629ZM196.459 142.822C198.572 144.107 201.793 147.102 199.519 150.286C196.843 153.094 192.989 149.875 191.089 148.419C189.329 147.291 187.35 150.193 188.984 151.51C202.707 161.667 208.276 143.158 197.528 141.312C196.344 141.109 195.905 142.425 196.459 142.822ZM176.685 137.17C176.005 136.736 175.206 136.587 174.32 136.99C173.628 137.304 172.414 138.353 171.569 139.732C170.991 140.676 170.581 141.783 170.667 142.935C170.686 143.203 170.587 143.4 170.431 143.546C170.308 143.662 170.13 143.746 169.921 143.773C169.743 143.795 169.545 143.775 169.383 143.725C169.076 143.629 168.913 143.429 168.852 143.267C168.26 141.696 168.515 139.944 169.178 138.362C170.073 136.229 171.697 134.441 172.762 133.865C174.584 132.878 176.733 132.833 178.557 133.838C180.11 134.693 181.081 136.074 182.047 137.482C182.252 137.781 182.456 138.078 182.666 138.37C183.088 138.955 183.13 139.535 182.967 140.032C182.786 140.583 182.324 141.048 181.747 141.291C181.213 141.516 180.594 141.547 180.046 141.316C179.583 141.121 179.158 140.741 178.889 140.095C178.437 139.008 177.682 137.808 176.685 137.17V137.17ZM211.19 139.589C210.725 139.832 210.361 139.905 209.845 139.75C209.559 139.664 209.277 139.5 209.056 139.279C208.837 139.061 208.68 138.788 208.618 138.487C208.467 137.742 208.059 137.044 207.478 136.59C206.982 136.201 206.355 135.995 205.659 136.111C204.909 136.236 204.194 136.717 203.702 137.285C203.537 137.474 203.408 137.69 203.279 137.904C203.036 138.304 202.8 138.677 202.466 138.971C202.339 139.082 202.148 139.16 201.963 139.16C201.887 139.16 201.811 139.148 201.738 139.125C200.992 138.376 200.848 137.807 200.872 137.243C200.897 136.652 201.13 136.054 201.507 135.495C202.391 134.185 204.069 133.111 205.202 132.867C206.753 132.534 208.293 132.934 209.528 133.8C210.799 134.691 211.74 136.074 212.034 137.633C212.104 138.009 212.074 138.414 211.931 138.766C211.792 139.109 211.548 139.403 211.19 139.589ZM180.105 123.201C179.174 124.108 178.073 124.248 176.958 124.373C176.339 124.443 175.845 124.5 175.358 124.609C174.021 124.911 172.7 125.365 171.494 126.02C170.233 126.704 168.86 127.529 167.872 128.586C167.637 128.838 167.415 129.102 167.193 129.366C166.991 129.607 166.796 129.84 166.591 130.063C166.355 130.321 166.131 130.59 165.908 130.859C165.771 131.086 165.743 131.142 165.716 131.2C165.674 131.287 165.625 131.385 165.57 131.489C165.494 131.633 165.405 131.79 165.312 131.932C165.157 132.193 165.074 132.264 165.002 132.296C164.882 132.349 164.769 132.376 164.66 132.361C164.557 132.348 164.46 132.299 164.364 132.218C163.886 131.814 163.745 131.152 163.76 130.449C163.782 129.382 164.175 128.2 164.538 127.474C165.382 125.787 166.552 124.033 167.959 122.773C169.565 121.336 171.322 120.248 173.34 119.498C174.593 119.031 176.045 118.604 177.411 118.658C178.395 118.696 179.333 118.989 180.109 119.718C180.585 120.166 180.813 120.804 180.813 121.44C180.813 122.09 180.576 122.743 180.105 123.201ZM213.083 131.503C213.024 131.6 212.942 131.667 212.851 131.707C212.755 131.749 212.649 131.761 212.546 131.744C212.444 131.727 212.347 131.68 212.271 131.61C212.197 131.542 212.141 131.452 212.116 131.342C211.498 128.629 210.298 126.61 207.737 125.309C206.477 124.668 205.028 124.261 203.657 123.937C203.259 123.843 202.837 123.782 202.413 123.72C201.084 123.526 199.746 123.304 198.879 122.23C198.357 121.583 198.138 120.755 198.262 119.999C198.379 119.286 198.795 118.633 199.552 118.242C201.437 117.268 203.779 118.223 205.682 119.038C205.823 119.098 205.962 119.157 206.097 119.215C207.958 120 209.656 121.037 211.051 122.519C212.158 123.695 213.184 125.434 213.597 127.223C213.941 128.711 213.86 130.23 213.083 131.503Z" fill="black"/>
<path fill-rule="evenodd" clip-rule="evenodd" d="M171.52 171.598C173.786 166.29 178.733 162.389 184.428 160.963C188.61 159.918 192.999 159.952 197.263 160.366C199.496 160.582 201.892 160.759 203.997 161.588C205.795 162.297 207.26 163.636 208.361 165.208C209.672 167.07 210.564 169.202 211.19 171.387C211.279 171.698 211.363 172.011 211.441 172.325C211.168 173.974 210.59 175.377 209.063 176.414C207.572 177.426 205.794 177.84 204.021 177.987C203.847 177.904 203.679 177.818 203.525 177.73C200.762 176.149 198.817 172.412 195.33 172.918C192.218 173.369 190.169 177.284 188.319 179.579C182.378 180.271 176.442 178.487 171.608 175.091C171.363 173.929 171.349 172.757 171.52 171.598M215.478 167.572C215.003 166.238 214.405 164.947 213.695 163.731C211.35 159.708 207.749 156.503 203.474 154.671C193.363 150.343 180.279 153.394 172.114 160.492C169.324 162.919 166.504 166.485 165.651 170.321C165.396 170.371 165.156 170.504 164.958 170.69C159.058 166.977 152.982 163.404 148.228 158.257C144.776 154.517 142.374 150.091 140.904 145.227C140.783 144.827 140.138 144.886 140.157 145.329C140.163 145.432 140.168 145.536 140.174 145.639C140.113 145.449 139.822 145.547 139.799 145.732C139.008 151.64 138.019 157.904 138.93 163.843C139.475 167.387 141.085 169.981 143.238 172.783C145.544 175.785 148.155 178.578 150.825 181.257C152.519 182.957 154.289 184.918 156.363 186.165C158.776 187.613 161.513 188.714 164.087 189.832C166.707 190.972 169.366 192.025 172.074 192.939C177.489 194.771 183.086 196.037 188.781 196.592C193.34 197.034 198.551 197.516 202.921 195.802C206.27 194.488 208.973 192.112 211.118 189.255C213.452 186.142 215.297 182.597 216.317 178.859C217.377 174.975 215.702 168.198 215.478 167.572" fill="black"/>
<path fill-rule="evenodd" clip-rule="evenodd" d="M226.208 135.524C223.539 153.571 204.909 155.567 201.599 137.651C202.13 137.418 202.512 136.96 202.432 136.071C202.413 132.167 203.626 128.041 207.149 125.869C210.79 123.629 215.051 123.407 219.264 123.463C227.304 123.272 227.135 129.99 226.208 135.524M198.682 127.675C196.159 127.569 192.966 127.658 190.706 129.195C190.085 127.522 188.47 125.736 186.838 124.781C192.902 124.958 199.144 124.361 205.253 123.898C203.791 124.895 202.431 126.392 201.546 128.123C200.726 127.685 199.551 127.726 198.682 127.675M187.56 137.437C180.563 161.514 163.098 151.02 161.194 147.934C157.759 142.828 157.113 130.416 160.105 127.097C164.387 124.096 170.45 124.869 175.509 124.795C184.803 124.921 191.403 127.7 187.56 137.437M234.47 126.364C232.569 126.115 230.537 126.065 228.77 126.902C228.225 124.59 226.517 122.656 224.588 121.806C224.355 121.513 224.39 121.356 223.592 121.4C218.695 119.928 213.215 120.707 208.508 122.216C201.076 122.841 193.278 123.335 185.783 124.197C178.761 121.045 157.573 120.583 156.256 128.352C154.6 128.104 151.779 126.801 150.387 128.569C140.178 126.839 129.628 129.243 119.375 130.314C116.794 130.789 115.465 135.91 118.394 135.84C120.041 135.393 118.344 132.652 120.561 132.445C130.454 131.365 140.131 129.833 150.125 129.653C149.778 131.379 156.736 131.491 156.838 130.483C156.853 130.491 156.869 130.496 156.884 130.503C155.165 136.908 156.717 146.127 159.824 150.099C164.177 155.3 175.107 156.792 179.954 153.446C186.205 150.357 192.709 134.853 190.882 129.703C194.198 128.652 197.475 128.967 200.916 129.502C200.128 131.727 198.768 137.203 200.725 137.678C200.366 148.55 210.263 155.333 219.387 150.874C227.284 147.168 230.046 135.437 229.08 128.317C230.063 130.216 238.318 128.149 234.47 126.364" fill="black"/>
</g>
<defs>
<clipPath id="clip0_3139_28259">
<rect width="318" height="372" fill="white"/>
</clipPath>
</defs>
</svg>
