<svg width="24" height="25" viewBox="0 0 24 25" fill="none" xmlns="http://www.w3.org/2000/svg">
<path d="M14.8902 18.7197H6.10019C5.58019 18.7197 5.09018 18.6698 4.65018 18.5698C4.42018 18.5398 4.14019 18.4597 3.85019 18.3497C2.52019 17.8497 0.950195 16.6198 0.950195 13.5598V8.40973C0.950195 5.13973 2.83019 3.25977 6.10019 3.25977H14.8902C17.6502 3.25977 19.4302 4.57974 19.9102 6.97974C20.0002 7.41974 20.0402 7.88973 20.0402 8.40973V13.5598C20.0402 16.8498 18.1702 18.7197 14.8902 18.7197ZM6.11017 4.77979C3.65017 4.77979 2.46017 5.96975 2.46017 8.42975V13.5798C2.46017 15.3698 3.09019 16.4698 4.38019 16.9598C4.58019 17.0298 4.7702 17.0797 4.9502 17.1097C5.3302 17.1897 5.70017 17.2297 6.11017 17.2297H14.9002C17.3602 17.2297 18.5502 16.0398 18.5502 13.5798V8.42975C18.5502 8.00975 18.5202 7.63974 18.4502 7.29974C18.1102 5.59974 16.9502 4.77979 14.9002 4.77979H6.11017Z" fill="#1FBAD6"/>
<path d="M17.8901 21.7203H9.10009C8.25009 21.7203 7.49008 21.6003 6.84008 21.3503C5.37008 20.8003 4.41007 19.6403 4.08007 17.9803C4.03007 17.7303 4.11009 17.4703 4.29009 17.3003C4.47009 17.1203 4.7301 17.0503 4.9801 17.1103C5.3101 17.1803 5.68009 17.2203 6.10009 17.2203H14.8901C17.3501 17.2203 18.5401 16.0304 18.5401 13.5704V8.42033C18.5401 8.00033 18.5101 7.63033 18.4401 7.29033C18.3901 7.04033 18.4701 6.79033 18.6401 6.61033C18.8201 6.43033 19.0701 6.35032 19.3201 6.41032C21.7201 6.90032 23.0401 8.68033 23.0401 11.4203V16.5704C23.0401 19.8504 21.1701 21.7203 17.8901 21.7203ZM5.9201 18.7203C6.2401 19.3003 6.72009 19.7104 7.38009 19.9504C7.86009 20.1304 8.44007 20.2203 9.11007 20.2203H17.9001C20.3601 20.2203 21.5501 19.0304 21.5501 16.5704V11.4203C21.5501 9.84033 21.0601 8.79034 20.0501 8.24034C20.0501 8.30034 20.0501 8.36033 20.0501 8.42033V13.5704C20.0501 16.8404 18.1701 18.7203 14.9001 18.7203H6.11007C6.04007 18.7203 5.9801 18.7203 5.9201 18.7203Z" fill="#1FBAD6"/>
<path d="M10.4999 14.3904C8.62988 14.3904 7.10986 12.8704 7.10986 11.0004C7.10986 9.13037 8.62988 7.61035 10.4999 7.61035C12.3699 7.61035 13.8899 9.13037 13.8899 11.0004C13.8899 12.8704 12.3699 14.3904 10.4999 14.3904ZM10.4999 9.11035C9.45988 9.11035 8.60986 9.96037 8.60986 11.0004C8.60986 12.0404 9.45988 12.8904 10.4999 12.8904C11.5399 12.8904 12.3899 12.0404 12.3899 11.0004C12.3899 9.96037 11.5399 9.11035 10.4999 9.11035Z" fill="#1FBAD6"/>
<path d="M4.78027 13.9498C4.37027 13.9498 4.03027 13.6098 4.03027 13.1998V8.7998C4.03027 8.3898 4.37027 8.0498 4.78027 8.0498C5.19027 8.0498 5.53027 8.3898 5.53027 8.7998V13.1998C5.53027 13.6098 5.20027 13.9498 4.78027 13.9498Z" fill="#1FBAD6"/>
<path d="M16.21 13.9498C15.8 13.9498 15.46 13.6098 15.46 13.1998V8.7998C15.46 8.3898 15.8 8.0498 16.21 8.0498C16.62 8.0498 16.96 8.3898 16.96 8.7998V13.1998C16.96 13.6098 16.63 13.9498 16.21 13.9498Z" fill="#1FBAD6"/>
</svg>
