<svg width="80" height="80" viewBox="0 0 80 80" fill="none" xmlns="http://www.w3.org/2000/svg">
<path d="M59.5669 72.9001C58.5336 72.9001 57.5003 72.6335 56.5669 72.0668L43.2003 64.1335C41.8003 64.1001 40.4003 64.0002 39.0669 63.8002C38.1669 63.6669 37.4002 63.0667 37.0669 62.2001C36.7336 61.3334 36.9003 60.4001 37.5003 59.7001C39.7003 57.1334 40.8336 54.0668 40.8336 50.8001C40.8336 42.7335 33.7336 36.1667 25.0003 36.1667C21.7336 36.1667 18.6002 37.0669 15.9669 38.8002C15.2336 39.2669 14.3336 39.3335 13.5336 38.9668C12.7669 38.6002 12.2003 37.8667 12.1003 37.0001C12.0003 36.0667 11.9336 35.1335 11.9336 34.1668C11.9336 17.6335 26.2669 4.2002 43.8669 4.2002C61.4669 4.2002 75.8003 17.6335 75.8003 34.1668C75.8003 43.2335 71.6002 51.5668 64.2002 57.2668L65.3336 66.3336C65.6003 68.6002 64.6002 70.7336 62.7002 71.9669C61.7669 72.5669 60.6669 72.9001 59.5669 72.9001ZM43.8336 59.1001C44.3002 59.0668 44.7669 59.2003 45.1669 59.4669L59.1336 67.7669C59.5003 68.0002 59.8003 67.9002 60.0003 67.7669C60.1669 67.6669 60.4336 67.4002 60.3669 66.9336L59.0669 56.4001C58.9669 55.4668 59.3669 54.5669 60.1002 54.0336C66.9002 49.2669 70.8003 42.0001 70.8003 34.1001C70.8003 20.3334 58.7336 9.13346 43.8669 9.13346C29.5669 9.13346 17.8336 19.5336 16.9669 32.6003C19.4669 31.6336 22.1669 31.1002 24.9669 31.1002C36.4669 31.1002 45.8003 39.9001 45.8003 50.7334C45.8336 53.6667 45.1336 56.5001 43.8336 59.1001Z" fill="#1FBAD6"/>
<path d="M15.2659 75.8337C14.3992 75.8337 13.5659 75.6005 12.7992 75.1005C11.2992 74.1338 10.4993 72.4671 10.6993 70.7004L11.3659 65.567C6.86592 61.9003 4.19922 56.467 4.19922 50.767C4.19922 44.267 7.59926 38.2003 13.2993 34.567C16.7326 32.3337 20.7992 31.1338 25.0326 31.1338C36.5326 31.1338 45.8659 39.9336 45.8659 50.767C45.8659 55.167 44.2659 59.5004 41.3326 62.9337C37.5659 67.5004 31.9326 70.167 25.7326 70.367L17.5992 75.2004C16.8659 75.6337 16.0659 75.8337 15.2659 75.8337ZM24.9992 36.1338C21.7326 36.1338 18.5992 37.0337 15.9659 38.767C11.6992 41.5004 9.1659 45.967 9.1659 50.767C9.1659 55.4003 11.4326 59.6338 15.4326 62.3671C16.1993 62.9004 16.5992 63.8003 16.4992 64.7336L15.7659 70.4337L23.7326 65.7004C24.1326 65.4671 24.5659 65.3336 24.9992 65.3336C29.8992 65.3336 34.5326 63.2338 37.4659 59.6671C39.6659 57.0671 40.8326 54.0003 40.8326 50.7336C40.8326 42.7003 33.7326 36.1338 24.9992 36.1338Z" fill="#1FBAD6"/>
</svg>
