<svg width="32" height="32" viewBox="0 0 32 32" fill="none" xmlns="http://www.w3.org/2000/svg">
<path d="M23.8268 29.1597C23.4134 29.1597 23.0001 29.053 22.6268 28.8263L17.2801 25.653C16.7201 25.6397 16.1601 25.5997 15.6268 25.5197C15.2668 25.4664 14.9601 25.2263 14.8268 24.8796C14.6934 24.533 14.7601 24.1596 15.0001 23.8796C15.8801 22.853 16.3334 21.6263 16.3334 20.3197C16.3334 17.093 13.4934 14.4663 10.0001 14.4663C8.69343 14.4663 7.44009 14.8264 6.38676 15.5197C6.09343 15.7064 5.73343 15.733 5.41343 15.5863C5.10677 15.4397 4.88011 15.1463 4.84011 14.7996C4.80011 14.4263 4.77344 14.053 4.77344 13.6663C4.77344 7.05301 10.5068 1.67969 17.5468 1.67969C24.5868 1.67969 30.3201 7.05301 30.3201 13.6663C30.3201 17.293 28.6401 20.6263 25.6801 22.9063L26.1334 26.533C26.2401 27.4397 25.8401 28.293 25.0801 28.7864C24.7068 29.0264 24.2668 29.1597 23.8268 29.1597ZM17.5334 23.6396C17.7201 23.6263 17.9068 23.6797 18.0668 23.7864L23.6534 27.1064C23.8001 27.1997 23.9201 27.1597 24.0001 27.1064C24.0668 27.0664 24.1734 26.9597 24.1468 26.773L23.6268 22.5597C23.5868 22.1863 23.7468 21.8264 24.0401 21.613C26.7601 19.7064 28.3201 16.7996 28.3201 13.6396C28.3201 8.13298 23.4934 3.65299 17.5468 3.65299C11.8268 3.65299 7.13343 7.81305 6.78676 13.0397C7.78676 12.653 8.86678 12.4397 9.98678 12.4397C14.5868 12.4397 18.3201 15.9596 18.3201 20.293C18.3334 21.4663 18.0534 22.5996 17.5334 23.6396Z" fill="#1FBAD6"/>
<path d="M6.10636 30.3331C5.7597 30.3331 5.42636 30.2398 5.11969 30.0398C4.51969 29.6531 4.1997 28.9865 4.2797 28.2798L4.54637 26.2264C2.74637 24.7597 1.67969 22.5864 1.67969 20.3064C1.67969 17.7064 3.0397 15.2797 5.3197 13.8264C6.69304 12.9331 8.31969 12.4531 10.013 12.4531C14.613 12.4531 18.3464 15.9731 18.3464 20.3064C18.3464 22.0664 17.7064 23.7998 16.533 25.1731C15.0264 26.9998 12.773 28.0664 10.293 28.1464L7.03969 30.0798C6.74636 30.2531 6.42636 30.3331 6.10636 30.3331ZM9.99969 14.4531C8.69303 14.4531 7.43969 14.8131 6.38635 15.5064C4.67969 16.5998 3.66636 18.3864 3.66636 20.3064C3.66636 22.1597 4.57303 23.8531 6.17303 24.9465C6.4797 25.1598 6.63969 25.5197 6.59969 25.8931L6.30636 28.1731L9.49302 26.2798C9.65302 26.1865 9.82636 26.1331 9.99969 26.1331C11.9597 26.1331 13.813 25.2931 14.9864 23.8665C15.8664 22.8265 16.333 21.5997 16.333 20.293C16.333 17.0797 13.493 14.4531 9.99969 14.4531Z" fill="#1FBAD6"/>
</svg>
