<svg width="32" height="32" viewBox="0 0 32 32" fill="none" xmlns="http://www.w3.org/2000/svg">
<path d="M15.9998 18.8926C13.1598 18.8926 10.8398 16.5859 10.8398 13.7326C10.8398 10.8793 13.1598 8.58594 15.9998 8.58594C18.8398 8.58594 21.1598 10.8926 21.1598 13.7459C21.1598 16.5993 18.8398 18.8926 15.9998 18.8926ZM15.9998 10.5859C14.2665 10.5859 12.8398 11.9993 12.8398 13.7459C12.8398 15.4926 14.2532 16.9059 15.9998 16.9059C17.7465 16.9059 19.1598 15.4926 19.1598 13.7459C19.1598 11.9993 17.7332 10.5859 15.9998 10.5859Z" fill="#1FBAD6"/>
<path d="M16.0002 30.346C14.0269 30.346 12.0402 29.5993 10.4936 28.1194C6.56023 24.3327 2.21357 18.2927 3.85357 11.106C5.33357 4.58602 11.0269 1.66602 16.0002 1.66602C16.0002 1.66602 16.0002 1.66602 16.0136 1.66602C20.9869 1.66602 26.6802 4.58602 28.1602 11.1193C29.7869 18.306 25.4402 24.3327 21.5069 28.1194C19.9602 29.5993 17.9736 30.346 16.0002 30.346ZM16.0002 3.66602C12.1202 3.66602 7.13357 5.73268 5.81357 11.546C4.37357 17.826 8.32023 23.2393 11.8936 26.666C14.2002 28.8927 17.8136 28.8927 20.1202 26.666C23.6802 23.2393 27.6269 17.826 26.2136 11.546C24.8802 5.73268 19.8802 3.66602 16.0002 3.66602Z" fill="#1FBAD6"/>
</svg>
