<svg width="80" height="81" viewBox="0 0 80 81" fill="none" xmlns="http://www.w3.org/2000/svg">
<path d="M40.0001 47.7335C32.9001 47.7335 27.1001 41.9668 27.1001 34.8335C27.1001 27.7001 32.9001 21.9668 40.0001 21.9668C47.1001 21.9668 52.9001 27.7335 52.9001 34.8668C52.9001 42.0001 47.1001 47.7335 40.0001 47.7335ZM40.0001 26.9668C35.6668 26.9668 32.1001 30.5001 32.1001 34.8668C32.1001 39.2335 35.6334 42.7668 40.0001 42.7668C44.3668 42.7668 47.9001 39.2335 47.9001 34.8668C47.9001 30.5001 44.3334 26.9668 40.0001 26.9668Z" fill="#1FBAD6"/>
<path d="M40.0001 76.367C35.0668 76.367 30.1001 74.5003 26.2334 70.8003C16.4001 61.3337 5.53343 46.2337 9.63343 28.267C13.3334 11.967 27.5668 4.66699 40.0001 4.66699C40.0001 4.66699 40.0001 4.66699 40.0334 4.66699C52.4668 4.66699 66.7001 11.967 70.4001 28.3003C74.4668 46.267 63.6001 61.3337 53.7668 70.8003C49.9001 74.5003 44.9334 76.367 40.0001 76.367ZM40.0001 9.66699C30.3001 9.66699 17.8334 14.8337 14.5334 29.367C10.9334 45.067 20.8001 58.6003 29.7334 67.167C35.5001 72.7337 44.5334 72.7337 50.3001 67.167C59.2001 58.6003 69.0668 45.067 65.5334 29.367C62.2001 14.8337 49.7001 9.66699 40.0001 9.66699Z" fill="#1FBAD6"/>
</svg>
