<svg width="166" height="50" viewBox="0 0 166 50" fill="none" xmlns="http://www.w3.org/2000/svg">
<rect x="0.0927734" y="0.229492" width="165.907" height="49.251" rx="24.6255" fill="white"/>
<path d="M120.687 34.0001H122.483V21.9508H120.687L120.687 34.0001ZM136.861 26.2913L134.802 31.5152H134.741L132.604 26.2912H130.67L133.874 33.5927L132.047 37.6541H133.921L138.857 26.2912L136.861 26.2913ZM126.678 32.6316C126.089 32.6316 125.269 32.3371 125.269 31.6082C125.269 30.6782 126.291 30.3217 127.172 30.3217C127.962 30.3217 128.333 30.4922 128.813 30.725C128.673 31.8409 127.714 32.6316 126.678 32.6316ZM126.894 26.0276C125.594 26.0276 124.248 26.6014 123.691 27.8725L125.284 28.5389C125.625 27.8725 126.259 27.6553 126.925 27.6553C127.854 27.6553 128.798 28.2136 128.813 29.2057V29.3296C128.488 29.1436 127.792 28.8646 126.94 28.8646C125.223 28.8646 123.473 29.81 123.473 31.5773C123.473 33.1896 124.882 34.2283 126.46 34.2283C127.668 34.2283 128.333 33.6857 128.751 33.0502H128.813V33.9802H130.546V29.3604C130.546 27.2216 128.952 26.0276 126.894 26.0276ZM115.797 27.758H113.243V23.6278H115.797C117.139 23.6278 117.901 24.7411 117.901 25.6929C117.901 26.6266 117.139 27.758 115.797 27.758ZM115.751 21.9508H111.448V34.0001H113.243V29.435H115.751C117.741 29.435 119.697 27.9918 119.697 25.6929C119.697 23.394 117.741 21.9508 115.751 21.9508ZM92.2889 32.6338C91.0484 32.6338 90.0098 31.5935 90.0098 30.1647C90.0098 28.7208 91.0484 27.6647 92.2889 27.6647C93.5136 27.6647 94.4747 28.7208 94.4747 30.1647C94.4747 31.5935 93.5136 32.6338 92.2889 32.6338ZM94.3507 26.9659H94.2887C93.8857 26.4847 93.1102 26.0499 92.1337 26.0499C90.0872 26.0499 88.2115 27.8511 88.2115 30.1647C88.2115 32.4629 90.0872 34.2486 92.1337 34.2486C93.1102 34.2486 93.8857 33.8137 94.2887 33.3171H94.3507V33.9071C94.3507 35.4757 93.5136 36.3142 92.1649 36.3142C91.0641 36.3142 90.382 35.522 90.1026 34.8544L88.5371 35.5065C88.9867 36.5935 90.1805 37.929 92.1649 37.929C94.2732 37.929 96.0561 36.6865 96.0561 33.6586V26.2984H94.3507V26.9659ZM97.2962 34.0001H99.0946V21.9504H97.2962V34.0001ZM101.746 30.025C101.699 28.441 102.97 27.6338 103.885 27.6338C104.599 27.6338 105.203 27.9907 105.404 28.5036L101.746 30.025ZM107.327 28.6586C106.986 27.7422 105.947 26.0499 103.823 26.0499C101.715 26.0499 99.9628 27.7114 99.9628 30.1492C99.9628 32.4475 101.699 34.2486 104.024 34.2486C105.901 34.2486 106.986 33.0995 107.435 32.4319L106.04 31.5001C105.575 32.1835 104.939 32.6338 104.024 32.6338C103.11 32.6338 102.459 32.2144 102.04 31.3916L107.512 29.1244L107.327 28.6586ZM63.7267 27.3077V29.0468H67.8814C67.7574 30.025 67.4318 30.7392 66.9356 31.2362C66.3312 31.842 65.3855 32.5096 63.7266 32.5096C61.1686 32.5096 59.1689 30.4444 59.1689 27.8822C59.1689 25.3202 61.1686 23.2547 63.7267 23.2547C65.1065 23.2547 66.114 23.7983 66.8582 24.4971L68.0829 23.2705C67.0443 22.2765 65.6644 21.5156 63.7267 21.5156C60.2229 21.5156 57.2773 24.3729 57.2773 27.8822C57.2773 31.3916 60.2229 34.2486 63.7267 34.2486C65.6182 34.2486 67.0443 33.6278 68.1604 32.4629C69.3077 31.3138 69.6644 29.699 69.6644 28.3947C69.6644 27.9907 69.6335 27.6183 69.5711 27.3077H63.7267ZM74.3879 32.6338C73.1474 32.6338 72.0776 31.6089 72.0776 30.1492C72.0776 28.674 73.1474 27.6647 74.3879 27.6647C75.6279 27.6647 76.6977 28.674 76.6977 30.1492C76.6977 31.6089 75.6279 32.6338 74.3879 32.6338ZM74.3879 26.0499C72.1242 26.0499 70.2793 27.7734 70.2793 30.1492C70.2793 32.5096 72.1242 34.2486 74.3879 34.2486C76.6511 34.2486 78.496 32.5096 78.496 30.1492C78.496 27.7734 76.6511 26.0499 74.3879 26.0499ZM83.35 32.6338C82.11 32.6338 81.0401 31.6089 81.0401 30.1492C81.0401 28.674 82.11 27.6647 83.35 27.6647C84.5901 27.6647 85.6599 28.674 85.6599 30.1492C85.6599 31.6089 84.5901 32.6338 83.35 32.6338ZM83.35 26.0499C81.0864 26.0499 79.2418 27.7734 79.2418 30.1492C79.2418 32.5096 81.0864 34.2486 83.35 34.2486C85.6133 34.2486 87.4583 32.5096 87.4583 30.1492C87.4583 27.7734 85.6133 26.0499 83.35 26.0499Z" fill="black"/>
<path d="M27.8956 12.4203C27.5726 12.7121 27.3799 13.1989 27.3799 13.845V13.699V35.0205V34.8801C27.3799 35.4768 27.5452 35.9376 27.8252 36.2344L27.8967 36.3029V36.3032C28.1233 36.508 28.414 36.6168 28.747 36.6165C29.0725 36.6165 29.4387 36.5125 29.8251 36.2931L43.7931 28.3439L48.591 25.6131C49.2003 25.2664 49.5424 24.8191 49.5996 24.3635V24.3616C49.5424 23.9049 49.2003 23.458 48.591 23.1112L43.7927 20.3808L29.8251 12.4316C29.4379 12.2117 29.0714 12.1074 28.7451 12.1074C28.4125 12.1074 28.1222 12.2158 27.8957 12.4203H27.8956Z" fill="#00C1FF"/>
<path d="M27.8968 36.3027L27.8252 36.2342C27.5452 35.9375 27.3799 35.4766 27.3799 34.8799V35.0203V13.7041V13.8449C27.3799 13.1987 27.5726 12.712 27.8956 12.4202L39.8183 24.3618L27.8968 36.3027Z" fill="url(#paint0_linear_5840_31132)"/>
<path d="M43.7931 28.3438L39.8184 24.3619L43.7928 20.3807L48.5911 23.1111C49.2004 23.4579 49.5425 23.9048 49.5996 24.3615V24.3633C49.5425 24.8189 49.2004 25.2663 48.5911 25.6129L43.7932 28.3437" fill="url(#paint1_linear_5840_31132)"/>
<path d="M28.7467 36.6172C28.4137 36.6175 28.1231 36.5087 27.8965 36.3039V36.3036L39.818 24.3627L43.7928 28.3445L29.8248 36.2938C29.4383 36.5133 29.0722 36.6172 28.7467 36.6172Z" fill="url(#paint2_linear_5840_31132)"/>
<path d="M39.8183 24.3623L27.8955 12.4206C28.1221 12.2162 28.4124 12.1077 28.745 12.1077C29.0713 12.1077 29.4378 12.212 29.825 12.4319L43.7926 20.3811L39.8182 24.3623" fill="url(#paint3_linear_5840_31132)"/>
<path d="M28.7473 36.7578C28.4143 36.7578 28.1233 36.649 27.8966 36.4442L27.8962 36.4445C27.8953 36.4436 27.8943 36.4427 27.8932 36.4419L27.8313 36.3813C27.8293 36.3794 27.8275 36.3772 27.8252 36.375L27.8967 36.3034C28.1233 36.5082 28.4139 36.617 28.747 36.6166C29.0724 36.6166 29.4386 36.5127 29.825 36.2932L43.793 28.344L43.8825 28.4337L43.7918 28.4852L29.825 36.434C29.4728 36.634 29.1378 36.7382 28.8352 36.7556C28.806 36.757 28.7766 36.7578 28.7473 36.7578" fill="url(#paint4_linear_5840_31132)"/>
<path d="M27.8252 36.375C27.5452 36.0783 27.3799 35.6178 27.3799 35.0207V34.8803C27.3799 35.477 27.5452 35.9378 27.8252 36.2346L27.8967 36.3031L27.8252 36.375" fill="url(#paint5_linear_5840_31132)"/>
<path d="M43.8825 28.4336L43.793 28.3439L48.5909 25.6131C49.2002 25.2664 49.5423 24.8191 49.5995 24.3635C49.5995 24.5307 49.5622 24.6979 49.4882 24.8606C49.339 25.1885 49.0398 25.4983 48.5909 25.7539L43.8825 28.4336" fill="url(#paint6_linear_5840_31132)"/>
<path d="M49.5989 24.3623C49.5417 23.9056 49.1996 23.4587 48.5903 23.1119L43.792 20.3815L43.8815 20.2918H43.8819L48.5903 22.9715C49.2621 23.354 49.5985 23.8581 49.5989 24.3623" fill="url(#paint7_linear_5840_31132)"/>
<path d="M27.3799 13.8457V13.6984C27.3799 13.6453 27.3813 13.5934 27.384 13.543V13.5407C27.384 13.54 27.384 13.5392 27.3843 13.5384V13.5328C27.4133 13.0188 27.5726 12.6179 27.8252 12.3502L27.8956 12.4209C27.5726 12.7128 27.3799 13.1996 27.3799 13.8457Z" fill="url(#paint8_linear_5840_31132)"/>
<path d="M43.7926 20.3809L29.825 12.4316C29.4378 12.2117 29.0714 12.1075 28.7451 12.1075C28.4124 12.1075 28.1221 12.2159 27.8955 12.4204L27.8252 12.3496C27.8472 12.3263 27.87 12.3038 27.8936 12.2822C27.8944 12.2814 27.8955 12.2807 27.8963 12.2799C28.1211 12.077 28.4083 11.9686 28.7379 11.9666H28.7451C29.0714 11.9666 29.4378 12.071 29.825 12.2909L43.8825 20.2909L43.8821 20.2912L43.7926 20.3809" fill="url(#paint9_linear_5840_31132)"/>
<g clip-path="url(#clip0_5840_31132)">
<path d="M60.6108 15.26C62.4226 15.26 63.7427 14.0348 63.6909 11.8951H60.4986V12.8441H62.414C62.3277 13.612 61.5944 14.1901 60.6108 14.1901C59.4288 14.1901 58.635 13.31 58.635 12.128C58.635 10.9633 59.4201 10.0918 60.6022 10.0918C61.4391 10.0918 62.043 10.5232 62.2846 11.1272H63.5443C63.2164 9.91065 62.1293 8.99609 60.6022 8.99609C58.7558 8.99609 57.4443 10.3507 57.4443 12.128C57.4443 13.9226 58.7558 15.26 60.6108 15.26ZM64.7398 15.1478H68.5275V14.1556H65.8874V12.5853H68.0702V11.6017H65.8874V10.1005H68.4412V9.10826H64.7398V15.1478ZM70.8704 15.1478H72.0179V10.1177H73.7693V9.10826H69.1362V10.1177H70.8704V15.1478ZM76.9655 15.1478H78.113V9.10826H76.9655V15.1478ZM80.7706 15.1478H81.9181V10.1177H83.6696V9.10826H79.0364V10.1177H80.7706V15.1478ZM89.7301 15.26C91.5593 15.26 92.9225 13.9054 92.9225 12.128C92.9225 10.3679 91.5679 8.99609 89.7388 8.99609C87.9097 8.99609 86.5551 10.3507 86.5551 12.128C86.5551 13.9226 87.901 15.26 89.7301 15.26ZM89.7388 14.1642C88.574 14.1642 87.7457 13.3014 87.7457 12.128C87.7457 10.9719 88.574 10.0918 89.7388 10.0918C90.8949 10.0918 91.7232 10.9719 91.7232 12.128C91.7232 13.3014 90.8949 14.1642 89.7388 14.1642ZM93.9771 15.1478H95.0987V11.015H95.1505L97.7216 15.1478H98.9812V9.10826H97.8682V13.241H97.8165L95.2281 9.10826H93.9771V15.1478Z" fill="#A2A2A2"/>
</g>
<defs>
<linearGradient id="paint0_linear_5840_31132" x1="34.9992" y1="13.4788" x2="24.7245" y2="23.77" gradientUnits="userSpaceOnUse">
<stop stop-color="#00A0FF"/>
<stop offset="0.00657" stop-color="#00A1FF"/>
<stop offset="0.2601" stop-color="#00BEFF"/>
<stop offset="0.5122" stop-color="#00D2FF"/>
<stop offset="0.7604" stop-color="#00DFFF"/>
<stop offset="1" stop-color="#00E3FF"/>
</linearGradient>
<linearGradient id="paint1_linear_5840_31132" x1="50.342" y1="24.2931" x2="27.0573" y2="24.2931" gradientUnits="userSpaceOnUse">
<stop stop-color="#FFE000"/>
<stop offset="0.4087" stop-color="#FFBD00"/>
<stop offset="0.7754" stop-color="#FFA500"/>
<stop offset="1" stop-color="#FF9C00"/>
</linearGradient>
<linearGradient id="paint2_linear_5840_31132" x1="41.6825" y1="28.1485" x2="24.2713" y2="45.4604" gradientUnits="userSpaceOnUse">
<stop stop-color="#FF3A44"/>
<stop offset="1" stop-color="#C31162"/>
</linearGradient>
<linearGradient id="paint3_linear_5840_31132" x1="24.8227" y1="10.6502" x2="32.5825" y2="18.3776" gradientUnits="userSpaceOnUse">
<stop stop-color="#32A071"/>
<stop offset="0.0685" stop-color="#2DA771"/>
<stop offset="0.4762" stop-color="#15CF74"/>
<stop offset="0.8009" stop-color="#06E775"/>
<stop offset="1" stop-color="#00F076"/>
</linearGradient>
<linearGradient id="paint4_linear_5840_31132" x1="41.6741" y1="30.91" x2="27.7303" y2="44.8764" gradientUnits="userSpaceOnUse">
<stop stop-color="#CC2E36"/>
<stop offset="1" stop-color="#9C0E4E"/>
</linearGradient>
<linearGradient id="paint5_linear_5840_31132" x1="28.9682" y1="13.4791" x2="19.9163" y2="22.5457" gradientUnits="userSpaceOnUse">
<stop stop-color="#008DE0"/>
<stop offset="0.00657" stop-color="#008DE0"/>
<stop offset="0.2601" stop-color="#00A7E0"/>
<stop offset="0.5122" stop-color="#00B8E0"/>
<stop offset="0.7604" stop-color="#00C4E0"/>
<stop offset="1" stop-color="#00C7E0"/>
</linearGradient>
<linearGradient id="paint6_linear_5840_31132" x1="50.3419" y1="24.3626" x2="27.0571" y2="24.3626" gradientUnits="userSpaceOnUse">
<stop stop-color="#E0C500"/>
<stop offset="0.4087" stop-color="#E0A600"/>
<stop offset="0.7754" stop-color="#E09100"/>
<stop offset="1" stop-color="#E08900"/>
</linearGradient>
<linearGradient id="paint7_linear_5840_31132" x1="50.3413" y1="24.3633" x2="27.0566" y2="24.3633" gradientUnits="userSpaceOnUse">
<stop stop-color="#FFE840"/>
<stop offset="0.4087" stop-color="#FFCE40"/>
<stop offset="0.7754" stop-color="#FFBC40"/>
<stop offset="1" stop-color="#FFB540"/>
</linearGradient>
<linearGradient id="paint8_linear_5840_31132" x1="28.9583" y1="13.496" x2="20.2398" y2="21.8503" gradientUnits="userSpaceOnUse">
<stop stop-color="#40B8FF"/>
<stop offset="0.00657" stop-color="#40B9FF"/>
<stop offset="0.2601" stop-color="#40CEFF"/>
<stop offset="0.5122" stop-color="#40DDFF"/>
<stop offset="0.7604" stop-color="#40E7FF"/>
<stop offset="1" stop-color="#40EAFF"/>
</linearGradient>
<linearGradient id="paint9_linear_5840_31132" x1="24.8053" y1="13.1754" x2="31.0318" y2="19.412" gradientUnits="userSpaceOnUse">
<stop stop-color="#65B895"/>
<stop offset="0.0685" stop-color="#62BD95"/>
<stop offset="0.4762" stop-color="#50DB97"/>
<stop offset="0.8009" stop-color="#44ED98"/>
<stop offset="1" stop-color="#40F498"/>
</linearGradient>
<clipPath id="clip0_5840_31132">
<rect width="41.7016" height="6.47093" fill="white" transform="translate(57.4316 8.85742)"/>
</clipPath>
</defs>
</svg>
