<svg width="178" height="62" viewBox="0 0 178 62" fill="none" xmlns="http://www.w3.org/2000/svg">
<rect width="177.999" height="62.0003" rx="31.0002" fill="#484A51"/>
<path d="M40.534 16C37.8976 16.025 35.2487 16.0125 32.5998 16.0125C32.4248 16.0125 32.2374 16.0125 32 16.0125C32 16.225 32 16.4 32 16.575C32 19.125 32 21.6625 32 24.2124" stroke="white" stroke-width="2" stroke-miterlimit="10" stroke-linecap="round" stroke-linejoin="round"/>
<path d="M32 37.5254C32.0125 40.1504 32 42.7879 32 45.4128C32 45.5878 32 45.7628 32 45.9878C32.2249 45.9878 32.3998 45.9878 32.5748 45.9878C35.2237 46.0003 37.8726 45.9878 40.5215 46.0003" stroke="white" stroke-width="2" stroke-miterlimit="10" stroke-linecap="round" stroke-linejoin="round"/>
<path d="M53.5273 46.0003C56.2013 45.9878 58.8877 46.0003 61.5616 46.0003C61.674 46.0003 61.7865 46.0003 61.9864 46.0003C61.9864 45.8128 61.9864 45.6378 61.9864 45.4628C61.9864 42.8129 61.9739 40.1754 61.9989 37.5254" stroke="white" stroke-width="2" stroke-miterlimit="10" stroke-linecap="round" stroke-linejoin="round"/>
<path d="M61.9865 24.4999C61.974 21.875 61.9865 19.2375 61.9865 16.6125C61.9865 16.4375 61.9865 16.25 61.9865 16.0125C59.2001 16.0125 56.4887 16.025 53.7773 16" stroke="white" stroke-width="2" stroke-miterlimit="10" stroke-linecap="round" stroke-linejoin="round"/>
<path d="M41.4453 25.4395C45.1563 25.4395 48.8423 25.4395 52.5533 25.4395C52.5533 29.1394 52.5533 32.8269 52.5533 36.5394C48.8673 36.5394 45.1688 36.5394 41.4453 36.5394C41.4453 32.8644 41.4453 29.1769 41.4453 25.4395Z" stroke="white" stroke-width="2" stroke-miterlimit="10" stroke-linecap="round" stroke-linejoin="round"/>
<path d="M73.7324 30.3984C73.7324 29.7474 73.8262 29.125 74.0137 28.5312C74.2064 27.9375 74.4772 27.4036 74.8262 26.9297C75.1803 26.4557 75.597 26.0443 76.0762 25.6953C76.5553 25.3411 77.0944 25.0703 77.6934 24.8828C78.2975 24.6901 78.9303 24.5938 79.5918 24.5938C80.696 24.5938 81.6934 24.849 82.584 25.3594C83.4798 25.8698 84.1777 26.5677 84.6777 27.4531C85.1777 28.3385 85.4277 29.3203 85.4277 30.3984C85.4277 31.1693 85.3001 31.8906 85.0449 32.5625C84.7897 33.2344 84.4277 33.8255 83.959 34.3359L85.3027 36H83.3965L82.8027 35.2812C81.8496 35.901 80.7741 36.2109 79.5762 36.2109C78.748 36.2109 77.972 36.0651 77.248 35.7734C76.5241 35.4766 75.9043 35.0729 75.3887 34.5625C74.8783 34.0469 74.4746 33.4297 74.1777 32.7109C73.8809 31.987 73.7324 31.2161 73.7324 30.3984ZM75.5137 30.3984C75.5137 31.6068 75.8965 32.612 76.6621 33.4141C77.4329 34.2109 78.4095 34.6094 79.5918 34.6094C80.4095 34.6094 81.1283 34.401 81.748 33.9844L79.3809 31.0703H81.3027L82.8574 32.9766C83.3991 32.2526 83.6699 31.3932 83.6699 30.3984C83.6699 29.2005 83.2845 28.2031 82.5137 27.4062C81.7428 26.6094 80.7689 26.2109 79.5918 26.2109C78.4147 26.2109 77.4408 26.6094 76.6699 27.4062C75.8991 28.2031 75.5137 29.2005 75.5137 30.3984ZM87.6074 36V24.7969H91.6074C92.7428 24.7969 93.6543 25.1172 94.3418 25.7578C95.0293 26.3932 95.373 27.2214 95.373 28.2422C95.373 29.013 95.1621 29.6875 94.7402 30.2656C94.3236 30.8438 93.7923 31.25 93.1465 31.4844L95.6934 36H93.7402L91.4512 31.7422H89.334V36H87.6074ZM89.334 30.2422H91.5293C92.1439 30.2422 92.6413 30.0703 93.0215 29.7266C93.4017 29.3828 93.5918 28.888 93.5918 28.2422C93.5918 27.6745 93.4043 27.2083 93.0293 26.8438C92.6595 26.474 92.1387 26.2891 91.4668 26.2891H89.334V30.2422ZM97.334 31.9062V30.4141H101.576V31.9062H97.334ZM103.311 30.3984C103.311 29.5859 103.456 28.8229 103.748 28.1094C104.04 27.3906 104.441 26.7734 104.951 26.2578C105.462 25.7422 106.076 25.3359 106.795 25.0391C107.519 24.7422 108.295 24.5938 109.123 24.5938C110.462 24.5938 111.607 24.9583 112.561 25.6875C113.519 26.4167 114.165 27.3802 114.498 28.5781H112.639C112.394 27.8438 111.954 27.2682 111.318 26.8516C110.683 26.4349 109.951 26.2266 109.123 26.2266C108.373 26.2266 107.691 26.4089 107.076 26.7734C106.462 27.1328 105.98 27.6328 105.631 28.2734C105.282 28.9089 105.107 29.6172 105.107 30.3984C105.107 31.6016 105.49 32.599 106.256 33.3906C107.021 34.1823 107.977 34.5781 109.123 34.5781C109.951 34.5781 110.68 34.3724 111.311 33.9609C111.941 33.5495 112.383 32.9766 112.639 32.2422H114.529C114.212 33.4401 113.566 34.401 112.592 35.125C111.623 35.849 110.467 36.2109 109.123 36.2109C108.295 36.2109 107.519 36.0651 106.795 35.7734C106.071 35.4766 105.454 35.0729 104.943 34.5625C104.438 34.0469 104.04 33.4297 103.748 32.7109C103.456 31.9922 103.311 31.2214 103.311 30.3984ZM115.998 31.8203C115.998 30.9922 116.186 30.2422 116.561 29.5703C116.941 28.8984 117.469 28.3724 118.146 27.9922C118.824 27.612 119.584 27.4219 120.428 27.4219C121.271 27.4219 122.029 27.6146 122.701 28C123.378 28.3854 123.902 28.9141 124.271 29.5859C124.646 30.2526 124.834 30.9974 124.834 31.8203C124.834 32.6432 124.644 33.3906 124.264 34.0625C123.889 34.7292 123.363 35.2552 122.686 35.6406C122.008 36.0208 121.251 36.2109 120.412 36.2109C119.131 36.2109 118.074 35.7969 117.24 34.9688C116.412 34.1354 115.998 33.0859 115.998 31.8203ZM117.709 31.8203C117.709 32.6536 117.962 33.3411 118.467 33.8828C118.977 34.4193 119.626 34.6875 120.412 34.6875C121.204 34.6875 121.852 34.4167 122.357 33.875C122.868 33.3333 123.123 32.6484 123.123 31.8203C123.123 30.987 122.868 30.3021 122.357 29.7656C121.852 29.2292 121.204 28.9609 120.412 28.9609C119.62 28.9609 118.972 29.2318 118.467 29.7734C117.962 30.3099 117.709 30.9922 117.709 31.8203ZM127.389 35C126.639 34.1927 126.264 33.1406 126.264 31.8438C126.264 30.5469 126.636 29.487 127.381 28.6641C128.126 27.8359 129.081 27.4219 130.248 27.4219C130.623 27.4219 130.975 27.474 131.303 27.5781C131.631 27.6823 131.904 27.8177 132.123 27.9844C132.347 28.151 132.524 28.3047 132.654 28.4453C132.785 28.5807 132.894 28.7161 132.982 28.8516H133.1V24H134.779V36H133.131V34.8125H133.029C132.368 35.7448 131.467 36.2109 130.326 36.2109C129.123 36.2109 128.144 35.8073 127.389 35ZM127.975 31.8203C127.975 32.6849 128.212 33.3802 128.686 33.9062C129.165 34.4271 129.792 34.6875 130.568 34.6875C131.35 34.6875 131.975 34.4141 132.443 33.8672C132.912 33.3203 133.146 32.638 133.146 31.8203C133.146 30.9401 132.902 30.2448 132.412 29.7344C131.928 29.2188 131.308 28.9609 130.553 28.9609C129.792 28.9609 129.173 29.2292 128.693 29.7656C128.214 30.2969 127.975 30.9818 127.975 31.8203ZM136.607 31.8438C136.607 30.974 136.79 30.2031 137.154 29.5312C137.519 28.8542 138.016 28.3333 138.646 27.9688C139.282 27.6042 139.995 27.4219 140.787 27.4219C141.423 27.4219 142.001 27.5339 142.521 27.7578C143.042 27.9818 143.472 28.2891 143.811 28.6797C144.154 29.0703 144.417 29.526 144.6 30.0469C144.787 30.5677 144.881 31.1276 144.881 31.7266V32.3516H138.287C138.318 33.0859 138.566 33.6771 139.029 34.125C139.493 34.5729 140.105 34.7969 140.865 34.7969C141.396 34.7969 141.87 34.6771 142.287 34.4375C142.709 34.1979 143.003 33.875 143.17 33.4688H144.803C144.584 34.2917 144.118 34.9557 143.404 35.4609C142.696 35.9609 141.834 36.2109 140.818 36.2109C139.574 36.2109 138.561 35.8021 137.779 34.9844C136.998 34.1615 136.607 33.1146 136.607 31.8438ZM138.318 31.0547H143.217C143.165 30.3672 142.912 29.8255 142.459 29.4297C142.006 29.0286 141.449 28.8281 140.787 28.8281C140.141 28.8281 139.584 29.0365 139.115 29.4531C138.646 29.8698 138.381 30.4036 138.318 31.0547Z" fill="white"/>
</svg>
