<svg width="32" height="33" viewBox="0 0 32 33" fill="none" xmlns="http://www.w3.org/2000/svg">
<path fill-rule="evenodd" clip-rule="evenodd" d="M25.8924 7.90569C27.0095 8.2058 27.8932 9.0895 28.1933 10.2066C28.7435 12.2407 28.7602 16.4591 28.7602 16.4591C28.7602 16.4591 28.7602 20.6941 28.21 22.7116C27.9099 23.8287 27.0262 24.7124 25.9091 25.0125C23.8916 25.5627 15.7717 25.5627 15.7717 25.5627C15.7717 25.5627 7.6518 25.5627 5.63434 25.0125C4.51722 24.7124 3.63354 23.8287 3.33342 22.7116C2.7832 20.6774 2.7832 16.4591 2.7832 16.4591C2.7832 16.4591 2.7832 12.2407 3.31675 10.2233C3.61687 9.10616 4.50055 8.22248 5.61766 7.92236C7.63513 7.37214 15.755 7.35547 15.755 7.35547C15.755 7.35547 23.8749 7.35547 25.8924 7.90569ZM19.9067 16.4591L13.1707 20.3606V12.5575L19.9067 16.4591Z" fill="#BBE0E7"/>
</svg>
