<svg width="24" height="25" viewBox="0 0 24 25" fill="none" xmlns="http://www.w3.org/2000/svg">
<path d="M11.9999 23.2602C10.9099 23.2602 9.82992 22.9402 8.97992 22.3102L4.6799 19.1002C3.5399 18.2502 2.6499 16.4802 2.6499 15.0602V7.63019C2.6499 6.09019 3.77992 4.45019 5.22992 3.91019L10.2199 2.0402C11.2099 1.6702 12.7699 1.6702 13.7599 2.0402L18.7599 3.91019C20.2099 4.45019 21.3399 6.09019 21.3399 7.63019V15.0602C21.3399 16.4802 20.4499 18.2502 19.3099 19.1002L15.0099 22.3102C14.1699 22.9402 13.0899 23.2602 11.9999 23.2602ZM10.7499 3.44019L5.75992 5.31018C4.89992 5.63018 4.1499 6.71019 4.1499 7.63019V15.0602C4.1499 16.0102 4.81992 17.3402 5.56992 17.9002L9.8699 21.1102C11.0199 21.9702 12.9699 21.9702 14.1199 21.1102L18.4199 17.9002C19.1799 17.3302 19.8399 16.0002 19.8399 15.0602V7.63019C19.8399 6.72019 19.0899 5.64018 18.2299 5.31018L13.2399 3.44019C12.5799 3.19019 11.4199 3.19019 10.7499 3.44019Z" fill="#1FBAD6"/>
<path d="M11.9999 12.1702C11.9799 12.1702 11.9599 12.1702 11.9299 12.1702C10.4799 12.1302 9.41992 11.0202 9.41992 9.67017C9.41992 8.29017 10.5499 7.16016 11.9299 7.16016C13.3099 7.16016 14.4399 8.29017 14.4399 9.67017C14.4299 11.0302 13.3699 12.1301 12.0199 12.1801C12.0099 12.1701 12.0099 12.1702 11.9999 12.1702ZM11.9299 8.66016C11.3699 8.66016 10.9199 9.11017 10.9199 9.67017C10.9199 10.2202 11.3499 10.6601 11.8899 10.6801C11.8899 10.6801 11.9399 10.6801 11.9999 10.6801C12.5299 10.6501 12.9399 10.2102 12.9399 9.67017C12.9499 9.11017 12.4899 8.66016 11.9299 8.66016Z" fill="#1FBAD6"/>
<path d="M11.9998 17.85C11.1398 17.85 10.2698 17.62 9.59982 17.17C8.92982 16.73 8.5498 16.08 8.5498 15.39C8.5498 14.7 8.92982 14.05 9.59982 13.6C10.9498 12.7 13.0598 12.71 14.3998 13.6C15.0698 14.04 15.4498 14.69 15.4498 15.38C15.4498 16.07 15.0698 16.72 14.3998 17.17C13.7298 17.62 12.8598 17.85 11.9998 17.85ZM10.4298 14.84C10.1798 15 10.0398 15.2 10.0498 15.38C10.0498 15.56 10.1898 15.76 10.4298 15.92C11.2698 16.48 12.7298 16.48 13.5698 15.92C13.8198 15.76 13.9598 15.56 13.9598 15.38C13.9598 15.2 13.8198 15 13.5798 14.84C12.7398 14.29 11.2698 14.29 10.4298 14.84Z" fill="#1FBAD6"/>
</svg>
