<svg width="19" height="19" viewBox="0 0 19 19" fill="none" xmlns="http://www.w3.org/2000/svg">
<path d="M13.459 16.8236H5.54232C2.65273 16.8236 0.990234 15.1611 0.990234 12.2715V6.72982C0.990234 3.84023 2.65273 2.17773 5.54232 2.17773H13.459C16.3486 2.17773 18.0111 3.84023 18.0111 6.72982V12.2715C18.0111 15.1611 16.3486 16.8236 13.459 16.8236ZM5.54232 3.36523C3.27815 3.36523 2.17773 4.46565 2.17773 6.72982V12.2715C2.17773 14.5357 3.27815 15.6361 5.54232 15.6361H13.459C15.7232 15.6361 16.8236 14.5357 16.8236 12.2715V6.72982C16.8236 4.46565 15.7232 3.36523 13.459 3.36523H5.54232Z" fill="#909090"/>
<path d="M9.49954 10.1895C8.83454 10.1895 8.16163 9.98363 7.64704 9.56404L5.16912 7.58488C4.91579 7.37904 4.86829 7.00696 5.07413 6.75362C5.27996 6.50029 5.65204 6.45279 5.90538 6.65863L8.38329 8.63779C8.98495 9.12071 10.0062 9.12071 10.6079 8.63779L13.0858 6.65863C13.3391 6.45279 13.7191 6.49237 13.917 6.75362C14.1229 7.00696 14.0833 7.38696 13.822 7.58488L11.3441 9.56404C10.8375 9.98363 10.1645 10.1895 9.49954 10.1895Z" fill="#909090"/>
</svg>
