<svg width="32" height="32" viewBox="0 0 32 32" fill="none" xmlns="http://www.w3.org/2000/svg">
<path d="M29.1013 21.9797C28.9222 21.4888 28.5773 21.2235 28.1859 21.0112C28.113 20.9714 28.0466 20.9316 27.9869 20.9051C27.8675 20.8454 27.7481 20.7857 27.6287 20.726C26.4082 20.0759 25.453 19.2666 24.7962 18.2982C24.6105 18.0262 24.4447 17.7343 24.312 17.4358C24.2523 17.2766 24.2589 17.1837 24.2987 17.0975C24.3385 17.0312 24.3916 16.9781 24.4579 16.9317C24.6702 16.7924 24.8825 16.6531 25.0284 16.5602C25.2871 16.3877 25.4994 16.2551 25.6321 16.1622C26.1296 15.8106 26.4811 15.4391 26.7 15.0212C27.0118 14.4375 27.0516 13.7543 26.8128 13.1373C26.4811 12.2617 25.6586 11.7244 24.6569 11.7244C24.4447 11.7244 24.239 11.7443 24.0268 11.7908C23.9737 11.804 23.914 11.8173 23.8609 11.8306C23.8676 11.2336 23.8543 10.6034 23.8012 9.97983C23.6155 7.79743 22.846 6.65649 22.05 5.74771C21.5392 5.17723 20.9422 4.69299 20.2722 4.31489C19.065 3.62501 17.6918 3.27344 16.1993 3.27344C14.7068 3.27344 13.3403 3.62501 12.133 4.31489C11.4631 4.69299 10.866 5.17723 10.3553 5.74771C9.55926 6.65649 8.79641 7.80407 8.60404 9.97983C8.55098 10.6034 8.53771 11.2336 8.54434 11.8306C8.49128 11.8173 8.43821 11.804 8.37851 11.7908C8.17287 11.7443 7.9606 11.7244 7.75497 11.7244C6.75332 11.7244 5.93077 12.2684 5.5991 13.1373C5.3603 13.7543 5.4001 14.4375 5.71187 15.0212C5.93077 15.4391 6.28235 15.8106 6.77985 16.1622C6.91252 16.2551 7.11816 16.3877 7.38349 16.5602C7.5228 16.6531 7.72843 16.7857 7.93407 16.9184C8.00704 16.9648 8.06674 17.0245 8.11317 17.0975C8.15297 17.1837 8.1596 17.2766 8.09327 17.4491C7.9606 17.7409 7.8014 18.0262 7.61566 18.2915C6.97222 19.2335 6.04354 20.0361 4.86279 20.6796C4.23925 21.0112 3.58917 21.2301 3.31057 21.9797C3.10493 22.5435 3.2376 23.1804 3.76164 23.7243C3.95401 23.9233 4.17955 24.0958 4.42499 24.2284C4.93576 24.507 5.4797 24.7259 6.05017 24.8785C6.16958 24.9117 6.27571 24.9581 6.37521 25.0245C6.56758 25.1903 6.54105 25.4424 6.79312 25.8138C6.91915 26.0062 7.08499 26.172 7.27073 26.3047C7.80803 26.6762 8.41167 26.6961 9.04848 26.7226C9.62559 26.7425 10.2757 26.769 11.0252 27.0145C11.337 27.114 11.6554 27.313 12.0269 27.5452C12.9224 28.0957 14.143 28.8453 16.1927 28.8453C18.2424 28.8453 19.4696 28.0891 20.3717 27.5385C20.7432 27.313 21.0616 27.114 21.3601 27.0145C22.1031 26.769 22.7598 26.7425 23.3369 26.7226C23.9737 26.6961 24.5773 26.6762 25.1146 26.3047C25.3402 26.1455 25.5259 25.9465 25.6586 25.7077C25.8443 25.3959 25.8377 25.177 26.0102 25.0245C26.103 24.9581 26.2092 24.9117 26.3153 24.8851C26.8858 24.7326 27.443 24.5137 27.9604 24.2284C28.2191 24.0891 28.4579 23.9034 28.6569 23.6845L28.6635 23.6779C29.1809 23.1472 29.307 22.5236 29.1013 21.9797ZM27.2838 22.9548C26.176 23.5651 25.4331 23.4988 24.8626 23.8702C24.3717 24.182 24.6636 24.8586 24.312 25.1041C23.8742 25.4026 22.5873 25.0842 20.929 25.6347C19.5558 26.0858 18.6869 27.3926 16.2192 27.3926C13.7516 27.3926 12.9025 26.0924 11.5095 25.6347C9.85113 25.0842 8.56424 25.4092 8.12644 25.1041C7.77487 24.8586 8.0601 24.182 7.57586 23.8702C6.99875 23.4988 6.26244 23.5651 5.15466 22.9548C4.44489 22.5634 4.84952 22.3246 5.08169 22.2119C9.10155 20.2683 9.74499 17.2633 9.77153 17.0378C9.80469 16.7658 9.8445 16.5536 9.54599 16.2816C9.26075 16.0163 7.98714 15.2269 7.62893 14.9814C7.04519 14.5702 6.78649 14.1655 6.97885 13.6614C7.11152 13.3164 7.43656 13.1838 7.77487 13.1838C7.881 13.1838 7.98714 13.197 8.09327 13.2169C8.73671 13.3562 9.36026 13.6747 9.71846 13.7675C9.76489 13.7808 9.8047 13.7874 9.85113 13.7874C10.0435 13.7874 10.1098 13.6879 10.0966 13.469C10.0568 12.7659 9.95726 11.3994 10.07 10.1191C10.2226 8.36128 10.7864 7.48566 11.4631 6.71619C11.7881 6.34471 13.3071 4.73943 16.2192 4.73943C19.1313 4.73943 20.6504 6.33808 20.9754 6.70955C21.652 7.47903 22.2158 8.35464 22.3684 10.1125C22.4812 11.3928 22.3817 12.7592 22.3352 13.4624C22.322 13.6946 22.3883 13.7808 22.5807 13.7808C22.6271 13.7808 22.6669 13.7742 22.7133 13.7609C23.0716 13.6747 23.6951 13.3496 24.3385 13.2103C24.4447 13.1838 24.5508 13.1771 24.6569 13.1771C24.9952 13.1771 25.3203 13.3098 25.453 13.6548C25.6453 14.1589 25.3866 14.5635 24.8029 14.9748C24.4513 15.2202 23.1777 16.0096 22.8858 16.275C22.5873 16.5469 22.6271 16.7592 22.6603 17.0312C22.6868 17.2567 23.3303 20.2617 27.3501 22.2052C27.5889 22.318 27.9869 22.5634 27.2838 22.9548Z" fill="#BBE0E7"/>
</svg>
