<svg width="25" height="27" viewBox="0 0 25 27" fill="none" xmlns="http://www.w3.org/2000/svg">
<path d="M13.9258 5.24313L15.3946 8.29812C15.5925 8.72062 16.1237 9.12146 16.5717 9.20813L19.2279 9.66313C20.9258 9.95563 21.3217 11.234 20.1029 12.5123L18.03 14.6681C17.6862 15.0256 17.4883 15.7298 17.6029 16.239L18.1967 18.904C18.6654 21.0056 17.5821 21.829 15.8008 20.724L13.3112 19.1856C12.8633 18.904 12.1133 18.904 11.6654 19.1856L9.17582 20.724C7.39458 21.8181 6.31127 21.0056 6.78002 18.904L7.37377 16.239C7.48835 15.7406 7.29044 15.0365 6.94669 14.6681L4.87378 12.5123C3.65503 11.2448 4.05086 9.96646 5.74878 9.66313L8.40499 9.20813C8.85291 9.13229 9.38415 8.72062 9.58207 8.29812L11.0508 5.24313C11.8321 3.58563 13.1237 3.58563 13.9258 5.24313Z" fill="#2B2D33"/>
</svg>
