<svg width="140" height="27" viewBox="0 0 140 27" fill="none" xmlns="http://www.w3.org/2000/svg">
<path d="M14.4842 8.8027L16.0117 11.8577C16.2175 12.2802 16.77 12.681 17.2359 12.7677L19.9983 13.2227C21.7642 13.5152 22.1758 14.7935 20.9083 16.0719L18.7525 18.2277C18.395 18.5852 18.1892 19.2894 18.3084 19.7985L18.9258 22.4635C19.4134 24.5652 18.2867 25.3885 16.4342 24.2835L13.845 22.7452C13.3792 22.4635 12.5992 22.4635 12.1333 22.7452L9.54418 24.2835C7.69169 25.3777 6.56505 24.5652 7.05255 22.4635L7.67005 19.7985C7.78922 19.3002 7.58338 18.596 7.22588 18.2277L5.07006 16.0719C3.80256 14.8044 4.21423 13.526 5.98006 13.2227L8.74252 12.7677C9.20835 12.6919 9.76085 12.2802 9.96668 11.8577L11.4942 8.8027C12.3067 7.1452 13.65 7.1452 14.4842 8.8027Z" fill="#2B2D33"/>
<path d="M42.9258 8.8027L44.3946 11.8577C44.5925 12.2802 45.1237 12.681 45.5717 12.7677L48.2279 13.2227C49.9258 13.5152 50.3217 14.7935 49.1029 16.0719L47.03 18.2277C46.6862 18.5852 46.4883 19.2894 46.6029 19.7985L47.1967 22.4635C47.6654 24.5652 46.5821 25.3885 44.8008 24.2835L42.3112 22.7452C41.8633 22.4635 41.1133 22.4635 40.6654 22.7452L38.1758 24.2835C36.3946 25.3777 35.3113 24.5652 35.78 22.4635L36.3738 19.7985C36.4884 19.3002 36.2904 18.596 35.9467 18.2277L33.8738 16.0719C32.655 14.8044 33.0509 13.526 34.7488 13.2227L37.405 12.7677C37.8529 12.6919 38.3842 12.2802 38.5821 11.8577L40.0508 8.8027C40.8321 7.1452 42.1237 7.1452 42.9258 8.8027Z" fill="#2B2D33"/>
<path d="M71.4842 8.8027L73.0117 11.8577C73.2175 12.2802 73.77 12.681 74.2359 12.7677L76.9983 13.2227C78.7642 13.5152 79.1758 14.7935 77.9083 16.0719L75.7525 18.2277C75.395 18.5852 75.1892 19.2894 75.3084 19.7985L75.9258 22.4635C76.4134 24.5652 75.2867 25.3885 73.4342 24.2835L70.845 22.7452C70.3792 22.4635 69.5992 22.4635 69.1333 22.7452L66.5442 24.2835C64.6917 25.3777 63.565 24.5652 64.0525 22.4635L64.67 19.7985C64.7892 19.3002 64.5834 18.596 64.2259 18.2277L62.0701 16.0719C60.8026 14.8044 61.2142 13.526 62.9801 13.2227L65.7425 12.7677C66.2083 12.6919 66.7608 12.2802 66.9667 11.8577L68.4942 8.8027C69.3067 7.1452 70.65 7.1452 71.4842 8.8027Z" fill="#2B2D33"/>
<path d="M99.9258 8.8027L101.395 11.8577C101.592 12.2802 102.124 12.681 102.572 12.7677L105.228 13.2227C106.926 13.5152 107.322 14.7935 106.103 16.0719L104.03 18.2277C103.686 18.5852 103.488 19.2894 103.603 19.7985L104.197 22.4635C104.665 24.5652 103.582 25.3885 101.801 24.2835L99.3112 22.7452C98.8633 22.4635 98.1133 22.4635 97.6654 22.7452L95.1758 24.2835C93.3946 25.3777 92.3113 24.5652 92.78 22.4635L93.3738 19.7985C93.4884 19.3002 93.2904 18.596 92.9467 18.2277L90.8738 16.0719C89.655 14.8044 90.0509 13.526 91.7488 13.2227L94.405 12.7677C94.8529 12.6919 95.3842 12.2802 95.5821 11.8577L97.0508 8.8027C97.8321 7.1452 99.1237 7.1452 99.9258 8.8027Z" fill="#2B2D33"/>
<path d="M128.484 8.8027L130.012 11.8577C130.218 12.2802 130.77 12.681 131.236 12.7677L133.998 13.2227C135.764 13.5152 136.176 14.7935 134.908 16.0719L132.753 18.2277C132.395 18.5852 132.189 19.2894 132.308 19.7985L132.926 22.4635C133.413 24.5652 132.287 25.3885 130.434 24.2835L127.845 22.7452C127.379 22.4635 126.599 22.4635 126.133 22.7452L123.544 24.2835C121.692 25.3777 120.565 24.5652 121.053 22.4635L121.67 19.7985C121.789 19.3002 121.583 18.596 121.226 18.2277L119.07 16.0719C117.803 14.8044 118.214 13.526 119.98 13.2227L122.743 12.7677C123.208 12.6919 123.761 12.2802 123.967 11.8577L125.494 8.8027C126.307 7.1452 127.65 7.1452 128.484 8.8027Z" fill="#2B2D33"/>
</svg>
