<svg width="32" height="32" viewBox="0 0 32 32" fill="none" xmlns="http://www.w3.org/2000/svg">
<path d="M23.9432 8.27732C22.5439 7.36497 21.534 5.9052 21.2189 4.20351C21.1509 3.83585 21.1135 3.45746 21.1135 3.07031H16.6475L16.6404 20.9684C16.5653 22.9727 14.9157 24.5813 12.8934 24.5813C12.2649 24.5813 11.6731 24.4242 11.152 24.15C9.95707 23.5212 9.13932 22.2686 9.13932 20.8273C9.13932 18.7572 10.8235 17.073 12.8934 17.073C13.2798 17.073 13.6505 17.1368 14.0011 17.2466V12.6873C13.6383 12.6379 13.2696 12.607 12.8934 12.607C8.36077 12.607 4.67334 16.2946 4.67334 20.8273C4.67334 23.6083 6.06279 26.0693 8.18255 27.5575C9.51774 28.4949 11.1418 29.0473 12.8934 29.0473C17.4261 29.0473 21.1135 25.3599 21.1135 20.8273V11.7514C22.8651 13.0086 25.0111 13.7495 27.3268 13.7495V9.28348C26.0794 9.28348 24.9176 8.91264 23.9432 8.27732Z" fill="#BBE0E7"/>
</svg>
