<svg width="32" height="33" viewBox="0 0 32 33" fill="none" xmlns="http://www.w3.org/2000/svg">
<path d="M25.9152 11.1591C25.931 11.3881 25.931 11.6171 25.931 11.8482C25.931 18.8904 20.57 27.0123 10.767 27.0123V27.008C7.87115 27.0123 5.03547 26.1828 2.59766 24.6188C3.01873 24.6694 3.44192 24.6948 3.86617 24.6958C6.26599 24.6979 8.59722 23.8927 10.4852 22.41C8.20463 22.3667 6.20478 20.8797 5.50615 18.7089C6.30504 18.863 7.1282 18.8313 7.91231 18.6171C5.42595 18.1148 3.63716 15.9302 3.63716 13.3932C3.63716 13.37 3.63716 13.3478 3.63716 13.3257C4.378 13.7383 5.20749 13.9673 6.05598 13.9926C3.7142 12.4276 2.99235 9.31224 4.40649 6.87653C7.11237 10.2061 11.1047 12.2302 15.3904 12.4445C14.9609 10.5934 15.5476 8.65371 16.9322 7.35249C19.0788 5.33469 22.4548 5.43812 24.4726 7.58361C25.6662 7.34827 26.8101 6.9103 27.857 6.28977C27.4592 7.52345 26.6265 8.5714 25.5142 9.23731C26.5706 9.11278 27.6027 8.82995 28.5746 8.39832C27.8591 9.47054 26.9579 10.4045 25.9152 11.1591Z" fill="#BBE0E7"/>
</svg>
