<svg width="38" height="38" viewBox="0 0 40 40" fill="none" xmlns="http://www.w3.org/2000/svg">
<path d="M33.3342 19.5835H6.66757C6.28423 19.5835 5.93423 19.4168 5.7009 19.1168C5.46757 18.8335 5.36757 18.4335 5.4509 18.0668L7.33423 9.0668C7.9509 6.15013 9.2009 3.4668 14.1509 3.4668H25.8676C30.8176 3.4668 32.0676 6.1668 32.6842 9.0668L34.5676 18.0835C34.6509 18.4501 34.5509 18.8335 34.3176 19.1335C34.0676 19.4168 33.7176 19.5835 33.3342 19.5835ZM8.2009 17.0835H31.7842L30.2176 9.58346C29.7509 7.40013 29.2009 5.9668 25.8509 5.9668H14.1509C10.8009 5.9668 10.2509 7.40013 9.78423 9.58346L8.2009 17.0835Z" fill="#14BDDC"/>
<path d="M33.264 37.9163H30.1307C27.4307 37.9163 26.914 36.3663 26.5807 35.3497L26.2474 34.3497C25.814 33.083 25.764 32.9163 24.264 32.9163H15.7307C14.2307 32.9163 14.1307 33.1997 13.7474 34.3497L13.414 35.3497C13.064 36.383 12.564 37.9163 9.86404 37.9163H6.73071C5.41404 37.9163 4.14738 37.3663 3.26404 36.3997C2.39738 35.4497 1.98071 34.183 2.09738 32.9163L3.03071 22.7663C3.28071 20.0163 4.01404 17.083 9.36404 17.083H30.6307C35.9807 17.083 36.6974 20.0163 36.964 22.7663L37.8974 32.9163C38.014 34.183 37.5974 35.4497 36.7307 36.3997C35.8474 37.3663 34.5807 37.9163 33.264 37.9163ZM15.7307 30.4163H24.264C27.2974 30.4163 28.014 31.7663 28.614 33.533L28.964 34.5663C29.2474 35.4163 29.2474 35.433 30.1474 35.433H33.2807C33.8974 35.433 34.4807 35.183 34.8974 34.733C35.2974 34.2997 35.4807 33.7497 35.4307 33.1663L34.4974 23.0163C34.2807 20.7663 34.014 19.5997 30.664 19.5997H9.36404C5.99738 19.5997 5.73071 20.7663 5.53071 23.0163L4.59738 33.1663C4.54738 33.7497 4.73071 34.2997 5.13071 34.733C5.53071 35.183 6.13071 35.433 6.74738 35.433H9.88071C10.7807 35.433 10.7807 35.4163 11.064 34.583L11.3974 33.5663C11.814 32.233 12.4307 30.4163 15.7307 30.4163Z" fill="#14BDDC"/>
<path d="M6.66667 14.583H5C4.31667 14.583 3.75 14.0163 3.75 13.333C3.75 12.6497 4.31667 12.083 5 12.083H6.66667C7.35 12.083 7.91667 12.6497 7.91667 13.333C7.91667 14.0163 7.35 14.583 6.66667 14.583Z" fill="#14BDDC"/>
<path d="M34.9987 14.583H33.332C32.6487 14.583 32.082 14.0163 32.082 13.333C32.082 12.6497 32.6487 12.083 33.332 12.083H34.9987C35.682 12.083 36.2487 12.6497 36.2487 13.333C36.2487 14.0163 35.682 14.583 34.9987 14.583Z" fill="#14BDDC"/>
<path d="M20 9.58333C19.3167 9.58333 18.75 9.01667 18.75 8.33333V5C18.75 4.31667 19.3167 3.75 20 3.75C20.6833 3.75 21.25 4.31667 21.25 5V8.33333C21.25 9.01667 20.6833 9.58333 20 9.58333Z" fill="#14BDDC"/>
<path d="M22.5 9.58301H17.5C16.8167 9.58301 16.25 9.01634 16.25 8.33301C16.25 7.64967 16.8167 7.08301 17.5 7.08301H22.5C23.1833 7.08301 23.75 7.64967 23.75 8.33301C23.75 9.01634 23.1833 9.58301 22.5 9.58301Z" fill="#14BDDC"/>
<path d="M15 26.25H10C9.31667 26.25 8.75 25.6833 8.75 25C8.75 24.3167 9.31667 23.75 10 23.75H15C15.6833 23.75 16.25 24.3167 16.25 25C16.25 25.6833 15.6833 26.25 15 26.25Z" fill="#14BDDC"/>
<path d="M30 26.25H25C24.3167 26.25 23.75 25.6833 23.75 25C23.75 24.3167 24.3167 23.75 25 23.75H30C30.6833 23.75 31.25 24.3167 31.25 25C31.25 25.6833 30.6833 26.25 30 26.25Z" fill="#14BDDC"/>
</svg>
