<svg width="38" height="38" viewBox="0 0 40 40" fill="none" xmlns="http://www.w3.org/2000/svg">
<path d="M24.9987 37.9163H14.9987C5.9487 37.9163 2.08203 34.0497 2.08203 24.9997V14.9997C2.08203 5.94967 5.9487 2.08301 14.9987 2.08301H24.9987C34.0487 2.08301 37.9154 5.94967 37.9154 14.9997V24.9997C37.9154 34.0497 34.0487 37.9163 24.9987 37.9163ZM14.9987 4.58301C7.31536 4.58301 4.58203 7.31634 4.58203 14.9997V24.9997C4.58203 32.683 7.31536 35.4163 14.9987 35.4163H24.9987C32.682 35.4163 35.4154 32.683 35.4154 24.9997V14.9997C35.4154 7.31634 32.682 4.58301 24.9987 4.58301H14.9987Z" fill="#14BDDC"/>
<path d="M25.8333 32.0837C23.3 32.0837 21.25 30.0337 21.25 27.5003V12.5003C21.25 9.96699 23.3 7.91699 25.8333 7.91699C28.3667 7.91699 30.4167 9.96699 30.4167 12.5003V27.5003C30.4167 30.0337 28.3667 32.0837 25.8333 32.0837ZM25.8333 10.417C24.6833 10.417 23.75 11.3503 23.75 12.5003V27.5003C23.75 28.6503 24.6833 29.5837 25.8333 29.5837C26.9833 29.5837 27.9167 28.6503 27.9167 27.5003V12.5003C27.9167 11.3503 26.9833 10.417 25.8333 10.417Z" fill="#14BDDC"/>
<path d="M14.1654 32.083C11.632 32.083 9.58203 30.033 9.58203 27.4997V21.6663C9.58203 19.133 11.632 17.083 14.1654 17.083C16.6987 17.083 18.7487 19.133 18.7487 21.6663V27.4997C18.7487 30.033 16.6987 32.083 14.1654 32.083ZM14.1654 19.583C13.0154 19.583 12.082 20.5163 12.082 21.6663V27.4997C12.082 28.6497 13.0154 29.583 14.1654 29.583C15.3154 29.583 16.2487 28.6497 16.2487 27.4997V21.6663C16.2487 20.5163 15.3154 19.583 14.1654 19.583Z" fill="#14BDDC"/>
</svg>
