<svg width="74" height="74" viewBox="0 0 74 74" fill="none" xmlns="http://www.w3.org/2000/svg">
<path d="M33.1765 50.4739C31.8815 50.4739 30.679 50.1656 29.5998 49.5489C27.1332 48.1306 25.7148 45.2323 25.7148 41.5631V32.4364C25.7148 28.7981 27.1332 25.8689 29.5998 24.4506C32.0665 23.0323 35.2732 23.2481 38.449 25.0981L46.3732 29.6614C49.5182 31.4806 51.3373 34.1631 51.3373 36.9998C51.3373 39.8364 49.5182 42.5189 46.3732 44.3381L38.449 48.9014C36.6607 49.9498 34.8415 50.4739 33.1765 50.4739ZM33.2073 28.1506C32.714 28.1506 32.2823 28.2431 31.9432 28.4589C30.9565 29.0448 30.3707 30.4939 30.3707 32.4364V41.5631C30.3707 43.5056 30.9257 44.9548 31.9432 45.5406C32.9298 46.1264 34.4715 45.8798 36.1673 44.8931L44.0915 40.3298C45.7873 39.3431 46.7432 38.1406 46.7432 36.9998C46.7432 35.8589 45.7873 34.6256 44.0915 33.6698L36.1673 29.1064C35.0573 28.4589 34.0398 28.1506 33.2073 28.1506Z" fill="white"/>
<path d="M37.0003 70.1462C18.7162 70.1462 3.85449 55.2845 3.85449 37.0003C3.85449 18.7162 18.7162 3.85449 37.0003 3.85449C55.2845 3.85449 70.1462 18.7162 70.1462 37.0003C70.1462 55.2845 55.2845 70.1462 37.0003 70.1462ZM37.0003 8.47949C21.2753 8.47949 8.47949 21.2753 8.47949 37.0003C8.47949 52.7253 21.2753 65.5212 37.0003 65.5212C52.7253 65.5212 65.5212 52.7253 65.5212 37.0003C65.5212 21.2753 52.7253 8.47949 37.0003 8.47949Z" fill="white"/>
</svg>
