<svg width="25" height="25" viewBox="0 0 30 30" fill="none" xmlns="http://www.w3.org/2000/svg">
<path d="M2.50005 28.4373C2.25005 28.4373 2.01251 28.3373 1.83751 28.1623C1.60001 27.9248 1.50008 27.5748 1.58758 27.2498L3.16259 21.3623C2.11259 19.4123 1.56255 17.2123 1.56255 14.9873C1.56255 7.5748 7.58755 1.5498 15.0001 1.5498C22.4125 1.5498 28.4375 7.5748 28.4375 14.9873C28.4375 22.3998 22.4125 28.4248 15.0001 28.4248C12.7376 28.4248 10.5251 27.8623 8.55008 26.7873L2.75007 28.3998C2.66257 28.4248 2.58755 28.4373 2.50005 28.4373ZM8.67505 24.8498C8.83755 24.8498 9.00006 24.8998 9.15006 24.9748C10.9126 26.0123 12.9376 26.5623 15.0001 26.5623C21.3751 26.5623 26.5625 21.3748 26.5625 14.9998C26.5625 8.62482 21.3751 3.43732 15.0001 3.43732C8.62505 3.43732 3.43755 8.62482 3.43755 14.9998C3.43755 17.0373 3.97504 19.0248 4.98754 20.7748C5.11254 20.9873 5.15006 21.2498 5.08756 21.4873L3.83756 26.1623L8.43755 24.8873C8.51255 24.8623 8.60005 24.8498 8.67505 24.8498Z" fill="#2B2D33"/>
<path d="M18.425 22.2004C17.65 22.2004 16.8501 22.0253 16.0126 21.6628C15.2251 21.3253 14.4376 20.8754 13.6751 20.3129C12.9251 19.7629 12.1876 19.1378 11.5126 18.4628C10.8376 17.7753 10.2125 17.0504 9.66254 16.3004C9.10004 15.5129 8.65003 14.7378 8.32503 13.9753C7.97503 13.1503 7.80005 12.3379 7.80005 11.5629C7.80005 11.0129 7.90002 10.4879 8.08752 10.0004C8.28752 9.48786 8.61254 9.02535 9.03754 8.62535C9.83754 7.83785 10.9876 7.55038 11.9001 7.98788C12.2126 8.12538 12.4751 8.35037 12.6751 8.65037L14.125 10.6878C14.275 10.8878 14.3876 11.1003 14.4751 11.3128C14.5751 11.5628 14.6376 11.8129 14.6376 12.0504C14.6376 12.3754 14.5501 12.7004 14.3751 12.9879C14.2626 13.1754 14.1 13.4004 13.8875 13.6129L13.725 13.7879C13.8 13.8879 13.8875 14.0128 14.025 14.1628C14.2875 14.4628 14.575 14.7878 14.8875 15.1003C15.2 15.4003 15.5125 15.7003 15.825 15.9628C15.975 16.0878 16.1001 16.1879 16.2001 16.2504L16.375 16.0753C16.6 15.8503 16.8251 15.6754 17.0501 15.5629C17.4626 15.3004 18.1001 15.2379 18.6626 15.4754C18.8626 15.5504 19.0625 15.6629 19.275 15.8129L21.3626 17.2878C21.6501 17.4878 21.8751 17.7628 22.0251 18.0753C22.1501 18.3878 22.2001 18.6629 22.2001 18.9504C22.2001 19.3254 22.1126 19.6879 21.9501 20.0379C21.7876 20.3629 21.6 20.6504 21.375 20.9129C20.975 21.3504 20.5126 21.6754 20.0126 21.8879C19.5126 22.1004 18.975 22.2004 18.425 22.2004ZM10.9875 9.67535C10.9125 9.67535 10.6626 9.67535 10.3501 9.98785C10.1126 10.2128 9.95005 10.4504 9.83755 10.7129C9.72505 10.9754 9.67505 11.2754 9.67505 11.5754C9.67505 12.1004 9.80003 12.6628 10.05 13.2628C10.3125 13.8878 10.7001 14.5504 11.1751 15.2129C11.6626 15.8754 12.2126 16.5379 12.8251 17.1504C13.4376 17.7504 14.0876 18.3128 14.7626 18.8128C15.4126 19.2878 16.0751 19.6628 16.7376 19.9503C17.6876 20.3628 18.5625 20.4629 19.275 20.1629C19.525 20.0629 19.75 19.8879 19.975 19.6629C20.0875 19.5379 20.1751 19.4129 20.2501 19.2504C20.2876 19.1629 20.3126 19.0628 20.3126 18.9753C20.3126 18.9503 20.3125 18.9129 20.275 18.8379L18.1875 17.3879C18.1 17.3254 18.0125 17.2753 17.9375 17.2503C17.8875 17.2753 17.8126 17.3128 17.6751 17.4503L17.2001 17.9254C16.8376 18.2879 16.2626 18.3878 15.8001 18.2253L15.5751 18.1254C15.2876 17.9754 14.9626 17.7504 14.6001 17.4379C14.2501 17.1379 13.9126 16.8253 13.5501 16.4753C13.2001 16.1128 12.8876 15.7754 12.5876 15.4254C12.2626 15.0379 12.0376 14.7254 11.8876 14.4629L11.7501 14.1379C11.7126 14.0129 11.7 13.8754 11.7 13.7504C11.7 13.4004 11.8251 13.0878 12.0626 12.8378L12.5376 12.3504C12.6751 12.2129 12.7251 12.1379 12.7501 12.0879C12.7126 12.0004 12.6626 11.9254 12.6001 11.8379L11.1375 9.77537L10.9875 9.67535Z" fill="#2B2D33"/>
</svg>
